<?xml version="1.0" encoding="UTF-8"?>
<svg id="a" data-name="Discord.gg-@marazm" xmlns="http://www.w3.org/2000/svg" viewBox="0 0 1155.22738 850.1369">
  <defs>
    <style>
      .b {
        fill: #555;
      }

      .c, .d {
        stroke-width: 3px;
      }

      .c, .d, .e {
        stroke: #777;
        stroke-miterlimit: 10;
      }

      .f {
        fill: #777;
      }

      .g {
        fill: #987f00;
      }

      .d {
        fill: none;
      }

      .e {
        fill: #363636;
        stroke-width: 6px;
      }
    </style>
  </defs>
  <polygon class="e" points="267.69054 797.6369 240.42967 800.96298 206.7775 794.37603 174.36446 781.07168 155.64707 768.94125 163.01663 759.41951 156.69054 754.07168 145.00033 765.95755 74.12533 777.51733 72.07098 766.29994 68.45141 766.78907 67.08185 762.68038 52.70141 766.20211 46.44054 770.99559 30.8862 756.61516 20.51663 763.36516 3.00576 745.16951 3.42967 656.11516 14.15793 650.47385 28.44054 637.85429 40.86446 624.74559 51.03837 609.19125 69.1688 610.72385 69.82098 604.72385 51.36446 603.41951 38.4188 582.19125 39.29924 579.35429 72.46228 521.34342 85.17967 521.34342 85.17967 504.51733 91.92967 504.51733 91.92967 482.79994 98.28837 464.50646 112.2775 452.37603 113.32098 413.04994 116.90793 411.0282 117.23402 374.04994 115.2775 371.44125 119.84272 344.96298 136.08185 344.96298 136.79924 326.24559 174.64163 325.69125 174.73946 313.75646 178.40793 311.89777 178.40793 302.89777 182.95685 301.28364 182.95685 291.99016 199.08185 291.68038 202.14707 228.22385 208.99489 227.83255 209.32098 209.76733 202.6688 209.31081 203.32098 202.59342 238.08185 171.0282 325.86446 171.68038 328.2775 175.26733 365.71228 175.91951 379.92967 171.74559 367.92967 93.81081 404.06011 73.1369 478.73402 74.76733 478.92967 18.61516 495.8862 10.98472 496.86446 3.0282 536.94054 3.45211 538.2612 6.09342 617.58185 7.00646 622.79924 36.68038 689.74489 25.65864 829.53837 26.04994 833.54924 27.85972 846.21772 50.60429 853.70141 50.50646 856.14707 60.72929 909.56011 89.31081 914.90793 79.65864 950.97315 83.57168 950.97315 87.15864 965.3862 105.81081 952.6688 113.89777 957.82098 121.5282 1004.74489 90.81081 1097.87533 91.20211 1129.2775 112.1369 1149.1362 137.96298 1142.28837 137.96298 1142.97315 218.08255 1093.76663 267.82711 1107.11989 278.68581 1109.56554 295.16951 1108.19598 297.51733 1112.54924 316.1532 1115.32098 359.70211 1119.8862 378.09342 1119.8862 396.85972 1127.0275 396.85972 1127.0275 462.35429 1113.1688 464.04994 1095.29924 474.15864 1059.8862 500.57168 1053.23402 509.83255 1066.6688 527.96298 1130.15793 527.96298 1130.15793 575.93038 1119.00576 575.93038 1119.00576 583.07168 1137.98402 583.07168 1137.98402 706.91951 1144.24489 707.06625 1146.23402 722.83255 1143.23402 760.00646 1130.58185 773.04994 1129.52207 774.12603 1060.99489 775.78907 1023.5275 771.97385 1003.47315 765.22385 1003.01663 721.78907 911.45141 721.00646 910.99489 707.37603 868.6688 707.24559 781.14707 738.35429 766.53837 738.87603 753.36446 736.5282 731.58185 743.18038 699.03837 765.61516 672.33185 765.61516 672.33185 847.1369 563.58185 847.1369 563.58185 779.70211 479.19054 779.70211 468.42967 790.46298 459.49489 798.35429 452.32098 802.91951 446.71228 807.87603 419.15793 813.94125 391.08185 813.84342 391.08185 798.7782 374.35359 798.7782 374.35359 815.11516 327.49489 815.11516 327.49489 785.04994 277.01663 785.04994 277.01663 778.91951 267.8862 778.91951 267.69054 797.6369"/>
  <polygon class="c" points="188.7775 732.25646 201.34815 721.44668 255.69054 739.78907 267.03837 740.83255 267.03837 744.48472 275.3862 744.48472 275.3862 740.44125 342.56011 705.25646 343.6362 676.1369 346.92967 676.1369 348.07098 632.83255 352.19598 617.75103 372.1525 617.99559 372.1525 600.28907 341.58185 495.81081 336.78837 432.71298 339.5275 402.68038 346.47315 393.09342 359.97315 389.57168 389.95685 388.83798 389.95685 367.41407 362.12533 367.41407 306.07098 344.86516 276.5275 339.19125 248.12533 340.72385 200.95685 394.5119 194.19054 418.98472 193.6688 451.00646 165.00576 551.57168 143.84272 587.18038 122.97315 613.07168 112.03293 610.70755 111.1525 617.11516 127.99489 624.68038 195.72315 709.26733 186.42967 718.98472 188.84272 721.39777 183.42967 726.0282 188.7775 732.25646"/>
  <polygon class="b" points="626.0112 621.88418 626.0112 590.38418 743.2313 590.38418 743.2313 613.59342 643.47315 613.59342 643.47315 621.88418 626.0112 621.88418"/>
  <polygon class="b" points="419.97315 164.14777 419.97315 230.66951 623.22315 230.11516 623.17424 72.17494 603.58457 72.17494 603.53565 209.57168 525.39707 209.57168 525.39707 176.70211 506.71228 176.70211 505.96228 209.79994 430.79924 209.79994 430.79924 164.08255 419.97315 164.14777"/>
  <polygon class="c" points="400.13076 724.28364 400.47315 687.54994 385.2775 685.72385 388.14707 659.37603 404.12533 660.94125 404.12533 654.28907 409.86446 654.28907 410.06011 584.76733 590.84272 584.53907 591.5275 631.10429 565.99489 630.81081 566.33728 723.84342 539.48402 723.59885 540.07098 742.62603 502.47315 742.62603 502.17967 724.39777 400.13076 724.28364"/>
  <rect class="c" x="673.92967" y="613.98472" width="68.93478" height="94.63043"/>
  <path class="c" d="m742.86445,663.54991c8.17395-4.95648,16.34778-9.91302,24.52173-14.86951h4.56519l24.27722,13.04346,9.24463-14.91846-41.02185-19.45111c-7.19568-2.32611-14.39124-4.65216-21.58691-6.97827v43.17389Z"/>
  <polygon class="c" points="887.0112 672.09342 843.96772 617.45755 909.41337 566.68581 924.10359 582.61516 972.1362 582.54994 972.1362 577.36516 1033.45685 577.74016 1033.45685 667.49559 979.14707 667.49559 979.14707 678.45211 962.06011 678.45211 962.06011 655.26733 905.58185 656.89777 887.0112 672.09342"/>
  <polygon class="c" points="1062.62533 729.74559 1062.75576 672.68038 1129.54652 672.68038 1129.54652 729.74559 1062.62533 729.74559"/>
  <path class="c" d="m954.88617,525.61516l1.10876-20.08698-3.91309-.58691.91309-2.73914-34.76086-12.3913-23.3479-15.52179-4.69568-4.01086-13.30432-18.78259-6.94568-13.79346h-72.58691l-3.52173,2.34778-19.61414-8.02173-28.28809,12.65222-21.19556,15.13043-15.78271-6.91309-7.23914,10.17395-39-28.1087-25.0434-16.17395-25.01086-15.61957c-7.83698-4.78259-15.67395-9.56522-23.51093-14.34781-10.26086-5.44565-20.52173-10.8913-30.78259-16.33694l-23.6087-11.6087-18.45648-8.28259c-5.55981-2.38043-11.11957-4.76089-16.67938-7.14133-4.04346-1.05978-8.08698-2.11954-12.13043-3.17932-2.55975-.42392-5.11957-.84784-7.67932-1.27176-2.46198-.06522-4.92389-.13043-7.38586-.19565-1.37775.23642-2.75543.47281-4.13318.70923l-3.02448,1.36142-1.1413,2.86957c.03766,1.01511.15948,2.14642.42395,3.3587.8783,4.02615,2.89014,6.93073,4.33691,8.6413l7.1087,8.44565,9.19568,9.48914c4.34784,3.04349,8.69562,6.08694,13.04346,9.13043,5.1413,3.28262,10.28265,6.56522,15.42395,9.84784l26.11951,16.69565c7.97284,4.96741,15.94568,9.93475,23.91852,14.90216,7.04889,4.16302,14.09784,8.32611,21.14673,12.48914l26.02173,14.34784,27.22827,14.54346,24.42395,11.21741,22.33691,8.54346-6.26086,16.97284,34.40222,16.61414,38.23364-70.5163,14.18481-7.38586,29.55981,10.01086.71729,8.80432,33.11414.55438,12.73376,16.5-.48914,3.19562,13.4021,11.38043-2.05432,17.21741,35.93481,10.45111,66.55432,4.41846Z"/>
  <polygon class="c" points="258.1362 302.89777 258.1362 229.85429 343.6688 229.33255 343.97859 217.76461 362.56554 217.20211 363.10359 228.69668 373.91337 232.46298 372.78837 241.21842 387.36446 243.51733 386.23946 247.16135 372.98402 259.65864 361.04924 293.79994 363.8862 295.23472 359.82641 321.33798 354.1525 328.47929 295.99489 303.28907 258.1362 302.89777"/>
  <rect class="c" x="430.79924" y="116.70211" width="24.97826" height="92.86957"/>
  <rect class="c" x="577.53837" y="94.5282" width="25.69565" height="115.04348"/>
  <polygon class="c" points="623.22315 209.57168 652.99489 209.57168 661.6688 205.5282 673.86446 230.11516 623.22315 230.11516 623.22315 209.57168"/>
  <rect class="c" x="623.17424" y="92.52277" width="119.2337" height="24.57065"/>
  <polygon class="c" points="1035.23402 454.91951 1035.46228 441.71298 1009.44054 442.10429 1009.11446 382.26733 1012.47315 378.68038 1019.81011 353.96298 1032.42967 322.75646 1046.22315 289.10429 1052.3862 274.5282 943.89707 161.73472 939.98402 163.49559 915.49489 130.46298 901.34272 111.50103 901.53837 105.87603 839.27207 78.48472 817.79924 76.07168 806.25576 82.33255 784.79924 77.50646 774.1688 136.00646 763.60359 146.71842 744.56011 149.83255 743.58185 149.37603 717.72315 149.70211 717.72315 209.04994 744.03837 208.98472 801.07098 221.79994 802.53837 243.41951 791.28837 264.35429 830.3862 303.28907 856.01663 351.48472 861.10359 378.48472 869.06011 394.78907 913.6688 411.22385 913.60359 415.85429 955.24489 448.36516 954.85359 455.89777 1035.23402 454.91951"/>
  <polygon class="b" points="565.43239 375.02005 586.6362 337.77277 664.75033 377.49016 640.24489 418.91951 565.43239 375.02005"/>
  <polygon class="b" points="476.3862 428.01733 501.82098 388.1369 591.23402 443.71842 565.24489 485.01733 476.3862 428.01733"/>
  <rect class="g" x="625.32641" y="622.44668" width="19.22283" height="36.14674"/>
  <polygon class="g" points="506.12533 176.75103 526.37533 176.75103 524.32098 131.84885 506.12533 131.84885 506.12533 176.75103"/>
  <rect class="g" x="622.95413" y="72.51733" width="49.72011" height="18.44022"/>
  <rect class="g" x="420.11174" y="119.64505" width="9.07337" height="44.65761"/>
  <polygon class="g" points="565.50576 485.01733 585.41337 453.54994 599.54924 463.23472 580.92967 494.31081 565.50576 485.01733"/>
  <polygon class="g" points="476.14163 427.67494 496.2612 396.66407 481.88076 386.66951 461.23946 417.74559 476.14163 427.67494"/>
  <polygon class="g" points="567.82098 370.07168 586.37533 337.98472 571.01663 329.03364 552.29924 360.82711 567.82098 370.07168"/>
  <polygon class="g" points="646.83185 408.71298 662.2313 417.81896 680.62261 386.12331 665.3862 377.00103 646.83185 408.71298"/>
  <rect class="f" x="375.03837" y="772.14505" width="15.06522" height="23.77174"/>
  <polygon class="f" points="636.9188 767.37603 652.6688 756.85972 620.35359 706.1369 604.04924 716.86516 636.9188 767.37603"/>
  <polygon class="f" points="733.2775 739.69125 733.2775 719.31081 753.29924 719.31081 753.29924 733.74831 733.2775 739.69125"/>
  <polygon class="f" points="742.53429 595.22657 756.04652 595.22657 756.04652 623.20483 744.36853 619.58527 744.36853 609.80266 742.53429 609.80266 742.53429 595.22657"/>
  <rect class="f" x="825.64978" y="664.5119" width="12.44837" height="28.90761"/>
  <rect class="f" x="898.53022" y="688.99288" width="12.47283" height="15.48098"/>
  <rect class="f" x="963.98402" y="679.80538" width="12.7337" height="8.6087"/>
  <rect class="f" x="979.32641" y="712.07168" width="19.40217" height="6.71739"/>
  <polygon class="f" points="547.6688 583.36516 572.69598 534.10972 574.40793 510.53364 588.25033 510.53364 588.00576 528.33798 589.86446 537.97385 589.86446 541.05538 568.34272 583.36516 547.6688 583.36516"/>
  <polygon class="f" points="697.6688 561.79451 717.18511 522.95755 700.11446 515.08255 680.64707 553.91951 697.6688 561.79451"/>
  <polygon class="f" points="791.90793 531.41951 783.75576 535.65864 776.32098 522.35429 800.58185 509.83255 807.07098 522.17494 804.83728 523.47929 823.64435 530.12331 819.9025 542.15592 791.65522 532.78907 791.90793 531.41951"/>
  <polygon class="f" points="894.85359 576.64777 894.85359 552.71298 909.39707 552.71298 909.39707 565.16951 894.85359 576.64777"/>
  <polygon class="f" points="185.50033 302.6532 207.5112 305.39233 209.61446 293.70211 201.8862 292.03907 201.49489 294.09342 185.89163 294.53364 185.50033 302.6532"/>
  <polygon class="f" points="391.03293 387.66407 408.29924 392.35972 411.77207 378.32168 391.03293 374.6532 391.03293 387.66407"/>
  <polygon class="f" points="468.56011 487.98472 456.03837 485.01733 458.87533 472.08798 462.29924 462.30538 466.01663 453.06081 471.73946 445.57711 477.60902 438.19125 482.50605 431.94302 496.38689 440.84713 482.81011 453.64777 476.21263 461.91407 470.90793 477.61516 468.56011 487.98472"/>
  <polygon class="f" points="549.78837 436.57711 533.35359 427.36516 541.21228 413.83255 557.64707 424.0348 549.78837 436.57711"/>
  <polygon class="f" points="607.57098 466.8869 585.85359 453.25646 591.62533 444.06081 614.54924 456.64777 607.57098 466.8869"/>
  <polygon class="f" points="659.61446 431.0744 666.09543 420.92494 644.30467 407.52277 638.63076 417.81896 659.61446 431.0744"/>
  <polygon class="f" points="478.04924 339.87603 497.4188 343.74016 475.11446 304.02277 462.39707 309.79451 478.04924 339.87603"/>
  <polygon class="f" points="602.67967 395.83255 610.01663 385.56081 587.46772 371.42494 580.76663 382.87059 602.67967 395.83255"/>
  <rect class="f" x="292.6688" y="174.35429" width="11.93478" height="18.88043"/>
  <polygon class="f" points="430.40793 230.06625 435.1688 230.06625 435.1688 232.08798 454.59543 232.08798 454.61989 243.68853 449.53293 243.68853 435.10359 277.20211 420.56011 272.11516 433.73402 237.19125 430.2775 233.93038 430.40793 230.06625"/>
  <rect class="f" x="844.77478" y="420.99831" width="16.50815" height="15.43207"/>
  <polygon class="f" points="1051.21228 508.16951 1040.67967 493.33255 1047.9188 488.01733 1056.69054 500.34342 1051.21228 508.16951"/>
  <rect class="f" x="1036.44054" y="441.09342" width="8.6413" height="13.56522"/>
  <polygon class="f" points="707.32098 371.18038 712.73402 360.81081 720.56011 350.18038 712.6688 344.37603 712.92967 343.20211 722.64707 343.20211 722.64707 330.35429 710.06012 330.35429 709.86446 342.97385 702.85359 352.8869 696.29924 365.04994 707.32098 371.18038"/>
  <polygon class="f" points="778.47315 345.06081 780.47859 332.58798 789.96772 334.78907 801.85359 334.93581 811.53837 325.74016 820.44054 335.40048 813.34815 341.6369 804.64163 347.84885 791.28837 347.84885 778.47315 345.06081"/>
  <polygon class="f" points="524.36989 59.94668 540.31554 50.94668 560.07641 84.79451 558.95141 88.85429 556.2612 91.59342 552.34815 93.59885 548.63076 94.62603 544.52207 93.99016 542.22315 92.62059 524.36989 59.94668"/>
  <polygon class="f" points="673.2612 231.48472 673.2612 276.82711 683.6063 282.32983 678.5438 291.89233 660.91065 282.23201 655.40793 282.81081 646.40793 265.57711 638.28837 258.28907 646.70141 249.63146 654.08728 256.67494 654.08728 231.48472 673.2612 231.48472"/>
  <polygon class="f" points="624.46228 208.1369 647.90793 208.1369 650.61446 194.24559 629.84272 189.48472 630.72315 171.28907 624.46228 168.09342 624.46228 208.1369"/>
  <rect class="f" x="692.26391" y="150.97385" width="23.96739" height="14.28261"/>
  <rect class="f" x="728.33728" y="77.57983" width="11.93478" height="13.64674"/>
  <rect class="f" x="702.78837" y="28.23472" width="10.66304" height="17.67391"/>
  <line class="d" x1="623.22315" y1="208.1369" x2="623.22315" y2="167.79994"/>
  <line class="d" x1="623.22315" y1="137.13146" x2="623.22315" y2="117.51733"/>
  <polyline class="d" points="624.47859 72.25646 603.24217 72.25646 603.24217 99.10157"/>
  <line class="d" x1="623.95685" y1="230.11516" x2="435.49489" y2="230.11516"/>
  <line class="d" x1="419.97315" y1="231.45211" x2="419.97315" y2="164.14777"/>
  <polyline class="d" points="506.07978 204.61486 506.07978 209.79994 455.7775 209.57168"/>
  <polyline class="d" points="525.39707 204.61486 525.39707 209.57168 577.53837 209.57168"/>
  <polyline class="d" points="626.0112 621.88418 626.0112 590.38418 697.60359 590.38418"/>
  <line class="d" x1="668.83457" y1="613.98472" x2="674.14163" y2="613.98472"/>
  <polyline class="d" points="649.40793 613.98472 643.55467 613.98472 643.55467 621.88418"/>
  <line class="d" x1="743.2313" y1="614.08255" x2="743.2313" y2="609.90048"/>
  <polyline class="d" points="743.2313 594.54179 743.2313 590.38418 737.70413 590.38418"/>
</svg>