<?xml version="1.0" encoding="UTF-8"?>
<svg id="a" data-name="Discord.gg-@marazm" xmlns="http://www.w3.org/2000/svg" viewBox="0 0 1652.45735 1780.76086">
  <defs>
    <style>
      .b, .c, .d {
        stroke-width: 9px;
      }

      .b, .c, .d, .e, .f, .g, .h, .i, .j, .k, .l, .m {
        stroke-miterlimit: 10;
      }

      .b, .c, .d, .e, .g, .h, .i, .j, .l, .m {
        stroke: #777;
      }

      .n {
        fill: #555;
      }

      .c, .e, .f, .h, .i, .j, .l, .m {
        fill: none;
      }

      .d, .o {
        fill: #363636;
      }

      .e {
        stroke-width: 14px;
      }

      .f {
        stroke: red;
      }

      .f, .g, .h {
        stroke-width: 4px;
      }

      .i {
        stroke-width: 8px;
      }

      .j {
        stroke-width: 3px;
      }

      .k {
        fill: #987f00;
        opacity: .6;
        stroke: #987f00;
      }

      .l {
        stroke-width: 7px;
      }

      .m {
        stroke-width: 5px;
      }
    </style>
  </defs>
  <path class="d" d="m978.33785,1496.48108c-3.16309-.45654-6.32605-.91309-9.48914-1.36963-2.67395.29346-5.34778.58704-8.02173.88049-2.57605-.06519-5.15222-.13049-7.72827-.19568-1.92871.00989-3.85754.0199-5.78625.02979l-13.04688,2.08704h13.44824l12.11011,70.43469,23.81873-1.82605,19.80432,1.30432,15.85681,5.47827,12.11011,5.60876,17.26184,10.95654,11.37415,10.43469,10.43738,12.78259,9.50073,14.73914,5.35254,13.17395,2.81006,14.47827.66907,18.13049-.93665,19.04346-5.48633,17.47827-9.50073,17.60864-10.70508,13.56519-15.25464,14.73914-16.99426,9.52173-17.39575,7.56531-16.72656,3.13037h-18.46619l-22.6814-2.21741-18.0647-6.45654-18.13171-10.5-15.25464-13.56519-13.51514-15.52173-8.29639-16.95654-5.21875-16.95654-2.14099-16.69556v-16.56531l3.07776-15.39124c.72595-5.28174,1.45178-10.56335,2.17773-15.84509l.13037-9.78259c-.03894-3.01453-.07776-6.02893-.1167-9.04346-7.42114.47009-14.84229.94019-22.26343,1.41028l-8.69781,2.47827-6.95831,27.13037-156.0929-38.73914c1.17596-7.34375,2.35193-14.68738,3.52789-22.03113-14.7923-1.43799-29.58466-2.87598-44.37695-4.31396,4.69562-19.36951,9.3913-38.73914,14.08691-58.10864-10.36957-1.95654-20.73914-3.91296-31.1087-5.86951,1.23914-12.06519,2.47827-24.13049,3.71741-36.19568,80.96558,18.56433,161.93115,37.12854,242.89673,55.69287l.8363-24.84778c1.34485-.1001,2.68958-.20007,4.03442-.30017.1283-1.24683.25647-2.49377.38477-3.7406-3.69568.69568-7.39136,1.39124-11.08704,2.08691-4.21741,1.47827-8.43475,2.95654-12.65216,4.43481-3.13043,2.19568-6.26086,4.39124-9.3913,6.58691-35.69562-7.1521-71.3913-14.30432-107.08691-21.45642,1.47577-15.24011,2.95154-30.4801,4.42731-45.72021l4.0144-53.02173,1.80646-34.63043-1.80646-11.73914-4.41583-7.82605-10.63812-11.34784-15.2547-6.84784-78.0799-32.47827h-1.80646l-2.81012,1.56525-3.61292,9.58691v2.54352l5.82086,2.73914,56.00073,22.69562-8.63092,43.04352-115.41376-30.71741c-1.89587-.49908-3.79169-.99817-5.68756-1.49725-2.69568-.78259-5.3913-1.56525-8.08698-2.34784-2.34784-.78259-4.69562-1.56525-7.04346-2.34784-2-.86957-4-1.73907-6-2.60864-.8913-11.52173-1.78265-23.04352-2.67395-34.56525-5.35712-32.43573-10.71423-64.8714-16.07135-97.30713l5.41943-9.19562-4.41583-27.97827-11.03961,1.56525c.35461,11.04437.70929,22.08881,1.0639,33.13318-71.97827,9.13043-143.95654,18.26086-215.93478,27.3913-1.29855-20.26703-2.59711-40.534-3.89566-60.80103-.8096.05804-1.61923.11603-2.42883.17407.89078,20.99158,1.78156,41.98322,2.67233,62.97479-44.78262,2.86957-89.56522,5.73914-134.34784,8.6087-4.07932-36.414-8.15863-72.82794-12.23795-109.24194h-9.03238l-2.00717,6.26093-90.72523,6.84778c-6.86865.82703-13.7373,1.65399-20.60596,2.48102-1.21739-9.47827-2.43478-18.95648-3.65218-28.43475-1.13043-3.30432-2.26086-6.6087-3.3913-9.91302l-4.95653-13.04352c-2.84718-21.32703-5.69437-42.65399-8.54155-63.98102l43.2372-4.88855c-2.43478-24.34784-4.86957-48.69562-7.30435-73.04346-7.11089.46973-14.22179.93951-21.33267,1.40924-4.69066-40.93109-9.38132-81.86224-14.07198-122.79333,8.25415-19.38739,16.5083-38.77475,24.76245-58.16214,7.63435-1.19473,15.26872-2.38947,22.90308-3.5842,5.73914-.43478,11.47826-.86957,17.21739-1.30435,8.08696-1.3913,16.1739-2.78262,24.26086-4.17392,3.83022-.30527,7.66042-.61053,11.49065-.9158l30.24847-6.38855c-6.95651-44.80435-13.91306-89.60867-20.86957-134.41302,23.15219-2.93478,46.30435-5.86957,69.45654-8.80435,3.45651,2.34781,6.91306,4.69565,10.36957,7.04346,27.06522,8.41306,54.13043,16.82608,81.19565,25.23914,42.58694-3.36957,85.17389-6.73911,127.76086-10.10867,18-5.3913,36-10.78262,54-16.17392,3.07666-.61313,6.15332-1.22623,9.22998-1.83936-3.73425-14.23563-7.46857-28.47127-11.20282-42.70689l-22.88202-1.04347-14.58563-11.21739-5.62012-.78261-.40149-17.86957-16.32513-21.65218,17.93091-20.21739,10.03601-18.3913,12.31079-18.00001,15.52228-15.91304,15.92377-13.30435,11.50793-5.73913,5.35248,1.69566,8.56409,5.21738,20.13885.3913,7.22589-12.03261,5.31903-11.93478,4.41583-16.33696,1.104-7.23913-7.82806-25.23913,17.06116-11.34783,78.0799-48.32609h23.48419l6.22229,3.32608,10.43744-7.04348,15.65607,1.76087,7.02521-8.41304h24.88922l7.62732-5.67392h8.02881l23.68488-10.56522,62.95905-5.80434,6.69067,4.69565,4.0144,1.82609,2.51941,11.47826,19.96118-1.30435,3.74677-9.65217,8.29639-2.86957,9.36688-7.82609,14.51868,1.43478,5.92126,4.5,18.36584.97826c.25,10.45744.49988,20.91488.74988,31.37232,16.04346.08696,32.08704.17391,48.13049.26087-1.26086-23.08696-2.52173-46.17391-3.78259-69.26087,7.6521.43761,15.3042.87524,22.9563,1.31285.04895-16.12651.0979-32.25301.14685-48.37952-.04773-14.13721-.09546-28.2744-.14319-42.41161-3.21851.08696-6.43713.17392-9.65564.26088.34778-47.87048.69568-95.74098,1.04346-143.61147h107.86951c.02832,44.17392.05676,88.34784.08508,132.52174h-14.4519v13.30435l2.20801,89.31522h25.19031l4.31543-3.42391,43.48926.13044,8.02881,2.73913c18.03113,11.21421,36.06226,22.42842,54.09338,33.64263,3.75305-.14807,7.50598-.29615,11.25903-.44422,2.34778-2.41304,4.69568-4.82609,7.04346-7.23913,5.15222-8.28261,10.30432-16.56522,15.45654-24.84782,8.40649,9.10777,16.81299,18.21555,25.21948,27.32333l2.30835,3.32609,88.81836,146.93478,2.0072,13.5,4.41577,22.1087,3.21155,17.6087,2.20789,14.08695c3.37915,1.19658,6.75842,2.39314,10.13757,3.58972,5.86951,3.97826,11.73914,7.95653,17.60864,11.93478,5.87219,4.41212,11.74426,8.82425,17.61646,13.23637l98.68713,57.84782,11.70862-9.3261,12.84607-9.97826,12.2439-6.26086,12.44458-3.13043,10.43738-1.56522h10.23669l12.2439,1.36955,12.2439,3.52174,10.83887,5.28261,11.24036,7.43478,9.03235,7.43478,8.22949,8.80435,5.8208,9.3913,4.61658,10.56522,3.61292,10.95653,1.20435,10.76088v17.21738l-59.88135,100.82608-12.44458,10.82611-15.78992,10.95651-11.64172,3.65216-13.78271.52176-17.52954-3.39133-12.84607-4.56522-6.02161-2.73914-52.78918,86.02176-4.0144,12.32608-8.43018,32.28259-.80298,6.26086,1.40515,5.47827,3.41223,3.52173,6.42297,5.47827,7.22595,7.23914,4.61646,5.47827,5.62024,7.82611,4.81726,8.60864,3.8136,5.86957.60217,4.5.80286,13.89136-.60217,13.5-7.02515,19.76086-9.03235,9.58691-13.84961,12.52173-17.46265,8.21741-9.63452,1.17395h-53.19067v-14.86957h-52.38782v47.54346l-3.01074,14.28259-5.01807,16.23914-10.23669,17.80438-11.37415,13.23914-12.57837,11.47821-18.46619,10.43481-19.00146,5.73914-16.3252,2.08691-16.59277-.78259-12.31079-1.30432-4.54968-1.30438-18.3324,32.73914.40149,8.6087-48.97559,78.3913-21.41016,47.73914-9.36682,36.78259-12.04321,47.21747-15.25464,52.17383-10.70508,42-8.29639,30.52173-43.08777-12-5.08496-4.43469c-2.52649-1.21643-5.0531-2.43298-7.57959-3.64941Z"/>
  <line class="c" x1="1025.32539" y1="1354.56525" x2="985.98433" y2="1497.58691"/>
  <polyline class="e" points="686.00902 1186.89131 764.59072 1219.36958 778.84181 1221.7174 788.67706 1219.17392 799.3152 1213.50001 807.94614 1204.30436 817.17924 1188.84784 826.14471 1173.65218 847.88932 1136.60871 858.9289 1119.19566"/>
  <path class="b" d="m1199.4831,1079.60869c-19.84688-1.96381-37.63006-19.95801-36.39715-41.73914,1.18332-20.90527,19.42835-37.24664,39.87622-37.56519,16.47213-.25659,31.9414,9.92261,38.00288,25.04346,7.85304,19.58997-4.44022,36.60864-5.35254,37.82611-8.01146,10.6911-21.74665,17.85791-36.12941,16.43475Z"/>
  <path class="g" d="m1276.62618,963.75c-6.48987-1.33698-12.97986-2.67389-19.46973-4.01086-2.68958-2.15125-5.37903-4.30249-8.0686-6.45374-.56519-2.3913-1.13049-4.78265-1.69568-7.17395.60864-1.56519,1.21741-3.13043,1.82605-4.69562,3.91309.17389,7.82605.34784,11.73914.52173l12,1.56519c10.56519.08698,21.13049.17389,31.69568.26086.78259-5.30432,1.56519-10.6087,2.34778-15.91302,3.76367-21.74847,7.27539-39.94946,10.10388-53.9375,3.91455-19.35947,6.50806-30.93872,8.24622-37.97284,1.578-6.38586,3.15576-12.77173,4.73364-19.15762l6.28918-12,7.22583,3.26086,5.08496,3.65219,4.14819,2.60867,2.3418.91306,11.70862-.58694,2.17444,1.59781-20.17224,37.07611c-1.04846.80527-2.09692,1.6105-3.14539,2.41577-.47827,1.21741-.95642,2.43478-1.43469,3.65219-.3479,1.91302-.69568,3.82608-1.04358,5.73911-.17395,4.56525-.34778,9.13043-.52173,13.69568-.6521,8.47827-1.30432,16.95648-1.95642,25.43475-1.73914,12.95654-3.47827,25.91302-5.21741,38.86957,5.47827,1.04346,10.95642,2.08698,16.43469,3.13043-1.17395,3-2.34778,6-3.52173,9-1.73914,2.56525-3.47827,5.13043-5.21741,7.69568-22.21179.27081-44.42371.54163-66.6355.81244Z"/>
  <path class="g" d="m1121.62276,1150.94617c4.22754-7.32172,8.45496-14.64343,12.6825-21.96515-1.3479-.78259-2.69568-1.56525-4.04358-2.34784l-11.34778-10.95648c-3.91309-4.86957-7.82605-9.73914-11.73914-14.6087-1.91309-6.43481-3.82605-12.86957-5.73914-19.30438-.26086-7.21832-.52173-14.43658-.78259-21.65491h-26.25171l-.97021,15.71741.80298,17.21741,3.88049,13.04346,7.76123,15.91302,11.9093,13.17395,10.16992,7.82605c4.55591,2.64874,9.11182,5.29742,13.66772,7.94617Z"/>
  <path class="g" d="m1100.53121,1030.28314c-.03418-1.56415-.05518-3.6499-.00854-6.10645.01392-.73425.15198-7.25446.97815-14.47827.95642-8.36188,1.98315-17.33893,5.67395-28.17389,2.09302-6.14435,5.01367-14.50281,11.73914-23.67395,5.68713-7.75525,11.81775-12.98663,16.23914-16.23914,18.13049.91302,36.26086,1.82611,54.39136,2.73914,1.43481-.45654,2.86951-.91302,4.30432-1.36957,1.14209-1.80524,2.2843-3.61053,3.42639-5.41577l-.40137-9.97827c-1.53003-2.62952-3.06018-5.25903-4.59021-7.88855-5.08691-2.6087-10.17395-5.21741-15.26086-7.82611-1.23914-.91302-2.47827-1.82611-3.71741-2.73914-.39136-.65216-.78259-1.30432-1.17395-1.95648.45007-.95428.90002-1.90857,1.3501-2.86285-1.42834-.54572-2.85657-1.09143-4.28491-1.63715-3.84338,7.39038-7.68665,14.78076-11.53003,22.17114l-72.12524-44.05432-50.04602,81.75-30.1748-18.06525-78.34753,131.67389,6.02161,3.91309-.40149,5.08691,9.83521,5.86957h7.82812l9.43384-13.1087,8.83167,2.54352,14.65247-13.8913,15.05396-.58698,10.63818-19.76086,3.21155-15.84784,12.44458-18.78259,6.62378-19.56525,7.22583-18.19562,1.60571-2.25,42.7533,22.8913,1.50537,2.15216-4.01428,33.16302c6.76965.16687,13.53931.33368,20.30896.50055Z"/>
  <path class="g" d="m1428.2889,720.9158c.18787.14087.37561.28174.56348.42261,1.86658-2.8963,3.73303-5.7926,5.59961-8.6889,2.67395-4.05978,5.34778-8.11957,8.02173-12.17935,2.03809-1.46738,4.07605-2.93478,6.11414-4.40216.84778-1.63043,1.69568-3.26086,2.54346-4.8913.78259-1.95651,1.56519-3.91306,2.34778-5.86957l2.93481-8.6087c1.30432-3.58694,2.60876-7.17392,3.91309-10.76086.65222-3.32608,1.30432-6.65219,1.95654-9.97827v-13.1087c-.45654-5.08694-.91309-10.17392-1.36963-15.26086-3-3.97827-6-7.95651-9-11.93478-12.91309-7.95651-25.82605-15.91304-38.73914-23.86955-14.41309-8.08696-28.82605-16.17392-43.23914-24.26088-9.19568-5.34782-18.39124-10.69565-27.58691-16.04347-6.91309-4.63043-13.82605-9.26088-20.73914-13.89131-1.17603,1.81757-2.34998,3.64365-3.52173,5.47827-6.94812,10.87915-13.59546,21.71091-19.95654,32.47826-1.43481,3-2.86951,6-4.30432,9,3.23193,1.77081,6.46375,3.54164,9.69568,5.31245,25.32166,14.68983,50.64319,29.37967,75.96484,44.06952-1.55347,3.93063-3.10706,7.8613-4.66052,11.79193,1.39124.21741,2.78259.43478,4.17383.65219,1.08691-3.6087,2.17395-7.21741,3.26086-10.82611,2.75769,1.59692,5.51526,3.19382,8.27295,4.79074-.70251,2.86957-1.40503,5.73911-2.10754,8.60867l-.20081,9.97827,1.00366,7.1413,5.62012,11.54349c2.10828,2.28354,4.21643,4.56705,6.32471,6.85059l6.65515,4.88855,4.41589,2.34781,2.14099,1.04349,14.45178,1.04349,10.30359,8.47824c-3.6178,6.21832-7.23547,12.43661-10.85327,18.65494Z"/>
  <path class="g" d="m1143.88374,368.02175h-9.09924c-3.2467.65309-6.49341,1.30619-9.74011,1.95928.17297,1.40215.34595,2.80429.51892,4.20644,4.00098.03264,8.00183.06527,12.00281.09791,6.73413,3.81176,13.46814,7.62351,20.20227,11.43527-11.64709,18.2752-23.29431,36.5504-34.94141,54.8256,13.79883,8.25995,27.59753,16.5199,41.39636,24.77985l102.96912,58.76086-63.026,108.26088c6.14771,3.24005,12.29541,6.4801,18.44312,9.72015-33.71741,58.30435-67.43481,116.60867-101.15222,174.91302,25.27258,14.71646,50.54517,29.43295,75.81775,44.14941-2.74695,4.49438-5.4939,8.98871-8.24084,13.48309.08057.04633.16125.09259.24182.13892,2.27881-3.72546,4.55774-7.45087,6.83655-11.17633l6.94995,4.30432,7.39319-12.48911,13.6875,7.46265c17.94531-26.9649,35.8905-53.92978,53.83582-80.89468-33.10864-19.1087-66.21741-38.21738-99.32605-57.32608,16.04346-27.47827,32.08704-54.95651,48.13049-82.43478-6.82605-3.58694-13.65222-7.17392-20.47827-10.76086,14.71191-25.18478,29.42395-50.36957,44.13586-75.55435,3.66846,2.07065,7.33691,4.14131,11.00537,6.21196,6.45654-12.11414,12.91309-24.22826,19.36963-36.34239-20.90222-11.11957-41.80432-22.23914-62.70654-33.3587,11.15222-17.02174,22.30432-34.04348,33.45654-51.06522-8.67395-4.82609-17.34778-9.65218-26.02173-14.47826,5.41309-11.15217,10.82605-22.30435,16.23914-33.45652-17.26428-10.58251-34.52844-21.16503-51.79272-31.74754-4.82007,8.40768-9.64026,16.81536-14.46033,25.22304l-31.64673-18.84783Z"/>
  <path class="g" d="m188.16283,911.12646l-5.46552.21625c-.38434-17.43219-.76865-34.86432-1.15298-52.29648,26.08698-2.21738,52.17392-4.43478,78.26089-6.65216.15698.9104.31396,1.82077.47095,2.73117-.56647.11044-1.13293.22086-1.6994.3313l.80289,9.3913-17.06116,2.15216.40143,5.08698c-18.50055,1.52264-37.00113,3.04535-55.50168,4.56799.31485,11.49048.62973,22.98102.94458,34.4715Z"/>
  <path class="g" d="m298.48833,845.21857c.27817,1.95615.55634,3.91226.8345,5.86841h2.94391v11.34781l26.22733-2.47824v2.47824l65.96982-8.73914c-.12817-5.19839-.25641-10.39682-.38458-15.59521-31.86365,2.37271-63.72733,4.74542-95.59097,7.11813Z"/>
  <path class="g" d="m147.71074,1094.8764c-.39606-10.52307-.79208-21.0462-1.18814-31.56927,15.13043-.78259,30.26086-1.56525,45.3913-2.34784.06522,5.28259.13043,10.56525.19565,15.84784,33.19565-3.26086,66.39133-6.52173,99.58698-9.78259,1.17392,22.63043,2.34781,45.26086,3.52173,67.8913.97827-.06525,1.95651-.13043,2.93478-.19568,2.8913-3.65216,5.78262-7.30438,8.67392-10.95654-3.30435-30.69562-6.6087-61.3913-9.91306-92.08691-18.73373,2.93384-37.46744,5.86774-56.20117,8.80157-2.97629-22.80536-5.95258-45.61066-8.92886-68.41602-13.96399.15875-27.92795.3175-41.89194.47626l-.52148-17.03577c-2.54349-.06519-5.08694-.13043-7.63043-.19562-.06522,7.23914-.13046,14.47827-.19568,21.71741-8.55634.06427-17.1127.1286-25.66904.19287l-15.78995-.3913-.93668-5.08698c-2.37103.0462-4.7421.09247-7.11313.13867,1.45312,22.38477,2.90628,44.76947,4.35941,67.15424,1.57751,18.7326,3.155,37.46521,4.73251,56.19781,2.19443-.1178,4.38885-.23566,6.58328-.35345Z"/>
  <path class="g" d="m433.07869,827.01978c-.04041,2.30594-.08087,4.61185-.12128,6.91779,4.43475-.08694,8.86957-.17392,13.30432-.26086,5.47827-.08698,10.95648-.17392,16.43475-.26089-.06,4.53296-.12,9.06595-.17999,13.59891,1.82086.09747,3.64178.19495,5.46265.29242.19562,10.8913.3913,21.78259.58691,32.67389,11.16119.43384,22.32233.86774,33.48352,1.30157l2.70972,5.03809,8.07898-3.52173-2.50903-7.43481c11.43567-4.75488,22.87134-9.50977,34.30701-14.26465,7.18677-.68442,14.37347-1.36884,21.56024-2.05325,4.22589,2.69434,8.45184,5.3887,12.67773,8.08304l6.40704,16.69684c19.02374-7.30438,38.04749-14.6087,57.07123-21.91306-1.04456-2.7298-2.08905-5.45963-3.13361-8.18942,2.2027-7.03015,4.40533-14.06027,6.60803-21.09042,1.45093-5.30896,2.90186-10.61795,4.35278-15.92691,24.62189-10.23544,49.24377-20.47086,73.86566-30.7063.36798,1.1413.73596,2.28262,1.10394,3.42392l95.44214-34.53259h16.65973l124.71375,69.19565,144.35083-244.89131,11.13989,6.65218c1.3103-2.21214,2.62061-4.42427,3.93091-6.63641-3.95459-2.22173-7.9093-4.44345-11.86389-6.66518,8.43481-12.26086,16.86951-24.52174,25.30432-36.78261-25.42859-15.3531-50.8573-30.70619-76.28589-46.0593-26.32654,44.63478-52.6532,89.26958-78.97974,133.90436-22.0896-12.68948-44.1792-25.37895-66.2688-38.06844,1.823-3.70091,3.64612-7.40181,5.46912-11.10272-1.47827-.63043-2.95642-1.26086-4.43469-1.8913-1.71753,3.54282-3.43494,7.08562-5.15247,10.62843-.22522.37585-.55823.94022-.97803,1.61613l-1.63037,2.625c-.95654,1.73914-1.91309,3.47826-2.86963,5.21739-3.21741,4.60869-6.43469,9.21739-9.6521,13.82608l-8.86963,13.30435c-2.69568,2.86957-5.39124,5.73914-8.08691,8.6087-5.13049,1.82608-10.26086,3.65216-15.39136,5.47824-3.13043,4.6087-6.26086,9.21741-9.3913,13.82611-3.13043,6-6.26086,12-9.3913,18-3.65216,9.73914-7.30432,19.47824-10.95648,29.21738-13.19568,4.1087-26.3913,8.21738-39.58698,12.32608l-296.21741,112.5c-10.04346,3.65219-20.08698,7.30435-30.13043,10.95654-.58698-28.23914-1.17389-56.47827-1.76086-84.71741h-23.08698c.3913,26.93478.78265,53.86957,1.17395,80.80435-3.09003.08539-6.17999.17075-9.27002.25613Z"/>
  <path class="g" d="m523.02474,1132.40222l-14.55212,1.95648c-1.43262-13.5752-2.86523-27.15033-4.29785-40.72552-51.17389,6.47827-102.34784,12.95654-153.52173,19.43481-2.6087-28.26086-5.21738-56.52173-7.82608-84.78259,3.7641-.02264,7.52823-.04535,11.29233-.06799l-1.60577-16.63043,40.14392-3.91302,46.56696-12.13043,6.42303,10.76086,32.31586-2.21741.60211,7.36957,79.0835-10.04346,5.68701-1.17395,162.44904-69.58691-17.59637-46.14136,3.21149-1.07605,5.51978,12.81519,44.25867-18.58691-18.16516-45.78265,93.97021-31.40216h2.27484l13.64893,7.43478-76.9425,133.56522,12.00977,7.69568-5.01801,7.43475-53.09033,88.23914c.48688-7.73822.97382-15.47644,1.46069-23.21466-70.97827,21.69568-141.95648,43.3913-212.93475,65.08698.22534,5.31592.56628,10.79816,1.04346,16.43481.87341,10.31744,2.11255,20.08167,3.58911,29.24725Z"/>
  <path class="g" d="m903.69649,348.39407l42.75-.19565c.01086,4.26087.02173,8.52174.03259,12.78261,7.21741,4.08696,14.43481,8.17391,21.65222,12.26087,14.69568,1.56522,29.39124,3.13043,44.08691,4.69565,6.73914-.84783,13.47827-1.69565,20.21741-2.54348,13.37476-.71472,26.74951-1.42945,40.12427-2.14417.02747.6169.05481,1.23379.08228,1.85069-17.05432,1.20652-34.10876,2.41304-51.16309,3.61956-19.5,32.86956-39,65.73913-58.5,98.6087-2.60864,3.39131-5.21741,6.78261-7.82605,10.17392-6.24878,13.47734-12.49756,26.95468-18.74634,40.43202h-8.83167c2.93176-6.9556,5.86365-13.91121,8.79541-20.86681-13.17395-9.06522-26.34778-18.13043-39.52173-27.19566-4.76086-3.71739-9.52173-7.43478-14.28259-11.15218-4.5.26087-9,.52174-13.5.78261-11.73914,6.26087-23.47827,12.52174-35.21741,18.78262-8.15216,4.04347-16.30438,8.08696-24.45654,12.13043-5.80432,3.06522-11.6087,6.13043-17.41302,9.19565-5.80438,3.26086-11.6087,6.52174-17.41309,9.78261-5.73914,2.54347-11.47821,5.08696-17.21735,7.63043-5.54346,1.63043-11.08698,3.26088-16.63043,4.89131-5.15216,1.43478-10.30438,2.86957-15.45654,4.30435-4.5,2.6739-9,5.34782-13.5,8.02173-4.36957,1.8261-8.73914,3.65218-13.1087,5.47827-5.80432,2.60869-11.6087,5.21739-17.41302,7.82608-2.45654,3.08696-4.91302,6.1739-7.36957,9.26086l.71741,5.90218c.4729,2.18387.94574,4.36772,1.41864,6.55159l8.43024,36.39131-82.62952,41.02173c-9.39197,1.39221-18.78394,2.78445-28.1759,4.17667-.19568,4.76086-.3913,9.52176-.58698,14.28262l-6.06519.19565c1.82611,13.30435,3.65216,26.6087,5.47827,39.91306-13.69568,4.04349-27.3913,8.08694-41.08698,12.13043-1.25531-8.33817-2.51056-16.6763-3.76587-25.01447l-1.7124-76.72467c-5.28259-.32608-10.56525-.65219-15.84784-.97827-3.32611-16.23914-6.65216-32.47826-9.97827-48.71739,3.78345-.10962,7.56696-.21922,11.3504-.32884l10.30365-2.60869,12.84601-4.8261,10.70508-9.65218,19.80432-18.55434,12.97986-12.88045,8.96545-6.91304,10.97266-4.69565,12.84607-2.21739h14.85327c5.3418,5.50092,10.68365,11.00185,16.02545,16.50276,16.56519.84782,33.13043,1.69565,49.69562,2.54347,12.97827-6.91304,25.95654-13.82608,38.93481-20.73912,8.21741-4.36957,16.43475-8.73914,24.65216-13.1087,9.32611-6.65218,18.65216-13.30435,27.97827-19.95652,6.91302-3.26087,13.82611-6.52174,20.73914-9.78261l9.78259-15.65218,9.78259-14.86956c3.84784-4.95652,7.69562-9.91305,11.54346-14.86957,6.84784-5.28261,13.69568-10.56522,20.54352-15.84783,5.73914-5.02174,11.47827-10.04348,17.21741-15.06522.39124-2.47826.78259-4.95652,1.17383-7.43478.19568-1.04348.39136-2.08695.58704-3.13043,1.23914-.58696,2.47827-1.17391,3.71741-1.76087.58691-.65217,1.17395-1.30435,1.76086-1.95652,1.1073-1.26179,2.21472-2.52358,3.32202-3.78537l7.09216-3.26087,5.08484-.26087,6.1554-4.40217c.57837-2.41966,1.15686-4.83931,1.73523-7.25897.15991-3.59029.31995-7.18059.47986-10.77088Z"/>
  <polyline class="c" points="963.30306 1423.8261 1004.24984 1287.26088 1010.80668 1278.00001 1024.85705 1269.91305 1056.03548 1251.39131 1073.83261 1225.56523 1118.86069 1150.59784"/>
  <path class="m" d="m224.05303,906.32611c65.93915-7.78168,131.87827-15.56342,197.81741-23.34509"/>
  <line class="m" x1="518.91001" y1="911.02175" x2="556.94636" y2="1000.14131"/>
  <line class="m" x1="698.15255" y1="856.33697" x2="677.98024" y2="806.54349"/>
  <line class="c" x1="1206.17369" y1="627.26088" x2="1171.96719" y2="606.14092"/>
  <line class="c" x1="913.32389" y1="1146.00001" x2="732.47559" y2="1043.47827"/>
  <path class="l" d="m827.717,1050.91302l5.41943-8.31519,81.05725,45.48914c28.69507-48.15674,57.39026-96.31354,86.08533-144.47028-23.92249-13.49542-47.84485-26.99084-71.76733-40.48627-7.80579,13.3913-15.61145,26.78265-23.41724,40.17395l-18.46619,30.71735-16.76013,26.02179c-3.65881-2.28571-7.31763-4.57147-10.97644-6.85718"/>
  <polyline class="c" points="859.86559 891.13044 894.65698 833.60871 911.3836 842.60871"/>
  <path class="i" d="m819.17476,970.1767c-10.3443-6.17487-20.68866-12.34967-31.03296-18.52454"/>
  <polygon class="k" points="913.92605 1140.7174 807.34398 1079.5761 827.0814 1050.7174 831.63104 1053.52175 834.77565 1048.8261 936.20592 1105.98914 913.92605 1140.7174"/>
  <polygon class="k" points="772.01734 1348.10871 814.10154 1244.60871 749.80438 1221.26088 711.46695 1316.08697 772.01734 1348.10871"/>
  <polygon class="k" points="967.21709 1427.64131 993.00955 1343.41305 1020.90956 1351.43479 997.82682 1435.17392 967.21709 1427.64131"/>
  <polygon class="k" points="1175.45345 901.76088 1189.77144 878.41305 1206.7657 888.19566 1192.84914 912.3261 1175.45345 901.76088"/>
  <polygon class="k" points="1456.53786 604.8261 1478.34938 565.8261 1404.75222 522.52175 1382.004 561.65218 1456.53786 604.8261"/>
  <polygon class="k" points="1478.08175 771.52175 1439.81123 746.2174 1444.36087 739.43479 1483.46773 763.30436 1478.08175 771.52175"/>
  <path class="k" d="m1429.10616,871.69568c-17.44092-4.54254-34.88171-9.08511-52.32263-13.62769,1.30432-3.47827,2.60864-6.95651,3.91296-10.43478,17.11792,4.97733,34.23572,9.95468,51.35364,14.93201l-2.94397,9.13046Z"/>
  <polygon class="k" points="901.00362 339.91305 915.58924 337.95653 915.58924 315.65218 900.06693 316.95653 901.00362 339.91305"/>
  <polygon class="k" points="937.98875 317.47827 951.63768 315.26088 950.96861 337.95653 937.98875 340.30436 937.98875 317.47827"/>
  <polygon class="k" points="472.80842 590.54349 496.2926 587.80436 494.08469 576.45653 468.39259 576.45653 472.80842 590.54349"/>
  <path class="c" d="m438.82692,1142.15497l6.65222,64.56519"/>
  <path class="d" d="m634.46126,1301.24396c1.01685-2.42096,2.03363-4.84198,3.05048-7.26294l92.05432,38.54352,11.15222,13.30432,3.71735,13.8913v28.36957l-2.15216,35.02173-2.54346,29.15222-3.71741,43.82605-62.21741-13.69568,19.95654-103.30432c-3.21985-1.84875-6.4397-3.69745-9.65955-5.5462,2.87695-14.34784,5.75397-28.69568,8.63092-43.04352,5.62549.15308,11.25098.30621,16.87646.45929-25.04944-9.90509-50.09888-19.81024-75.14832-29.71533Z"/>
  <path class="k" d="m442.15303,1140.19843c-1.02173-11.95654-2.04346-23.91302-3.06519-35.86957-12.43481,1.69568-24.86957,3.3913-37.30438,5.08698l4.43481,37.56519,35.93475-6.78259Z"/>
  <polygon class="k" points="847.54434 900.91581 890.58782 829.89407 853.80521 808.95929 813.10956 880.79349 847.54434 900.91581"/>
  <line class="h" x1="852.9073" y1="807.91306" x2="894.10956" y2="832.63321"/>
  <path class="o" d="m1336.37373,804.78262l44.51843-75.25812-7.63049-5.08694c9.56519-12.45651,19.13049-24.91306,28.69568-37.36957,11.21741,5.47827,22.43481,10.95651,33.65222,16.43478-22.93481,36.52173-45.86951,73.04349-68.80432,109.56522h-13.89136l-16.54016-8.28537Z"/>
  <path class="g" d="m1403.75545,757.30795c7.92236-12.2829,15.84485-24.56577,23.76721-36.84866,3.01086-5.61957,6.02173-11.23914,9.03259-16.8587-2.85889-2.47018-6.77893-5.3291-11.83704-7.72824-9.46313-4.48856-18.19739-5.13266-23.38037-5.08698-2.34778,3.58694-4.69568,7.17392-7.04346,10.76086l-2.15222-.97824c2.31519-3.22827,4.63049-6.45651,6.94568-9.68478-6.16309-2.41306-12.32605-4.82608-18.48914-7.23914.09778-.88043.19568-1.76086.29346-2.6413,4.95654-.52173,9.91296-1.04349,14.86951-1.56522,4.17395,3.65216,8.3479,7.30435,12.52185,10.95651l20.25,4.5c3.09778,2.69565,6.19568,5.3913,9.29346,8.08694-11.35718,18.10898-22.71436,36.21796-34.07153,54.32693Z"/>
  <line class="h" x1="1336.37373" y1="804.78262" x2="1380.89217" y2="729.52451"/>
  <path class="h" d="m1429.60957,721.11148c1.14258,4.41876,3.05273,14.35333-.60059,25.89856-2.35071,7.42899-6.12195,12.73413-8.79089,15.89645-8.73914,13.59006-17.47815,27.18015-26.21729,40.7702-6.97827,18.19565-13.95642,36.3913-20.93469,54.58694"/>
  <path class="k" d="m1370.42476,856.79623l-17.11951-6.84781,18.39124-33.55435c10.65222-17.8913,21.30432-35.78262,31.95654-53.67392,1.47827,1.82608,2.95654,3.65219,4.43481,5.47827-12.55432,29.53259-25.10876,59.06522-37.66309,88.59781Z"/>
  <path class="g" d="m419.5226,674.54623c8.69568-2.34781,17.3913-4.69565,26.08698-7.04346,1.82611,8.17392,3.65216,16.34781,5.47827,24.52173-8.69165,2.65097-17.38336,5.30197-26.07501,7.95294-1.83008-8.47708-3.66016-16.95413-5.49023-25.43121Z"/>
  <polygon class="o" points="928.64217 1075.92668 934.12043 1079.7419 934.12043 1084.63321 943.21825 1090.20929 950.16391 1090.20929 959.55521 1076.90494 968.16391 1079.3506 983.1313 1065.45929 997.60956 1064.67668 1008.46825 1045.6006 1011.59869 1029.75277 1023.92478 1010.97016 1037.42478 973.30712 1039.87043 970.07886 1035.2726 964.11147 1005.82695 946.30712 928.64217 1075.92668"/>
  <line class="g" x1="928.51167" y1="903.13043" x2="950.39217" y2="862.36958"/>
  <path class="n" d="m1034.00081,704.28537c9.78259,5.47827,19.56531,10.95651,29.3479,16.43478,9.08691-16.04349,18.17395-32.08694,27.26086-48.13043-9.56519-5.21738-19.13049-10.43478-28.69568-15.65216l-27.91309,47.34781Z"/>
  <path class="k" d="m1052.8813,673.6658c3.16309-5.28259,6.32605-10.56522,9.48914-15.84781,9.06519,4.98914,18.13049,9.97824,27.19568,14.96738-2.96741,5.18478-5.93481,10.36957-8.90222,15.55435-9.26086-4.8913-18.52173-9.78262-27.78259-14.67392Z"/>
  <path class="o" d="m1313.00081,541.30711l84.52185,52.23914-3.71741,4.5,3.71741,2.15218,3.71729-6.06522,13.30444,2.73912,14.67383,6.26088,12.71741,8.41302s10.76086,9.78262,11.15222,10.36957c.39124.58698,5.86951,8.80435,5.86951,8.80435l1.76086,13.5v8.80435l-1.17383,11.34784-3.32617,8.60867-6.26086,11.54349-2.34778,9.58698-3.91309,4.30432-2.1521,2.34784-2.40222,1.49722-10.31519-9.71463-9.97827-.3913-10.02722-3.81522-6.26086-4.20651-5.16846-5.54349-21.78259,1.30435.6521-3.13043,12.78271-1.95651-6-17.86957.13037-5.47827-.13037-4.43478c-.51624-.03601-1.03235-.07202-1.54858-.10803.4292-.83356.85852-1.66711,1.28772-2.50067.69568-.13043,1.39124-.26086,2.08691-.3913l6.26086,1.04349,1.82605-3.52176.65222-5.47824-100.95654-61.43478,20.34778-33.3261Z"/>
  <path class="o" d="m1251.43562,757.76364l-44.66992,68.86957-70.11267-32.73914c4.95654-8.52173,9.91309-17.04349,14.86963-25.56522l-9.65222-6,20.18481-30.94565,10.95642,8.11957,9-11.15219,14.86963,8.80435,15.84778-23.47824,50.18481,28.82608-11.47827,15.26086Z"/>
  <path class="o" d="m1007.65303,754.24191l-6.65222-3.91306-15.6521,25.56522-69.91309-39.13043,13.07605-24.65216-17.12805-6.26089-17.27405,7.82611-37.36957,58.30432-30.22736-14.08694,2.44476-9.3913,3.91302-10.17392-4.69568-5.08694,57.44983-97.82611c19.19788,8.80435,38.39575,17.6087,57.59363,26.41306-2.34778,4.8913-4.69568,9.78262-7.04346,14.67392l8.21741,4.30435c2.41309-5.6087,4.82605-11.21741,7.23914-16.82611,2.04846-1.49191,4.0968-2.98386,6.14526-4.47577,24.32397,14.10892,48.64795,28.2178,72.97192,42.32672-3.58984,6.12216-7.17957,12.24429-10.76941,18.36646,2.10657,1.13434,4.21326,2.26865,6.31982,3.40298-6.21533,10.2135-12.43054,20.427-18.64587,30.6405Z"/>
  <line class="f" x1="827.33755" y1="754.7253" x2="859.7076" y2="767.35095"/>
  <line class="f" x1="1004.29822" y1="752.2685" x2="1022.42542" y2="721.51569"/>
  <polyline class="h" points="1136.65304 793.89407 1206.7657 826.63321 1247.39217 764.40126"/>
  <line class="j" x1="1180.64217" y1="727.81255" x2="1173.01173" y2="739.50277"/>
  <polyline class="j" points="1297.20097 577.40074 1393.60956 636.06799 1392.95738 641.54625 1391.1313 645.06799"/>
  <polyline class="j" points="1441.54434 700.76364 1447.60956 694.11147 1449.95738 684.52451 1459.54434 664.37234 1460.71825 653.02451 1460.71825 644.22016 1458.95738 630.72016 1453.08782 621.91581 1441.93565 611.54625 1429.21825 603.13321 1414.54434 596.87234 1401.23999 594.13321 1397.5226 600.19842 1393.80521 598.04625 1397.5226 593.54625 1317.47187 544.07045 1319.2109 541.30712"/>
  <line class="g" x1="1383.69652" y1="788.41581" x2="1369.05757" y2="816.22827"/>
</svg>