<?xml version="1.0" encoding="UTF-8"?>
<svg id="a" data-name="Discord.gg-@marazm" xmlns="http://www.w3.org/2000/svg" viewBox="0 0 2074.56287 896.57322">
  <defs>
    <style>
      .b, .c, .d, .e, .f, .g, .h, .i {
        stroke: #000;
      }

      .b, .c, .d, .e, .f, .g, .h, .i, .j, .k {
        stroke-miterlimit: 10;
      }

      .b, .h, .i {
        stroke-width: 5px;
      }

      .c {
        stroke-width: 4px;
      }

      .c, .e, .g, .i {
        fill: none;
      }

      .l, .h {
        fill: #363636;
      }

      .m {
        fill: #777;
      }

      .e {
        stroke-width: 3px;
      }

      .f, .g {
        stroke-width: 2px;
      }

      .j {
        fill: #987f00;
        isolation: isolate;
        stroke: #987f00;
      }

      .k {
        fill: #555;
        stroke: #555;
      }
    </style>
  </defs>
  <path class="h" d="m21.44134,416.69562h-4.56522l-13.76086-24.26083,9.16304-9.13046,41.18478.78259,8.86957,12.45654h37.1087l7.63043-12.06519,32.64131.26083,7.04347,11.15219h39.81522l9.48914-12.13043,18.75002-.06519,2.6739-1.56525h39.65219l11.70654-6.97827v-19.17389l-14.38045-8.31525-3.4239-8.21735,2.54347-8.70654-1.76086-7.72827,1.66304-6.55432-2.83696-6.55438,2.93478-5.18475-2.54347-6.35876,3.32608-7.63037.78261-13.79346-.68478-11.54352-2.6413-10.95648.19565-9.0979,10.95653,1.85876,3.52173-11.3479-10.95651-5.47821,76.66306-68.93475,201.16309-.32617,6.55432-5.18475v-75.29346l-4.56525-26.21741-.13043-21.91302,9.13043-30h939.00006v29.6413h92.60864V7.71741l56.02173,5.15216v320.41302l8.47827,27.29346v84.88043c40.30457.43542,80.60901.87085,120.91357,1.30627l.19519-6.65405h264.32605l8.60864,18,2.29895.63586,31.80969,81.08148-1.43481,2.93481-.8479,8.86957,5.67383,42-8.60864,25.17389v15l3.91309,61.56525v196.43475l-93.65222,2.21741-.78259-5.21741-49.30432.71741v-264.32611h-162.40857c-.0979-9.47464-.19568-18.94925-.29358-28.42389-1.59204-.00363-3.18408-.00723-4.77612-.01086v18.52173h-116.3479v31.72827h-210.19556v215.57611h-172.95654l-1.10876,4.17389h-139.36951v-80.54346h-16.63037l-68.21741,30.97821h-124.82611l-67.56519-32.47821h-17.21741v81.22821h-120.71741l-2.05432-3.42389-52.53259-.58698-26.21741-2.34778-28.69568-6.39136-17.28259-8.47821-14.67389-9.97827-11.34784-10.36957-9.78259-11.15216-7.04346-12.32611-6.26086-15.84784-4.5-19.17389-2.54352-19.56525-1.17395-23.86957v-91.17389h17.41309v-59.28259h-90.68478v3.91302h4.30435v13.5l-10.66306,5.18475-1.82608.22827-16.69565-11.73914-9.13043,8.93481,13.23911,12.32605-.97824,8.73914-12.13043,1.5-6.78262,5.21741h-47.08694l-11.28262-7.30432-17.08694-.19568-10.30435,6.32611h-48l-11.93478-9.94568h-61.69565l-5.80435-5.28259-1.36955-6.26086h-41.77174l-4.59782,6.65216-5.47826,4.30432h-29.73913l-4.20652-4.59778-1.66304-5.96741-2.21739-1.79346h-36.13043l-3.13043,2.73907-2.47826,5.08698-2.47826,3.78259-2.21739.91309H18.44134v-31.95654h2.47826v-24h-3.26087v-44.34784h3.52174v-24.52173h-2.47826v-42.78259h2.34783l.3913-23.93481Z"/>
  <path class="i" d="m2067.31079,695.1087v-9.26086c-8.2666-.05074-16.5332-.10146-24.79993-.15219"/>
  <path class="i" d="m2010.78259,685.84784h-37.30432"/>
  <path class="i" d="m1941.65222,685.69565c-6.02686.05074-12.05359.10146-18.08044.15219"/>
  <line class="i" x1="1760.78918" y1="595.30975" x2="1760.78918" y2="583.81519"/>
  <path class="c" d="m1760.78918,547.17392c-.06018-11.08694-.12036-22.17392-.18054-33.26086"/>
  <path class="c" d="m1760.68933,472.9577c-.03198-8.47141-.06384-16.94284-.09583-25.41425"/>
  <path class="i" d="m231.96307,608.04346v-19.09781"/>
  <path class="i" d="m232.23913,555.29349c-.09203-7.82971-.18404-15.65945-.27606-23.48917h2.80435v-79.49997h-2.80435v-20.56522"/>
  <line class="i" x1="231.96307" y1="401.1087" x2="231.96307" y2="382.13043"/>
  <polyline class="g" points="214.30546 536.07605 193.27286 536.07605 193.27286 457.375 214.30546 457.375"/>
  <path class="f" d="m344.26742,527.1087c-19.14215-.03131-34.8858-16.52197-33.91306-35.47827.90988-17.73059,16.15643-32.00781,34.04346-31.95654,18.16455.05206,33.66623,14.86505,33.91306,33.26086.25211,18.78986-15.50665,34.20422-34.04349,34.17395h.00003Z"/>
  <polygon class="f" points="327.67752 381.73758 345.97101 381.73758 348.66122 377.77563 354.53079 374.54736 354.53079 360.4115 357.95471 360.4115 357.95471 356.98758 344.65036 348.62344 328.55798 348.62344 315.54709 356.79193 315.54709 360.46039 318.67752 360.46039 318.67752 374.69409 324.10687 376.84628 327.67752 381.73758"/>
  <polygon class="f" points="414.56363 381.73758 432.85708 381.73758 435.54733 377.77563 441.4169 374.54736 441.4169 360.4115 444.84079 360.4115 444.84079 356.98758 431.53644 348.62344 415.44406 348.62344 402.43319 356.79193 402.43319 360.46039 405.56363 360.46039 405.56363 374.69409 410.99298 376.84628 414.56363 381.73758"/>
  <rect class="d" x="1058.88696" y="175.97011" width="17.26636" height="18.30164"/>
  <rect class="d" x="1133.88696" y="33.02174" width="93" height="30.03261"/>
  <rect class="d" x="1360.8761" y="231.00543" width="46.98914" height="49.97284"/>
  <rect class="d" x="891.87341" y="632.09241" width="44.99182" height="89.85327"/>
  <polygon class="d" points="1041.57178 739.29346 1150.15869 739.29346 1150.15869 628.65216 1097.91955 628.65216 1094.78918 629.35327 1091.95227 631.0163 1042.69678 680.32068 1041.76745 682.22827 1041.57178 684.72284 1041.57178 739.29346"/>
  <polygon class="d" points="1286.03918 573.29889 1286.03918 469.65216 1277.47937 469.65216 1277.47937 480.85327 1201.1261 480.85327 1201.1261 472 1192.02832 472 1192.02832 442.89673 1140.76745 442.89673 1140.76745 472.06522 1107.01745 472.06522 1102.69678 473.15762 1098.06628 475.10599 1094.8136 477.18478 1091.87878 480.19293 1089.7511 483.9837 1087.96582 489.70651 1087.96582 540.05432 1106.79736 540.05432 1106.79736 605.92389 1134.86523 605.92389 1134.86523 540.11957 1250.85437 540.11957 1250.85437 573.11957 1286.03918 573.29889"/>
  <rect class="d" x="903.96307" y="174.41304" width="16.38586" height="18.97826"/>
  <rect class="d" x="748.974" y="176.0761" width="17.85327" height="19.17392"/>
  <polygon class="d" points="1380.83264 787.04889 1380.83264 524.95654 1369.94128 524.95654 1369.94128 630.02173 1275.83264 630.02173 1269.70227 632.5 1263.70227 636.02173 1259.52832 639.80432 1256.39782 645.28259 1254.05005 650.1087 1252.8761 654.80432 1252.8761 787.04889 1380.83264 787.04889"/>
  <polygon class="d" points="1573.74573 143.30434 1528.81091 143.30434 1528.81091 139.13043 1514.07178 139.13043 1514.07178 177.83694 1518.86523 177.83694 1518.86523 194.8913 1523.49573 194.8913 1523.49573 212.04349 1527.18042 229.94565 1521.14782 229.94565 1521.14782 282.96738 1531.8761 282.96738 1534.66418 311.61414 1534.66418 353.16577 1493.08813 353.16577 1493.08813 410.8587 1537.06091 410.8587 1538.91955 409.04892 1538.91955 360.93478 1573.74573 360.93478 1573.74573 143.30434"/>
  <line class="e" x1="1575.40869" y1="125.74456" x2="1575.40869" y2="361.3587"/>
  <line class="e" x1="1529.39782" y1="91.52174" x2="1529.39782" y2="62.43478"/>
  <polyline class="e" points="1582.28918 62.10869 1584.63696 69.86956 1610.724 80.98913 1610.91955 154.75"/>
  <path class="d" d="m582.96307,497.1087c-.0163,44.94562-.03259,89.8913-.04895,134.83691h8.07068v101.83698l.97821,5.47827,1.95654,6.94562,2.83691,7.63049,4.1087,7.92389,5.18475,6.45654,4.94025,4.79346,5.96741,4.20654,7.92389,4.05975,5.86957,2.00543,7.77716,1.95654,8.16846.92932h44.00549v-3.14673h10.04346v-63.96198h29.93475c6.32611.04889,12.65216.09784,18.97827.14673l.29352-30.42389c-8.6087-.03259-17.21741-.06525-25.82611-.09784-7.79346.03259-15.58698.06525-23.38043.09784v-16.66302h-1.04346v-15.13043l-5.02179-9.09784-5.02173-5.86957-6.13043-4.82611-6.84784-3.91302-11.05432-3.24457-6.0163-1.02716h-48.71741v-11.69025l-4.98914-2.34778c.09241-39.28802.18475-78.57611.27716-117.86414h-23.21741.00012Z"/>
  <path class="d" d="m582.7771,468.15015c7.75769.04413,15.51532.08832,23.27295.13245v-51.32611h1.69568v-25.93204l6.10596-1.02716,6.89673-1.80978v-35.19293h-81.31787l7.77716-70.97284h18.53809v-2.9837l-3.91309-5.38043-2.20105-5.86957-1.8587-7.23914.04895-12.375,2.73914-8.16846,4.35321-6.26086,2.69025-1.90762,4.5-10.5163-38.39673-11.54349h-62.75543l-17.21738,21.17935v40.23914l37.95651,84.88043v4.69565h3.375v13.98914l3.42392,2.34781h2.00543v2.64133l-1.8587,1.36957v25.58151l-.88043,2.39676-1.90762,1.71191-1.85867.88043h-36.27719l-1.8913,1.58154v3.61957h126.45654c.16626,17.0863.33252,34.17255.49878,51.25885h-.00012Z"/>
  <polyline class="e" points="701.91961 357.44565 701.91961 353.8913 620.74841 353.8913"/>
  <polygon class="d" points="1439.82178 353.09238 1439.82178 410.90762 1380.70227 410.90762 1380.70227 470.04349 1378.02832 470.04349 1378.02832 479.8913 1371.50659 479.8913 1371.50659 468.54349 1345.81091 438.73914 1310.20227 438.73914 1287.99573 425.19022 1276.89245 425.04349 1276.89245 381.90216 1082.65869 381.90216 1048.61523 425.77716 1041.81628 443.38586 1041.81628 467.25543 1047.0011 539.84241 707.74023 539.84241 707.74023 545.17389 679.81091 545.17389 679.81091 470.92392 674.28375 469.99457 671.10437 467.20651 670.27289 463.09781 666.45764 460.16302 659.85437 460.16302 659.85437 448.96194 662.44678 446.56522 663.03375 443.82608 665.9685 441.72281 665.9685 433.75 666.70221 432.72281 666.70221 427.24457 662.83807 425.63043 661.81091 417.95108 664.55005 417.95108 659.85437 401.125 745.87616 401.125 745.87616 352.78262 1439.82178 353.09238"/>
  <rect class="j" x="537.18048" y="572.36957" width="40.98914" height="59.38043"/>
  <polygon class="j" points="535.02832 569.1413 535.02832 497.33694 577.22394 497.33694 577.22394 470.1087 535.02832 470.1087 535.02832 420.6413 443.07178 420.6413 443.07178 569.1413 535.02832 569.1413"/>
  <rect class="j" x="622.4848" y="399.80435" width="34.56525" height="84.52176"/>
  <rect class="j" x="659.65875" y="65.82608" width="19.56525" height="26.21739"/>
  <rect class="j" x="1476.89782" y="35.40217" width="104.57605" height="26.70652"/>
  <rect class="j" x="1575.40869" y="360.54349" width="61.46741" height="50.31522"/>
  <rect class="j" x="1478.52832" y="502.06522" width="127.30432" height="55.04349"/>
  <rect class="j" x="1380.83264" y="486.47827" width="22.10864" height="36"/>
  <rect class="j" x="1441.35437" y="357.41302" width="50.21741" height="52.30435"/>
  <rect class="j" x="1381.71313" y="644.90759" width="44.77173" height="139.40216"/>
  <rect class="k" x="679.22394" y="61.22826" width="77.86957" height="31.59783"/>
  <rect class="m" x="979.01196" y="5.32065" width="18.78259" height="23.67391"/>
  <polygon class="m" points="1507.35437 138.54349 1530.33532 138.54349 1530.33532 91.52174 1507.35437 91.52174 1507.35437 96.53125 1513.36255 96.53125 1513.36255 132.53125 1507.35437 132.53125 1507.35437 138.54349"/>
  <polygon class="m" points="1356.86523 279.0625 1360.21582 275.76086 1362.0011 272.07608 1362.93042 268.13043 1363.94128 264.96738 1364.83813 260.01086 1364.83813 252.02174 1363.90869 248.15761 1362.88159 243.93478 1361.80542 240.93478 1359.96313 236.98914 1357.82727 234.02174 1356.80005 232.96194 1260.7511 232.96194 1260.7511 206.01086 1246.90869 206.01086 1246.90869 232.91304 1103.74023 232.91304 1103.74023 237.90218 1093.17505 237.90218 1093.17505 232.61955 1009.58264 232.61955 1009.58264 235.3913 1019.26745 235.3913 1019.26745 275.63043 1000.41144 275.63043 1000.41144 279.4538 1093.19946 279.4538 1093.19946 274.36685 1103.46313 274.36685 1103.46313 279.4538 1356.86523 279.0625"/>
  <rect class="m" x="940.32178" y="232.52174" width="40.01086" height="4.01086"/>
  <polygon class="m" points="946.83929 280.01917 946.83929 328.09781 971.82178 328.09781 971.82178 280.01917 977.83807 280.01917 977.83807 275.90762 941.88696 275.90762 941.88696 280.09781 946.83929 280.01917"/>
  <polygon class="m" points="914.82178 237.08694 914.82178 232 828.84894 232 828.84894 237.08694 819.80005 237.08694 819.80005 232 766.94134 232 766.94134 195.71468 748.87616 195.71468 748.87616 232.15489 617.13696 232.15489 617.13696 236.9239 626.00653 236.9239 626.00653 275.66302 615.7348 275.66302 615.7348 279.80435 819.72668 279.80435 819.72668 274.80707 828.40875 274.80707 828.40875 279.80435 914.82178 279.80435 914.82178 275.27173 893.2348 275.27173 893.2348 237.15218 914.82178 237.08694"/>
  <polygon class="m" points="566.30731 279.6785 590.41009 279.6785 590.41009 275.45517 584.44269 275.45517 584.44269 236.63043 590.41009 236.63043 590.41009 232.4239 567.77557 232.4239 565.01196 234.6739 561.99566 238.99455 558.43316 248.14944 558.43316 260.47552 560.34082 268.03262 562.41961 273.41302 566.30731 279.6785"/>
  <rect class="m" x="1162.11792" y="326.67935" width="14.33972" height="25.97284"/>
  <rect class="m" x="1001.12066" y="165.28261" width="57.47284" height="31.63043"/>
  <polygon class="m" points="1478.49573 138.6739 1373.23486 138.6739 1373.23486 134.43478 1381.8761 134.43478 1381.8761 96.51087 1373.23486 96.51087 1373.23486 91.13043 1478.75659 91.13043 1478.75659 96.11956 1471.68042 96.11956 1471.68042 133.06522 1478.49573 133.06522 1478.49573 138.6739"/>
  <polygon class="m" points="1349.6261 139 1349.6261 135.28261 1339.8435 135.28261 1339.8435 96.00543 1347.57178 96.00543 1347.57178 91.13043 1281.97937 91.13043 1281.97937 96.10326 1275.81628 96.10326 1275.81628 92.09239 1211.83813 92.09239 1211.83813 96.15217 1217.85437 96.15217 1217.85437 135.13586 1208.90332 135.13586 1208.90332 138.16849 1275.7185 138.16849 1275.7185 133.96194 1281.68591 133.96194 1281.68591 139 1349.6261 139"/>
  <polygon class="m" points="1182.78369 138.07065 1182.78369 135.13586 1175.74023 135.13586 1175.74023 95.95652 1182.78369 95.95652 1182.78369 91.99456 1080.96313 91.99456 1080.96313 96.08695 1087.77832 96.08695 1087.77832 133.03261 1078.90869 133.03261 1078.90869 138.07065 1182.78369 138.07065"/>
  <polygon class="m" points="1050.81628 138.07065 1050.81628 133.13043 1043.77282 133.13043 1043.77282 96.05434 1050.81628 96.05434 1050.81628 91.94565 985.76196 91.94565 985.76196 95.5163 982.97394 95.5163 982.97394 92.23913 658.38696 92.23913 651.00116 96.78804 644.69134 102.95108 643.8598 105.15217 643.8598 123.00543 651.7348 132.15218 659.12066 136.50543 888.57178 136.50543 888.57178 178.47282 903.50653 178.47282 903.50653 173.94022 915.3435 173.94022 915.3435 136.53804 982.33807 136.53804 982.33807 133.52174 985.34625 133.52174 985.34625 137.50815 1050.81628 138.07065"/>
  <rect class="m" x="813.70221" y="540.18475" width="20.18475" height="35.96741"/>
  <rect class="m" x="794.85437" y="786.15216" width="23.77173" height="11.83698"/>
  <rect class="m" x="857.85437" y="632.09241" width="33.16302" height="13.97284"/>
  <rect class="m" x="893.88696" y="722.27173" width="25.74457" height="37.8587"/>
  <rect class="m" x="937.0935" y="619.22827" width="32.54346" height="27.83154"/>
  <rect class="m" x="1015.0935" y="723.38043" width="26.08691" height="16.17389"/>
  <rect class="m" x="1215.55542" y="764.54889" width="36.92932" height="49.05975"/>
  <polygon class="m" points="1182.78369 138.07065 1208.90332 138.07065 1208.90332 135.13586 1217.85437 135.13586 1217.85437 96.15217 1211.83813 96.15217 1211.83813 92.09239 1182.78369 92.09239 1182.78369 95.95652 1175.74023 95.95652 1175.74023 135.13586 1182.78369 135.13586 1182.78369 138.07065"/>
  <path class="m" d="m980.28369,235.21194c9.7663.05978,19.53265.11957,29.29895.17935v-2.77173c-9.75-.03262-19.5-.06522-29.25-.09784"/>
  <path class="b" d="m435.25271,164.11139c11.13315,13.51361,22.2663,27.02716,33.39944,40.54077,4.18286.12091,8.36575.24182,12.54861.36273,4.90408.3139,9.8082.62775,14.71228.94165,10.34784.6087,20.69565,1.21735,31.04349,1.82605-.30438,6.91302-.6087,13.82611-.91309,20.73914,1,.91302,2,1.82611,3,2.73914,2.17395.65216,4.34784,1.30438,6.52179,1.95654,1.3913-.3913,2.78259-.78265,4.17389-1.17395.08698-24.86957.17389-49.73914.26086-74.6087-1.74457,1.95654-3.48914,3.91302-5.2337,5.86957-33.1712.26904-66.34238.53802-99.51358.80707Z"/>
  <path class="l" d="m452.34784,270.61957c4.73914,4.18475,9.47824,8.36957,14.21738,12.55432,3.11957,2.63043,6.23914,5.26093,9.3587,7.89136,4.1087,2.08698,8.21738,4.17389,12.32608,6.26086,4.95651.88043,9.91306,1.76086,14.86957,2.6413,4.69565.22827,9.3913.45648,14.08698.68475,1.87537-.29712,3.75073-.59418,5.6261-.8913l2.73914-16.95654,6.3913-1.43475h3.65216l8.02173,1.1413,6.16309-1.95654,6.75-3.81519,3.81519-5.28259-2.32336-10.78534-.04889-12.5462,2.76355-7.97284,2.39679-3.32611,1.66302-2.44562,2.00543-1.56525,1.46741-.92932,4.59778-11.00543c-10.19147-3.04626-20.38293-6.09247-30.5744-9.13873-.1676,1.96832-.33521,3.93671-.50281,5.90503-.69019,4.79889-1.38043,9.59784-2.07062,14.39673-1.3913.3913-2.78259.78265-4.17389,1.17395-2.17395-.65216-4.34784-1.30438-6.52179-1.95654-1-.91302-2-1.82611-3-2.73914.30438-6.91302.6087-13.82611.91309-20.73914-15.15231-.9162-30.30466-1.8324-45.45697-2.7486-2.42902-.07373-4.85806-.1474-7.28708-.22113-1.85345-.05359-3.70688-.10712-5.56033-.16071-5.44528,8.53986-10.89053,17.07971-16.33582,25.61957l.03149,40.34784Z"/>
</svg>