<?xml version="1.0" encoding="UTF-8"?>
<svg id="a" data-name="Discord.gg-@marazm" xmlns="http://www.w3.org/2000/svg" viewBox="0 0 1051.40002 548.4902">
  <defs>
    <style>
      .b {
        stroke: #777;
      }

      .b, .c, .d, .e {
        stroke-miterlimit: 10;
      }

      .b, .e {
        fill: none;
      }

      .f {
        fill: #555;
      }

      .g {
        fill: #777;
      }

      .c {
        fill: #363636;
      }

      .c, .d, .e {
        stroke: #000;
        stroke-width: 2px;
      }

      .h, .i {
        fill: #987f00;
      }

      .i {
        isolation: isolate;
      }
    </style>
  </defs>
  <polygon class="c" points="1 320.9902 105.9 320.9902 105.9 254.19019 140.8 254.19019 140.8 244.7902 152.10001 227.19019 152.10001 191.89019 162.10001 191.89019 162.10001 165.0902 150.2 165.0902 145.8 118.4902 166.8 116.3902 182.39999 119.2902 195.5 115.4902 203.7 115.4902 208.8 109.9902 261.5 109.9902 265.89999 106.9902 271.39999 102.0902 274.39999 97.5902 275 94.4902 275 87.0902 294.29999 73.5902 308.5 68.19019 323.29999 68.19019 323.29999 70.5902 351.79999 70.5902 351.79999 46.4902 371.10001 46.4902 371.10001 21.6902 385.5 21.6902 385.5 1.1902 429.5 8.8902 539.29999 9.4902 539.29999 28.9902 563.40002 28.9902 563.40002 63.4902 558.5 63.4902 558.5 69.7902 562.5 69.7902 562.5 205.9902 553.29999 205.9902 553.29999 208.0902 555.59998 208.0902 555.59998 222.0902 553.29999 222.0902 553.29999 224.19019 605.5 224.19019 605.5 195.2902 613.29999 197.0902 621.79999 201.0902 660.20001 227.4902 668.79999 231.4902 684.29999 236.89019 730.5 252.39019 742.79999 253.7902 789.5 258.89019 825.90002 270.89019 839.40002 281.5902 872.20001 281.5902 872.20001 286.5902 910 286.5902 910 277.4902 993.40002 277.4902 993.40002 286.79018 1050.40002 286.79018 1050.40002 297.4902 1042.09998 297.4902 1042.09998 361.29018 1050.40002 361.29018 1050.40002 371.0902 993.5 371.0902 993.5 379.39019 910.5 379.39019 910.5 371.5902 871.70001 371.5902 871.70001 377.5902 845.20001 377.5902 843.79999 382.4902 840.5 387.29018 834.40002 390.9902 831.5 392.29018 802.79999 392.29018 793.29999 395.19021 786.90002 399.69021 781.70001 406.19021 779.79999 415.69021 779.90002 419.0902 779.20001 455.69021 775.70001 474.29018 767.59998 496.5902 758.59998 511.0902 743.20001 528.09017 728.29999 538.29018 710.5 545.4902 700.90002 547.4902 641.59998 547.4902 640.79999 536.4902 638.29999 527.89022 636.70001 523.89022 622.20001 528.09017 599.70001 528.09017 596 522.69021 592.70001 519.4902 585.79999 516.4902 581.40002 513.69021 581.40002 502.19021 538.90002 502.19021 529 500.5902 517 498.89019 506.70001 496.9902 497.60001 495.0902 449.5 495.0902 448.10001 462.29018 445.79999 445.4902 442.70001 430.0902 437.70001 416.0902 428.60001 403.9902 418.89999 395.0902 407.20001 389.4902 393 386.89019 378.60001 387.79018 366.89999 391.5902 354.70001 398.4902 343.79999 406.19021 330.89999 413.79018 316.29999 419.0902 313.89999 419.19021 313.89999 415.89019 312 415.89019 312 419.9902 270.20001 419.9902 270.20001 414.79018 267.79999 414.79018 267.79999 418.79018 237 418.79018 223.8 416.5902 206.7 412.29018 190.5 406.19021 188.7 405.19021 190.60001 401.69021 174.89999 395.0902 166.8 390.4902 160.89999 383.29018 157.60001 376.4902 156.2 368.69021 158.89999 368.69021 158.89999 359.5902 153.7 359.5902 153.7 335.4902 140.39999 313.29018 139.89999 319.4902 140.39999 325.29018 141.8 339.5902 144.7 367.4902 131 370.19021 124.3 369.9902 106.1 368.29018 106.1 352.79018 1 352.79018 1 320.9902"/>
  <polygon class="f" points="479.60001 144.7902 501.5 144.7902 501.5 27.3902 465.10001 27.3902 465.10001 28.9902 450.70001 28.9902 447.29999 30.8902 443.20001 34.2902 441 36.9902 440.5 39.7902 440.5 115.8902 441.70001 119.9902 444.79999 122.8902 448.60001 125.2902 453.70001 126.8902 462.5 126.8902 462.5 118.8902 479.70001 118.8902 479.60001 144.7902"/>
  <path class="d" d="m616.20001,510.69021v-23.29999h-12.20001v-37.40002h77.59998c0,.89999-.09998,2.20001-.29999,3.70001-.40002,2.70001-1.20001,7-4.40002,13.79999-1.59998,3.60001-4.20001,9.20001-9,15.39999-10.79999,14.10001-24.5,20.10001-30.40002,22.60001-6.90002,3-13,4.5-17.20001,5.29999-1.29993-.09998-2.69995-.09998-4.09991-.09998Z"/>
  <path class="d" d="m604.09998,426.9902v-37.5h12.5v-23.29999c1-.10001,2.40002-.10001,4,0,5.79999.29999,10,1.89999,14.5,3.70001,1.5.60001,5.79999,2.29999,11,5.29999,2.20001,1.29999,5.70001,3.29999,9.79999,6.60001,4.79999,3.79999,7.90002,7.29999,9.09998,8.70001,3.59998,4.20001,5.79999,7.79999,7.70001,10.79999,1.79999,2.89999,3.29999,5.5,4.79999,9.29999,1.09998,2.79999,1.70001,5.20001,2.29999,7.89999.79999,3.29999,1.29999,6,1.70001,8.10001l-77.39996.39999Z"/>
  <polygon class="d" points="563.09998 473.89019 563.09998 401.4902 524.90002 401.4902 520.79999 400.29018 516.90002 398.5902 513.20001 395.9902 510.60001 392.9902 509.89999 389.9902 509.89999 383.0902 510.79999 379.4902 512.29999 375.79018 514.90002 371.9902 490.29999 396.39019 487.10001 413.9902 485.10001 413.9902 490.60001 413.9902 490.60001 466.29018 496.10001 466.29018 496.10001 470.79018 496.70001 470.79018 496.70001 466.19021 506.79999 468.19021 523 470.69021 539.90002 473.39019 563.09998 473.89019"/>
  <polygon class="d" points="622 346.89019 599.29999 346.89019 591.09998 356.0902 587.29999 357.9902 578.59998 361.0902 578.59998 335.4902 566.70001 335.4902 566.70001 312.39019 559.70001 312.39019 559.70001 286.4902 603.5 286.4902 604.79999 289.5902 606.40002 291.4902 606.40002 298.5902 606 309.29018 607.09998 316.0902 609.20001 321.79018 611.79999 326.39019 615.40002 330.29018 617.79999 333.39019 619.5 338.19021 621 342.69021 622 346.89019"/>
  <path class="d" d="m540.59998,365.4902v-52.5h3.09998v-26.10001h-27.40002v1.20001l-75-22.70001-21.5,21.5c-17.39999-5.20001-34.79999-10.5-52.20001-15.70001,2.39999-7.60001,4.79999-15.3,7.10001-22.89999-.89999-.3-1.89999-.7-2.79999-1l-9.29999,26.70001,36.10001,36.20001,26-25.20001,4.5-2.5,5.10001-1.79999,5.79999-.20001,6.29999.39999,5.10001,1.79999,4.20001,2.20001,4,2.70001,70.09998,69.10001-2.79999,2.89999.20001.20001,1.40002-1.39999,11.5,8h7.79999v-.79999c-2.29999-.10004-4.79999-.10004-7.29999-.10004Z"/>
  <rect class="d" x="944.70001" y="316.4902" width="26.40002" height="24.5"/>
  <polygon class="d" points="377.70001 331.19021 341.60001 296.4902 339.10001 295.4902 302.5 295.4902 302.5 304.5902 275.70001 304.5902 275.70001 295.4902 261.10001 295.4902 258.89999 296.89019 256.29999 298.39019 254.2 301.4902 252.8 306.29018 226.3 387.39019 233 389.39019 241.8 390.4902 251.7 391.39019 268.70001 392.4902 268.70001 395.4902 269.60001 395.4902 269.60001 384.29018 313.60001 384.29018 313.60001 336.39019 373.29999 336.39019 377.70001 331.19021"/>
  <polygon class="d" points="338.39999 265.89019 340.70001 255.7902 343.29999 247.19019 345.70001 238.89019 313.10001 238.89019 313.10001 248.5902 227.3 248.5902 227.3 166.2902 179.3 166.2902 179.3 190.89019 203.60001 190.89019 214.10001 232.7902 214.10001 285.29018 201.89999 328.5902 178.89999 328.5902 178.89999 361.39019 171.2 361.39019 171.2 367.69021 174.3 367.69021 174.39999 371.5902 176.3 374.4902 180.89999 377.39019 190.2 380.79018 196.8 382.9902 198.8 376.19021 201.89999 366.79018 205.3 356.39019 208.2 346.9902 212.8 332.5902 218.7 315.0902 224.3 298.19021 228 286.39019 232.10001 279.4902 236.10001 275.5902 241.10001 271.39019 246.39999 269.0902 252.8 267.19021 257.60001 266.5902 276.10001 266.5902 276.10001 257.9902 302.70001 257.9902 302.70001 265.9902 338.39999 265.89019"/>
  <rect class="d" x="282.10001" y="122.8902" width="6.10001" height="5.8"/>
  <rect class="d" x="535" y="206.89019" width="8.79999" height="16.5"/>
  <polygon class="d" points="520 64.9902 544.70001 64.9902 544.70001 68.4902 538 68.4902 538 145.4902 520 145.4902 520 64.9902"/>
  <polygon class="d" points="324.5 86.4902 350.60001 86.4902 350.60001 148.5902 307 148.5902 324.5 127.8902 324.5 86.4902"/>
  <polygon class="d" points="369.10001 133.4902 384.60001 133.4902 384.60001 151.5902 386.60001 154.5902 413.60001 149.69019 413.60001 198.5902 313 198.5902 313 184.2902 297.29999 169.89019 369.20001 169.89019 369.10001 133.4902"/>
  <polygon class="d" points="462.60001 119.4902 479.60001 119.4902 479.60001 180.2902 500.60001 180.2902 500.60001 207.39019 521.59998 207.39019 521.59998 223.4902 516.20001 223.4902 516.20001 212.39019 473.70001 212.39019 473.70001 180.2902 455.60001 180.2902 455.60001 147.4902 462.5 147.4902 462.60001 119.4902"/>
  <path class="d" d="m732.29999,333.69021c6.90002-.10001,12.79999,5.5,12.90002,12.5.09998,7-5.70001,12.79999-12.70001,12.79999-7.09998,0-12.90002-6-12.70001-13,.40002-6.70001,5.90002-12.20001,12.5-12.29999Z"/>
  <path class="d" d="m661.90002,274.5902c6.90002-.10001,12.79999,5.5,12.90002,12.5.09998,7-5.70001,12.79999-12.70001,12.79999-7.09998,0-12.90002-6-12.70001-13,.39996-6.69998,5.89996-12.19998,12.5-12.29999Z"/>
  <path class="d" d="m786.70001,279.9902c6.90002-.10001,12.79999,5.5,12.90002,12.5.09998,7-5.70001,12.79999-12.70001,12.79999-7.09998,0-12.90002-6-12.70001-13,.29999-6.69998,5.79999-12.19998,12.5-12.29999Z"/>
  <path class="d" d="m432.5,357.19021c5.29999-.10001,9.89999,4.20001,10,9.60001s-4.39999,9.79999-9.70001,9.79999c-5.5,0-9.89999-4.70001-9.70001-10.10001.00003-5,4.30002-9.20001,9.40002-9.29999h0Z"/>
  <path class="d" d="m269.29999,205.0902c5.20001-.10001,9.70001,4.10001,9.70001,9.39999.10001,5.3-4.29999,9.60001-9.5,9.60001-5.39999,0-9.70001-4.60001-9.5-9.8.10001-5,4.20001-9.10001,9.29999-9.2h0Z"/>
  <line class="e" x1="140" y1="254.2902" x2="140" y2="279.79018"/>
  <line class="e" x1="140.10001" y1="294.0902" x2="140.10001" y2="298.89019"/>
  <line class="e" x1="203.5" y1="115.69019" x2="203.5" y2="119.19019"/>
  <line class="e" x1="203.5" y1="131.9902" x2="203.5" y2="166.2902"/>
  <line class="e" x1="252" y1="170.5902" x2="227.3" y2="170.5902"/>
  <path class="e" d="m245.31522,146.01193c-.03261,6.7663-.06522,13.53262-.09782,20.29892-5.97246-.0069-11.94493-.01376-17.91739-.02066"/>
  <line class="e" x1="274.10001" y1="170.4902" x2="297.89999" y2="170.4902"/>
  <line class="e" x1="279.20001" y1="148.5902" x2="307" y2="148.5902"/>
  <polyline class="e" points="350.70001 111.9902 369.20001 111.9902 369.20001 133.4902"/>
  <line class="e" x1="443" y1="147.4902" x2="455.60001" y2="147.4902"/>
  <line class="e" x1="483.89999" y1="144.9902" x2="479.70001" y2="144.9902"/>
  <polyline class="e" points="497.89999 144.9902 501.5 144.9902 501.5 40.5902"/>
  <path class="e" d="m472.5,52.68585c9.76086,1.84784,19.52176,3.69565,29.28262,5.54349"/>
  <path class="e" d="m460.43478,55.62063v-29.00543c19.92175.19165,39.84348.38336,59.76523.57501v37.79999"/>
  <line class="e" x1="501.5" y1="29.6902" x2="501.5" y2="27.3902"/>
  <line class="e" x1="526" y1="180.39019" x2="500.60001" y2="180.39019"/>
  <line class="e" x1="555.59998" y1="180.4902" x2="562.5" y2="180.4902"/>
  <line class="e" x1="521.59998" y1="207.39019" x2="524.09998" y2="207.39019"/>
  <line class="e" x1="521.59998" y1="223.4902" x2="524.09998" y2="223.4902"/>
  <line class="e" x1="516.20001" y1="223.4902" x2="516.20001" y2="226.39019"/>
  <line class="e" x1="535" y1="206.89019" x2="532.09998" y2="206.89019"/>
  <line class="e" x1="535" y1="223.39019" x2="532.09998" y2="223.39019"/>
  <line class="e" x1="543.79999" y1="223.39019" x2="546.59998" y2="223.39019"/>
  <line class="e" x1="543.79999" y1="206.89019" x2="546.40002" y2="206.89019"/>
  <line class="e" x1="543.70001" y1="286.89019" x2="546" y2="286.89019"/>
  <line class="e" x1="559.70001" y1="286.4902" x2="557.09998" y2="286.4902"/>
  <path class="e" d="m578.59998,361.0902c.11157,8.3942.22321,16.78841.33478,25.1826"/>
  <line class="e" x1="578.59998" y1="365.79018" x2="570.59998" y2="365.79018"/>
  <path class="e" d="m563.09998,401.4902h16.10004v-2.48369"/>
  <path class="e" d="m563.09998,473.89019h16.80005v1.47772"/>
  <path class="e" d="m580.41846,492.43857c.02716,3.25055.05438,6.50109.08154,9.75164"/>
  <path class="e" d="m496.58151,485.76194c.00616,3.10942.01233,6.21885.01849,9.32827"/>
  <line class="e" x1="463" y1="487.5902" x2="463" y2="495.0902"/>
  <path class="e" d="m463.07608,476.10976c-.49203-20.57319-.98404-41.14639-1.47607-61.71957h11.60001"/>
  <line class="e" x1="313.60001" y1="384.29018" x2="313.60001" y2="404.0902"/>
  <line class="e" x1="226.3" y1="387.39019" x2="222.8" y2="386.29018"/>
  <line class="e" x1="197.89999" y1="379.19021" x2="201.8" y2="379.19021"/>
  <path class="e" d="m243.5,109.9902c.00182,3.00723.00362,6.0145.00543,9.02173"/>
  <path class="e" d="m516.20001,286.89019l-.10217-18.79129"/>
  <line class="e" x1="313.10001" y1="238.89019" x2="313.10001" y2="221.89019"/>
  <line class="e" x1="313" y1="198.5902" x2="313" y2="201.89019"/>
  <line class="e" x1="344.10001" y1="198.5902" x2="344.10001" y2="207.9902"/>
  <line class="e" x1="383.60001" y1="198.5902" x2="383.60001" y2="207.9902"/>
  <line class="e" x1="875.59998" y1="371.5902" x2="875.59998" y2="363.79018"/>
  <line class="e" x1="875.59998" y1="342.69021" x2="875.59998" y2="323.29018"/>
  <line class="e" x1="875.59998" y1="297.69021" x2="875.59998" y2="286.5902"/>
  <path class="e" d="m656.29435,516.68526l8.50564-5.19506,9.5-7.89999,8.29999-8.39999,7.60004-11,4.70001-10.30002,3.59998-9.5,1.29999-3.60001.79999-10.79999v-12.67204"/>
  <line class="e" x1="637.5" y1="525.79018" x2="643.41435" y2="523.50257"/>
  <path class="e" d="m699.96198,419.68041c-.04889-.40761-.09784-.81522-.14673-1.22282-.70691-1.94267-1.41382-3.88533-2.12073-5.828-.79816-2.21313-1.59637-4.42625-2.39453-6.63939l-4.79999-11.39999-10.90002-14.89999-18.5-16.90002-13.69995-7.5-13.20001-5c-4.06665-1.13333-8.13336-2.26666-12.20001-3.39999"/>
  <rect class="g" x="480.5" y="437.29018" width="10" height="6.10001"/>
  <rect class="g" x="464.5" y="403.4902" width="6.10001" height="10.89999"/>
  <polygon class="g" points="443.79999 423.79018 445.79999 422.5902 445.79999 419.89019 449.10001 419.89019 449.10001 417.79018 441.20001 417.79018 442.20001 422.89019 443.79999 423.79018"/>
  <polygon class="g" points="358.39999 393.69021 354.39999 387.39019 359.60001 383.9902 363.79999 390.79018 358.39999 393.69021"/>
  <polygon class="g" points="509.29999 375.29018 502.79999 362.0902 506.70001 360.0902 512.59998 372.4902 509.29999 375.29018"/>
  <polygon class="g" points="476.89999 324.19021 486.29999 315.0902 479.70001 307.9902 472.70001 314.19021 474 316.0902 464.79999 316.0902 464.79999 319.9902 474.70001 320.19021 476.89999 324.19021"/>
  <polygon class="g" points="543.70001 285.9902 549 274.29018 543.29999 272.19021 537.20001 285.9902 543.70001 285.9902"/>
  <polygon class="g" points="478.70001 224.19019 471.20001 220.0902 475.60001 212.69019 481.29999 212.69019 478.70001 224.19019"/>
  <rect class="g" x="369.89999" y="122.0902" width="5.10001" height="10.6"/>
  <polygon class="g" points="406.29999 96.0902 405.70001 99.69019 402.10001 101.5902 397.89999 99.0902 397.10001 95.3902 399.5 91.4902 403.29999 91.4902 404.79999 91.9902 417.29999 83.19019 420.29999 87.2902 406.29999 96.0902"/>
  <polygon class="g" points="380.70001 70.3902 378.79999 68.2902 378.79999 65.19019 380.29999 63.2902 382.70001 61.9902 385.10001 62.2902 387.20001 63.6902 388.10001 65.3902 387.79999 68.2902 386.60001 70.3902 385.79999 70.69019 385.39999 86.4902 379.89999 86.4902 380.70001 70.3902"/>
  <line class="b" x1="385.5" y1="20.7902" x2="398.79999" y2="24.0902"/>
  <line class="b" x1="402.89999" y1="25.1902" x2="407.39999" y2="25.6902"/>
  <polygon class="g" points="430.70001 21.8902 438.39999 21.8902 438.39999 9.6902 430.5 9.6902 430.70001 21.8902"/>
  <polygon class="g" points="464.10001 118.8902 459.10001 104.3902 471 98.8902 472.70001 102.3902 465.89999 105.7902 468.70001 118.8902 464.10001 118.8902"/>
  <polygon class="g" points="481 99.19019 479.10001 96.0902 501.5 85.69019 501.5 93.69019 481 99.19019"/>
  <polygon class="g" points="446.60001 109.9902 449.70001 107.8902 444 98.8902 441.10001 100.8902 446.60001 109.9902"/>
  <path class="g" d="m455.70001,84.3902l-5,.3-3.29999-1.1-1.89999-2.7.29999-4.9,2.39999-3.2,3.29999-1.8,4-.4h1.39999v2.39999h-1.5c-.29999,0-.60001,1.5-.60001,1.5l1.5.6.60001,2.8h5.39999v5.6l-6.39999-.4-.19998,1.3Z"/>
  <polygon class="i" points="779.20001 454.4902 769.20001 443.4902 764 437.69021 753.40002 433.69021 738.70001 431.19021 728.40002 426.79018 720.09998 417.79018 714.29999 403.89019 709.70001 391.29018 702.70001 379.19021 693.5 366.79018 685.40002 357.79018 673.5 348.89019 659.70001 341.29018 646.29999 336.0902 636.09998 332.4902 624.90002 324.0902 616.5 311.9902 614 299.89019 614.90002 283.89019 617.20001 268.39019 617.29999 251.69019 614.59998 237.89019 611 231.4902 606.90002 225.7902 605.40002 224.2902 605.40002 195.2902 612.70001 199.39019 619.40002 204.0902 627.29999 212.0902 631.09998 218.19019 635.59998 227.4902 638.09998 236.0902 639.40002 242.9902 639.20001 252.89019 636.5 266.5902 633.20001 283.4902 632.20001 290.29018 632.29999 300.4902 635.09998 307.79018 642.40002 315.69021 651.20001 321.4902 670.90002 331.4902 679.09998 335.79018 687.59998 342.19021 696.59998 349.19021 706.79999 361.0902 720.20001 377.29018 725.59998 380.39019 733.20001 381.89019 740.70001 380.9902 749.5 378.0902 762.70001 373.5902 771.90002 372.69021 784 375.5902 789.90002 380.39019 796.70001 387.79018 800.29999 393.0902 793.29999 395.19021 786.90002 399.69021 781.70001 406.19021 779.79999 415.69021 779.20001 454.4902"/>
  <polygon class="i" points="590.79999 518.69021 608.20001 501.29018 604.29999 497.19021 586.70001 515.09017 590.79999 518.69021"/>
  <rect class="i" x="601" y="427.9902" width="11.90002" height="21.10001"/>
  <polygon class="i" points="604.5 379.19021 609.09998 374.4902 590.79999 357.29018 585.79999 360.29018 604.5 379.19021"/>
  <polygon class="i" points="367.39999 257.0902 371.29999 245.9902 347.10001 237.7902 343.20001 250.0902 367.39999 257.0902"/>
  <polygon class="i" points="432.20001 247.69019 413.39999 241.39019 426.20001 203.39019 444.29999 209.19019 432.20001 247.69019"/>
  <polygon class="i" points="419.39999 183.19019 449.29999 183.19019 449.29999 171.4902 419.39999 171.0902 419.39999 183.19019"/>
  <polygon class="i" points="279.20001 168.9902 336.20001 168.9902 336.60001 149.69019 279.20001 149.69019 279.20001 168.9902"/>
  <rect class="d" x="591.66848" y="261.34889" width="3.5462" height="7.16576"/>
  <rect class="d" x="591.66848" y="245.03639" width="3.5462" height="7.72826"/>
  <rect class="d" x="443.95109" y="147.74835" width="10.80978" height="10.5163"/>
  <polygon class="d" points="414.22826 156.47933 426.29999 156.47933 426.29999 149.17498 432.45652 148.09889 432.32609 147.44672 426.29999 147.2902 414 149.4902 414.22826 156.47933"/>
  <rect class="h" x="369.89999" y="114.32851" width="6.64892" height="7.66712"/>
  <rect class="h" x="277.20652" y="246.44672" width="24.58696" height="12.71739"/>
  <rect class="d" x="227.51087" y="166.2902" width="15.98913" height="4.3"/>
  <line class="e" x1="377.70001" y1="331.19021" x2="383.14566" y2="325.74456"/>
  <line class="e" x1="398.69995" y1="310.19021" x2="395.58585" y2="313.30431"/>
  <path class="e" d="m423.11414,342.34889c-.25345-1.63161-.37723-3.04451-.44022-4.15761-.06229-1.10097-.14493-2.655,0-4.69565.13275-1.86926.39499-3.28209.48914-3.7663.31985-1.64519.65677-3.3783,1.63043-5.44566,1.08255-2.2986,2.34305-3.71695,2.60867-4.01086.56-.61964,1.37308-1.50574,2.70654-2.31522,1.13083-.68648,2.18457-1.04387,2.93478-1.23914"/>
  <line class="e" x1="840.12228" y1="297.69021" x2="840.12228" y2="281.5902"/>
  <line class="e" x1="840.12228" y1="317.20759" x2="840.12228" y2="343.52281"/>
  <line class="e" x1="840.12228" y1="362.79454" x2="840.12228" y2="387.46528"/>
  <line class="e" x1="875.59998" y1="338.28911" x2="840.12228" y2="338.28911"/>
  <line class="e" x1="840.12228" y1="325.08259" x2="875.59998" y2="325.08259"/>
</svg>