<?xml version="1.0" encoding="UTF-8"?>
<svg id="Layer_1" xmlns="http://www.w3.org/2000/svg" version="1.1" xmlns:xlink="http://www.w3.org/1999/xlink" viewBox="0 0 119.2 98.65">
  <!-- Generator: Adobe Illustrator 30.1.0, SVG Export Plug-In . SVG Version: 2.1.1 Build 136)  -->
  <defs>
    <style>
      .st0 {
        fill: #131323;
      }

      .st1 {
        stroke: #000;
      }

      .st1, .st2 {
        stroke-width: 2px;
      }

      .st1, .st3, .st4, .st5, .st6, .st7 {
        fill: none;
      }

      .st2 {
        fill: #352021;
        stroke: #471f21;
      }

      .st3 {
        stroke-width: 8px;
      }

      .st3, .st5, .st7 {
        stroke: #333;
      }

      .st4 {
        stroke: #444;
      }

      .st5 {
        stroke-width: 12px;
      }

      .st8 {
        fill: #262626;
      }

      .st9 {
        fill: #987f00;
      }

      .st10 {
        fill: #212121;
      }

      .st11 {
        fill: #666;
      }

      .st12 {
        fill: #444;
      }

      .st7 {
        stroke-width: 5px;
      }

      .st13 {
        fill: #333;
      }

      .st14 {
        clip-path: url(#clippath);
      }
    </style>
    <clipPath id="clippath">
      <rect class="st6" width="119.2" height="98.65"/>
    </clipPath>
  </defs>
  <g class="st14">
    <path class="st10" d="M54.09,509.84l69.32-91.03,20.09-2.85,30.43-6.61,48.9-8.66,1.59-2.82-5.76-32.37.02-24.93,2.59.64,2.76,1.8,278.01,34.67,15.79-.85-1.24-9.73,8.12-57.81,5.55-43,2.16-10.72-18-2.4.67-25.27,3.05-9.7-.23-10.14,2.58-22.72,9.28-22.63,2.13-5.41,1.77-16.45,4.45-20.13,1.3-26.11-1.35-11.48-13.15-4.5-4.18,3.32-21.97-1.38-.3,5.77-7.8-1.96-8.58-7.35-19.03-2.67-22.55-18.28-9.46-6.11-2.83-8.1,4.14-6.83,2.48-7.49-31.69-19.5-6.83.48-12.6-6.57-3.85-1.8-9.42.87-14.56-11.7-6.87-5.86-9.52-4.39-7.74-.99-18.53,3.97-17.67,19.99-17.31-2.66-12.95-8.29-7.03,4.41-10.27,10.09,4.19,4.41-23.42,30.7-2.93.96-8.74-.46-14.54,4.31-10.71,1.46-12.36-10.62-8.48-5.65-14.18-4.73L63.61-2.19l-20.48-4.5-16.33-2.04-7.92,1.76L-2.34,6.22l-31.44,26.32-17.02,17.3-10.09,12.94-4.69,11.07-6.45,4.46-8.26,2.23-12.43,1.05-20.34-.7-14.74-1.56-47.25-1.14-32.06.91s-6.67,24.07-8.82,36.34c-.82,4.7-1.35,9.46-1.56,14.23-.26,5.73,1.12,11.52.33,17.2-.34,2.41-2.13,6.98-2.13,6.98l-2.2,5.66-4.73,1.04-9.34-1.26-21.02,3.23-16.37-2.64-6.32.28-8.1-1.31-4.3,3.36-4.08,8.79-3.54,2.29-5.46,6.33-10.47,6.67-39.59,21.28-40.16,20.33-37.17,19.8-2.73,2.39-3.04,4.74-5.95,1.42-15.98,19.34.43,14.54-14.72,1.79.55,12.1-1.84,6.49-1.82,104.31,7.3-4.39,2.07,7.28,3.72.32,1.47,3.5-.2,22.24,2.59,2.18,13.9,2.49,8.84.47,20.58-6.3,16.72-1.79,10.93,4.53,77.56,1.61,1.43-15.4,72.2-.83,41.56-8.8s-5.86-15.9-7.68-24.15c-1.3-5.91-2.26-18-2.26-18l1.24-.89,12.73-3.2,10.47-4.48,11.02-.78-1.76-15.28,19.33-2.82,19.18-6.51,2.34-3.72,2.35-1.03,12.62-2.29,16.87-1.18,5.03,21.93,4.44,28.71,26.03-4.06L1.86,369.86l27.77,42.11,9.52,42.75-24.17,24.2,38.49,31.68.63-.82v.06Z"/>
    <path class="st0" d="M-206.09,246.43c2.85-.93,4.67-4.28,7.59-6.42,4.83-3.52,5.77-10.13,8.19-12.61,1.45-1.49,5.49-1.46,5.58-3.47.11-2.23-5.83-2.44-4.31-19.57,1.72-19.37,11.75-14.91,13.83-21.48.95-2.99,1.15-7.54-.07-10.44-1.48-3.53-6.69-2.38-7.02-6.19-.39-4.36,7.95-11.86,8.28-17.8.51-9.36-4.29-15.51-4.59-25.04-.18-5.85,1.95-13.28,2.56-21.35,1.3-17.25,2.09-35.22,2.09-35.22l-31.17.06s-1.05,15.86-4.4,30.88c-2.05,9.18-6.35,18.2-6.67,25.61-.39,9.32.44,19.08-.81,28.33-1.18,8.74-7.41,16.06-7.99,24.86-.5,7.57,5.97,10.78,4.6,24.46-1.71,16.98-10.48,14.04-10.82,28.09-.18,7.61,7.24,7.37,9.24,10.23,2.01,2.86-.84,5.63,1.96,7.73,2.5,1.88,5.17-.03,6.51-.55,4.45-1.73,4.78.77,7.42-.1h0ZM-207.72,177.87c-.93-1.03-2.21-3.05-2.02-4.31.61-4.03-2.87-9.38-1.47-11.53,2.06-3.17,9.48-8.49,10.59-9.27,3.21-2.27,1.53,7.77,1.45,11.69-.06,2.9-.27,5.92-1.41,8.58-.78,1.84-1.86,3.83-3.61,4.78-.25.13-3.33.27-3.52.05h-.01ZM-233.56,341.34c1.24-.05,4.63.66,5.96.7,1,.03,9.74-.62,11.4-3.98,1.81-3.67-11.69-3.87-4.64-6.81,4.15-1.73,9.34.24,11.14-2.69,4.16-6.72,7.58-15.92,10.24-23.43,2.96-8.35,10.4-22.14,7.1-27.46-2.72-4.39-10.53,1.22-11.91-2.68-1.93-5.49,7.2-5.84,10.58-8.61,1.39-1.15,5.88-4.91,5.39-7.93-.42-2.6-2.6-5.18-4.38-5.25-5.08-.18-5.44,9.21-9.48,10.43-8.07,2.44-17.81-5.46-26.23-6.01-2.8-.18-5.58.2-7.45,2.2-.82.89-2.25-2.93-2.58-1.4-2.62,12.17-1.23,28.23-3.4,40.07-1.77,9.63-6.43,14-6.96,27.05-.07,1.61,0,6.73.6,8.23,1.47,3.66,1.97,1.27,4.73,3.49,1.84,1.48-.48,4.81,2.18,4.9.19,0,6.4-.76,7.68-.81h.03ZM-236.75,451.79l45.39-4.36c-1.09-6.24.75-6.02-.63-11.65-.91-3.74-3.4-7.15-4.66-11.04-1.31-4.02-1.72-8.43-3.05-12.58-1.6-5.01-4.29-9.67-4.89-13.64-.96-6.36.15-16.78-3.46-24.92-2.35-5.29-6.5-11.94-10.7-16.8-3.16-3.66-13.76-.73-15.22-2.43-1.42-1.65,6.78-7.31,3.1-8.32-4.42-1.21-7.36-1.81-11.7,3.62-3.32,4.14-4.27-1.35-9.01,4.32-2.48,2.98-.66,6.95-.79,12.26-.16,6.25-3.57,7.8-1.53,18.49,4.57,24,17.15,67.06,17.15,67.06h0Z"/>
    <g>
      <path class="st7" d="M480.14,149.84s-12.34-14.32-20.78-17.76c-7.88-3.21-29.72-3.12-42.51-8.96-13.24-6.04-20.53-20.08-31.18-25.55-6.69-3.43-21.18,4.59-21.18,4.59M38.17,3.26c12.01-9.47,8.06-14.38,19.87-23.03M-41.5,339.9s17.85,4.72,27,5.61c3.41.33,6.88-.48,10.29-.12,5.24.56,14.96,3.51,15.43,3.51s38.49-6.96,43.12-7.82M75.7,319.27c4.66-.84,10.21-3.39,14.53-4.5,7.2-1.85,21.98-3.74,21.98-3.74M-19.18,298.81s9.94-2.97,10.53-2.86c.58.12,8.76-1.36,12.51.47,6.64,3.24,12.03,9.91,14.26,16.95,1.54,4.85,1.46,10.92-1.29,15.2-2.32,3.61-7.85,3.66-11.22,6.31-3.77,2.96-9.82,10.52-9.82,10.52M16.83,328.57s10.37-5.97,16.13-6.31c4.18-.25,5.66,2.49,9.85,2.67,1.69.07,4.74-1.35,8.23-2.02M18.11,313.37s4.34-5.08,7.25-6.55c9.19-4.63,20.56-2.67,30.28-6.08,3.93-1.38,7-5.05,11.11-5.73,3.38-.56,7.15-.1,10.17,1.52,3.89,2.08,6.35,6.2,8.89,9.82,1.82,2.6,3.18,5.51,4.44,8.42,2.27,5.22,4.29,10.59,5.61,16.13,1.7,7.11,2.29,14.46,2.92,21.74.66,7.58,1.6,15.22.93,22.79-.27,3.1-.6,6.33-1.99,9.12-3.41,6.88-9.19,12.47-14.96,17.54-2.58,2.27-5.34,4.7-8.65,5.61-8.57,2.35-17.82-.06-26.65-1.05-5.47-.62-11.45-.34-16.25-3.04-4.78-2.69-9.23-7.07-10.99-12.27-2.73-8.07,3.04-17.03,1.99-25.48-.77-6.22-6.01-17.82-6.01-17.82"/>
      <path class="st7" d="M47.45,406.65s-.07-18.29-2.45-27c-1.37-4.99-3.39-10.02-6.66-14.03-2.84-3.47-7.24-5.28-10.75-8.07-3.88-3.07-11.39-9.52-11.39-9.52M79.96,342.72c7.12-1.33,11.41-2.01,17.08-2.99M3.85,296.42c5.93-2.39,8.12-10.42,14.32-13.8,8.36-4.56,19.59-11.81,19.15-11.87"/>
      <path class="st7" d="M43.64,303.15s-1.18-11.81-2.35-17.62c-1-5-3.97-14.79-3.97-14.79M42.81,324.92l-18.31,21.62M-402.36,404.69s1.99,2.83,2.8,5.81c1.14,4.19,1.35,5.83,1.25,14.19M417.91,248l-5.37,46.28"/>
    </g>
    <path class="st13" d="M-296.11,384.92l3.67-122.37-66.63-1.56-1.84,38.38,28.16.79-.19,5.83,6.64.21-1.51,55.11-7.2-.25-.74,23.33,39.65.53h-.01ZM-392.22,391.36l3.58-112.25-7.81-4.36-47.65,23.4-3.24,91.44,55.13,1.78h-.01ZM-311.14,446.78l1.63-34.11-64.76-1.68-1.26,34.36,64.39,1.43ZM28.77,274.82l49.46-6.62-6.24-31.38-48.55,8.48,5.33,29.52h0ZM-70.05,347.79l42.65-8.31.75-16.9-1.51-7.14-14.02,3.12-.7-4.48-3.64.9-1.26-6.06-17.22,4.31-5.52-1.59-2.81,6.43.43,18.03,2.85,11.7h0ZM2.36,227.04l14.59-8.06,6.02-1.14-4.3-27.52-72.44-6.61-2.67,44.44,40.3,2.94.35-6.34,6.65,2.15,11.5.14h0ZM141.4,319.98l10.14-26.77-38.74-8-7.87,2.4,3.47,26.52,33,5.86h0ZM208.06,358.73l7.17,38.39-29.97-.22-5.5-22.73,28.3-15.43h0ZM293.52,201.1l4.33-35.86c.43-3.18-1.4-5.93-4.25-6.25l-39.46-4.65c-1.96-.25-4.9.91-5.17,3.3l-4.27,37.44,48.82,6.02h0ZM300.66,288.02l10.67-58.11-114.69-15.38-2.91,19.76,42.73,6.71-5.94,36.06,70.14,10.96h0ZM393.6,339.2l4.31-34.41-19.68-.13-4.47,33.89,19.84.65h0ZM121.19,170.32l3.17-1.28,1.2-1.44,2.53-6.77.32-11.15-49.1-2.51-.24,22.37,42.13.77h-.01ZM38.24,241.56l59.24-10.85-4.45-24.27-26.87,4.92-1.16-5.36-5.14-1.06-.7-10.2-21.74-3.6,4.16,24.72-7.78,1.42,4.45,24.27h0ZM370.16,111.72l1.21-18.58,7.83-15.77-8.13-4.95-10.74,14.7-4.89,3.22-10.48,4.32-4.78,16.26,20.49,13.62,9.49-12.82h0ZM62.11,44.34l1.86-13.9,14.76,2.29-.6,4.06,5.42.73.9,7.71-1.5,1.73-20.85-2.63h0ZM-179.29,161.68l-21.41-.19-.04,4.69,21.41.19.04-4.69ZM-208.77,167.5l-17.65,1.31.37,4.38,17.64-1.48-.36-4.21Z"/>
    <g>
      <path class="st7" d="M419.89,225.86s5.11-14.9,9.33-21.47c4.25-6.62,10.41-11.81,15.79-17.56,9.42-10.06,19.83-19.2,28.88-29.59,6.92-7.94,14.1-15.85,19.39-24.96,6.19-10.65,11.37-22.13,14.13-34.13,3.3-14.38,2.61-44.17,2.61-44.17M552.9,297.57c.49-4.04,7.65-29.17-17.15-32.66-74.69-10.53-242.07-34.99-290.54-41.93-8.56-1.23-9.88,7.57-19.86,6.06"/>
      <path class="st7" d="M229.17,202.33s-16.9,118.64-20.7,146.25c-.62,3.8-1.49,10.1-1.05,15.18,3.97,21.7,9.14,49.52,9.14,49.52M522.6,262.63s-6.62,55.26-10.82,82.32c-.47,3.04-2.81,5.81-5.39,7.49-2.57,1.68-5.96,2.27-9.01,1.9-31.36-3.84-66.99-7.71-98.49-11.68-7.59-.84-10.99-7.95-10.99-7.95M36.9,177.29c5.03-16.67,5.92-54.88,14.61-126.02.36-2.95,3.85-5.15,6.32-4.88,6.82.74,13.63,1.58,20.43,2.53,2.57.36,5,3.68,4.63,6.25-.89,6.23-1.96,12.55-2.81,18.25-.31,2.11-3.08,4-5.2,3.72-7.86-1.03-25.21-3.3-25.21-3.3M-72.3,414.23s1.51-19.38.24-28.99c-2.91-22.11-14.99-42.24-18.33-64.29-.6-3.96-1.41-8.2-.2-12.02,1.24-3.93,4.04-7.42,7.25-9.99,4.2-3.37,7.77-5.78,12.67-7.98,4.82-1.44,10.95-.44,13.54-3.74,2.64-3.37,2.07-8.01,1.07-12.17-2.11-8.76-3.09-16.75-3.67-24.72-.27-3.8,3.11-7.93,6.1-10.31,4.61-3.67,13.05-3.72,17.12-7.98,3.72-3.6,3.55-5.89,4.1-14.3M-466.59,404.35l149.64.8M292.53,210.05s-3.01-9.87-2.92-15.19c.04-2.13.8-9.65,1.41-13.72M263.58,206.22s-3.24-9.12-2.73-13.78c1.16-10.43,2.67-22.11,3.61-30.06.45-3.78-10.92-5.19-11.35-1.4-.9,7.95-2.21,20.24-3.32,30.42-.49,4.46-4.94,12.52-4.94,12.52"/>
      <path class="st7" d="M-77.29,294.53c4.97-2.31,10.45.58,15.33,1.94,4.76,1.33,8.86,4.67,13.71,5.66,3.47.71,7.14.85,10.66.08M81.43,182.89s.32-6.95,1.73-10.04c1.33-2.92,6.1-7.44,6.1-7.44M-90.4,320.91s5.79,4.64,9.12,6.19c3.48,1.62,11.1,3.1,11.1,3.1M-328.89,384.49c-.11,8.58-.35,11-1.76,14.36-1.03,2.46-5.03,6.21-5.03,6.21M-335.67,405.05s2.34,2.94,2.9,4.88c.34,1.15.4,2.15.3,4.79M-402.36,404.69s2.7-3.45,3.67-5.65c.87-1.99,1.05-3.6,1.17-7.85M-359.64,237.58c2.88-1.35,5.45-1.64,7.88.14,1.21.88,2.19,2.15,2.88,3.47,1.22,2.32,1.64,4.9,1.92,7.51.45,4.1.15,8.89.06,12.59"/>
    </g>
    <g>
      <path class="st3" d="M-130.54,156.13s443.37,55.79,656.07,83.49c15.42,1.93,21.61,3.3,31.1,5.52"/>
      <path class="st3" d="M-104.17,158.82s-27.95,71.6-39.95,108.1c-3.9,11.88-7.56,23.62-9.02,36.03-1.41,12.02-1.21,24.26.35,36.26,1.65,12.72,8.04,37.62,8.04,37.62"/>
    </g>
    <path class="st5" d="M-502.08,307.29s135.63-71.96,200-101.53c10.74-4.75,19.58-6.54,31.3-7.3,11.78-.76,26.46.74,39.38,2.13,20.17,2.18,41.84,4.11,62.75,6.73,5.88.31,8.65-.8,13.51-4.12,5.27-3.6,8.48-9.66,11.69-15.18,5.64-9.71,10.1-20.23,12.99-31.07,9.27-34.67,16.47-137.36,16.47-137.36M-468.71,469.18l7.81-239.27"/>
    <g>
      <path class="st4" d="M513.48,254.11l-4.28-.18M506.79,252.65l-68.47-9.68M430.71,242.93l-45.78-6.26M378.42,234.9l-137.42-18.36-7.14,3.21-15.65-2.4-6.21-5.23-20.33-1.82-3.14,1.77-15.02,101.17,3.29,7.47,7.84,4.92,8.26.39"/>
      <path class="st4" d="M188.54,212.28l-10.66-1.81-.91-2.64-52.57-6.48-.59,7.63-1.45-.05-.83,6.82,7.44.98M121.61,201.01l-36.9-5.32M81.19,195.34l-20.64-2.99M50.17,190.76l-2.88-.3-3.8.7-6.98-1.96-8.66-1.37M438.79,231.42l-1.37-.25,5.52-20.68M441.19,243.49l2.09-11.25-3.17-.58M408.14,166.42l-36.54-4.56M423.96,168.48l20.45,2.75-1.36,4.92-15.67,14.84,12.63,10.92M328.83,147.52l-7.94-1.34-28.5,2.41-12.17.21-19.9-2.18M256.42,146.21l-4.14.19M248.72,148.81l-4.15.08-12.15-1.42-8.57.35M219.91,148.67l-8.56,8-1.7,3.4-9.02-3.79M194.66,153.44l-5.19-2.31M191.37,147.8l6.45-10.6,7.99-9.33M218.56,108.27l2.49-12.71-.24-16.05M219.88,75.14l-3.18-8.82-9.6-4.8M202.8,59.55l-2.04-3.27-9.29-8.38M263.09,145.77l-.82-5.46-15.13.18-6.62-2.89-3.27-5.78-6.33,2.95-4.05-5.22M222.8,124.19l-6.57-8.07-1.8,3.49-2.59,3.24M63.43,78.43l-.71,7-10.07-1.34M24.03,187.43l-60.39-7.97-16.35-.93-9.14,8.29-22.21,23.31M-86.84,213.96l-12.79,15.54M-102.79,232.83l-4.64,6.47-2.62,7.55-2.65,12.14M-106.49,301.88l1.31,5.81M-103.62,313.86l4.3,22.84M-150.64,274.43l-26.23-7.38-5.28-.86M-188.16,267.18l-14.41,6.84M-102.7,229.6l-19.83-8.81M-124.75,219.83l-5.41-2.37-6.11,15.02-16.57-5.83M-157.27,225.34l-15.58-2.5,2.45-7.13M-233.01,254.01l-7.33.63M-244.08,254.91l-32.02,2.96M459.16,177.63l5.02,4.62-3.63,3.49-14.45,9.84M457.89,192.08l1.57,2.88-9.89,20.97-2.24-.68M-119.08,278.8l-7.41.6M-129.08,279.34l-6.26-.74M-291.47,400.25l3,.19,1.3-42.35M-287.17,355.51l.41-21.06M-286.75,331.35l.3-37.8,1.16-32.7M-285.71,256.22l-.34-8-5.05-6.43-25.56-13.23-4.11.26-19.03,9.03M-343.14,239.15l-1.77,3.84-5.56,2.21-3.73-1.18-3.51,2.12-2.03,3.44-1.16,28.43M-361.02,282.57l-3.66,109.86,2.04,4.02,28.62,1.84M-327.05,398.63l28.74,1.42M-307.67,406.98l-1.45,23.44M-385.73,381.63l-.11,6.85-1.2,6.06-4.67,3.08-2.78.11M-447.33,395.36l-5.82-7.2M128.94,158.42l.27-9.55-50.8-2.6-.17,21.58M95.09,170.65l26.33.48,3.39-1.35,1.46-1.78,2.65-7.01M325.82,354.55l2.51-16.51,4.61-2.22,7.11-4.31,6.24-5.12,4.78-6.78,3.73-7.55,10.9-69.36M366.09,239.7l.41-2.64,1.78-3.4M128.14,221.13l-4.95.96-3.31-.05-8.73,1.86.77,8.47-1.65,13.89,2.43,19.63-1.28,17.56,3.33.73M145.73,290.94l30.2,6.19M147.57,381.58l-.6,4.67-.36,16.27.66,11.69M194.95,337.13l-3.32,2.71-5.97,1.45-6.57,2.47-21.7,16.27-2.83,3.01-6.39,13.74-.22,1.74M190.62,326.35l-1.93,5.5,4.73,5.89"/>
      <path class="st4" d="M453.36,172.19l-4.76-4.61-4.37,3.86M-20.48,292.97v-10.7M19.11,193.27l2.79,17.92M22.76,218.01l-5.74,1.02-3.22,1.34M4.25,226.43l-1.93.59-11.48-.11-6.65-2.15-.43,6.55M34.08,241.3l-18.73,3.11M9.93,249.99l2.4,13.23M-73.48,336.44l2.77,11.6M-45.58,344.07l-5.75,1.15"/>
    </g>
    <g>
      <g>
        <path class="st12" d="M-115.9,327.45l-2.33-17.71-6.18.81,2.33,17.71,6.18-.81ZM-136.53,296.63l-.21,17.81,6.17.07.21-17.81-6.17-.07ZM-402.48,397.31l-44.75-1.64.23-6.17,44.75,1.64s-.23,6.17-.23,6.17ZM-453.46,387.98l3.02-89.01,6.33.21-3.02,89.01-6.33-.22h0ZM-391.82,381.44l3.31-102.32,6.08.2-3.31,102.32-6.08-.2ZM-383.59,271.14l-4.16,6.39-3.8-2.48,4.16-6.39,3.8,2.48Z"/>
        <path class="st12" d="M-392.37,276.91l3.09-7.05-4.17-1.83-3.09,7.05,4.17,1.83Z"/>
        <path class="st12" d="M-399.09,269.12l-47.17,23.25,2.74,5.55,47.17-23.25s-2.74-5.55-2.74-5.55ZM-400.03,384.37l.71-30.68-7.6-.18v-.61l-7.73-.18-.71,30.71,7.5.17v.58l7.83.18h0ZM-423.66,383.7l.84-35.51-7.73-.18v-.37l-7.64-.18-.84,35.33,7.58.18v.55l7.79.18h0ZM-398.49,340.69l1.56-48.84-7.54-.24-.14,4.22-7.93-.25-1.41,44.22,7.66.24v.4s7.8.25,7.8.25ZM-422.28,339.98l.93-35.83-15.28-.4-.91,35.3,7.56.2v.52l7.71.2h0Z"/>
      </g>
      <g>
        <circle class="st12" cx="493.35" cy="311.02" r="10"/>
        <circle class="st12" cx="463.92" cy="306.66" r="10"/>
        <path class="st12" d="M484.84,314.29l-13.59-1.87,1.34-9.73,13.59,1.87-1.34,9.73Z"/>
        <circle class="st12" cx="497.78" cy="283.93" r="10"/>
        <circle class="st12" cx="468.36" cy="279.57" r="10"/>
        <path class="st12" d="M489.28,287.2l-13.6-1.87,1.34-9.73,13.59,1.87-1.34,9.73h0ZM435.41,301.22l4.59-33.18,2.71.4,1.02-6.96-2.76-.41.47-3.39-18.45-2.55-6.03,43.54,18.45,2.55ZM482.62,347.31l-23.57-2.51,1.69-15.89,23.57,2.51-1.69,15.89ZM436,342.92l-42.01-5.28,2.95-23.47,42.01,5.28-2.95,23.47ZM350.75,302.82l.05-.32,2,.31,2.63-16.7-2.06-.33,4.72-30.72-31.02-4.77-.87,5.65-7.14-1.11-6.56,41.98,7.25,1.13v.1l31.01,4.77h0ZM277.44,324.89l-53.48-7.98,5.54-37.13,53.48,7.98-5.54,37.13ZM217.75,241.46l-10.03,65.6-29.49-4.51,10.03-65.6,29.49,4.51ZM274.52,192.11l.25-2.02,4.28.53.62-5.01,5.06.62,1.04-8.43,2.96.37,1.03-8.39-18.18-2.24-.19,1.56-14.55-1.76-2.49,20.61,14.49,1.75-.21,1.68,5.88.73h0ZM99.16,84.22l5.57-40.87-16.19-2.2-5.57,40.87,16.19,2.2ZM34.76,23.63l-5.68,40.93,16.13,2.24,3.45-24.89,12.43,1.73,2.23-16.04-28.56-3.97ZM145.65,291.42l10.13-47.83-12.69-2.69,4.85-22.9-18.47-3.91-7.59,35.83,18.14,3.84-2.25,10.6-18.02-3.82-5.15,24.3,31.04,6.57h.01ZM59.2,367.9l-10.77-59.35,24.52-4.45,10.77,59.35-24.52,4.45ZM-41.91,373.83l-4.77-23.48-15.78,3.2,4.77,23.48,15.78-3.2ZM-36.31,308.35l18.32-3.81-2.41-11.58-11.78,2.45-2.14-10.27,49.62-10.32-2.44-11.71-22.16,4.61-4.9-23.53-35.96,7.48,7.33,35.24,2.55-.53,2.14,10.28-.6.12,2.41,11.57h.02ZM-106.96,301.95l-7.83-38.88,27-5.44-1.42-7.05,20.37-4.1,6.22,30.88-20.25,4.08-.06-.31-15.47,3.12,3.09,15.36-11.65,2.35h0ZM-43.1,212.78l-25.23-1.89-1.45,19.3,25.23,1.89,1.45-19.3ZM-359.91,359.92l1.7-59.99,24.8.7-.17,5.93,6.89.2-1.54,54.06-31.7-.9h.02ZM93.03,206.44l-59.24,10.85,4.45,24.27,59.24-10.85-4.44-24.27h-.01Z"/>
      </g>
      <g>
        <path class="st12" d="M174.74,396.94l-1.99-8.52,8.48-1.98,1.99,8.52-8.48,1.98ZM448.14,204.76l-5.08,5.99-6.14-5.2,5.08-5.99,6.14,5.2Z"/>
        <path class="st12" d="M452.87,189.64l-11.01-11.85-11.62,10.79,11.01,11.85,11.62-10.79ZM365.7,116.45l-3.61,5.01-2.26-1.63,3.61-5.01,2.26,1.63ZM87,151.13h-6.55v-2.79h6.55v2.79ZM67.88,140.03l-6.07.03v-2.47l6.05-.03v2.47h.02ZM41.23,88.41l1.07-8.17-6.08-.8-1.08,8.17,6.08.8h.01ZM45.01,199.63h-6.16v-2.49h6.16v2.49ZM68.94,195.65l-6.2-.91-.4,2.75,6.2.91.4-2.75ZM217.79,382.56l-2.44-12.19-12.61,2.52,2.44,12.19,12.61-2.52ZM-33.39,186.08l-6.17-.98.44-2.79,6.17.98-.44,2.79ZM-115.86,171.07l-8.01-2.05-1.53,5.99,8.01,2.05,1.53-5.99ZM-110.14,98.48l.26-6.32,2.84.12-.26,6.32-2.84-.12ZM-116.17,237.55l2.49-5.74-2.58-1.11-2.49,5.74,2.58,1.11h0ZM388.36,167.15l-6.21-.67.28-2.62,6.21.67-.28,2.62ZM494.62,345.4l1.02-7.93-4.07-.52-1.02,7.93,4.07.52ZM333.01,330.2l.95-7.89-4.05-.49-.95,7.89,4.05.49ZM-254.34,212.88l-6.66-.24.22-6.11,6.65.24-.22,6.11h.01ZM-285.77,220.01l-6.65-.38.35-6.13,6.65.38-.35,6.13ZM-330.98,243.61l-9.06,3.96-2.13-4.87,9.06-3.96,2.13,4.87ZM-316.11,391.6l-9.84.17.09,5.3,9.84-.17-.09-5.3ZM-325.39,418.08l.36-6.3-2.85-.16-.36,6.3,2.85.16ZM-381.87,432.7l.67-6.26-2.81-.3-.67,6.26,2.81.3ZM-385.98,439l-3.22,5.3-2.4-1.46,3.22-5.3,2.4,1.46ZM-399.8,437.04l-16.71-1.33-.49,6.19,16.71,1.33.49-6.19ZM-391.34,396.34l.47-6.28-2.8-.21-.47,6.28,2.8.21ZM-63.57,382.84l-1.21-6.39-2.85.56,1.25,6.38,2.81-.55ZM29.37,239.06l-6.26,1,.41,2.56,6.26-1-.41-2.56ZM231.24,262.69l.89-6.26-2.84-.4-.89,6.26,2.84.4ZM228.63,226.49l1.28-8.5-5.75-.86-1.28,8.5,5.75.86Z"/>
        <path class="st12" d="M217.27,223.91l5.99.83.92-6.58-5.99-.84-.92,6.58h0ZM172.91,388.38l8.12-1.9-2-8.56-8.12,1.9,2,8.56Z"/>
      </g>
    </g>
    <path class="st1" d="M54.09,509.84l69.32-91.03,20.09-2.85,30.43-6.61,48.9-8.66,1.59-2.82-5.76-32.37.02-24.93,2.59.64,2.76,1.8,278.01,34.67,15.79-.85-1.24-9.73,8.12-57.81,5.55-43,2.16-10.72-18-2.4.67-25.27,3.05-9.7-.23-10.14,2.58-22.72,9.28-22.63,2.13-5.41,1.77-16.45,4.45-20.13,1.3-26.11-1.35-11.48-13.15-4.5-4.18,3.32-21.97-1.38-.3,5.77-7.8-1.96-8.58-7.35-19.03-2.67-22.55-18.28-9.46-6.11-2.83-8.1,4.14-6.83,2.48-7.49-31.69-19.5-6.83.48-12.6-6.57-3.85-1.8-9.42.87-14.56-11.7-6.87-5.86-9.52-4.39-7.74-.99-18.53,3.97-17.67,19.99-17.31-2.66-12.95-8.29-7.03,4.41-10.27,10.09,4.19,4.41-23.42,30.7-2.93.96-8.74-.46-14.54,4.31-10.71,1.46-12.36-10.62-8.48-5.65-14.18-4.73L63.61-2.19l-20.48-4.5-16.33-2.04-7.92,1.76L-2.34,6.22l-31.44,26.32-17.02,17.3-10.09,12.94-4.69,11.07-6.45,4.46-8.26,2.23-12.43,1.05-20.34-.7-14.74-1.56-47.25-1.14-32.06.91s-6.67,24.07-8.82,36.34c-.82,4.7-1.35,9.46-1.56,14.23-.26,5.73,1.12,11.52.33,17.2-.34,2.41-2.13,6.98-2.13,6.98l-2.2,5.66-4.73,1.04-9.34-1.26-21.02,3.23-16.37-2.64-6.32.28-8.1-1.31-4.3,3.36-4.08,8.79-3.54,2.29-5.46,6.33-10.47,6.67-39.59,21.28-40.16,20.33-37.17,19.8-2.73,2.39-3.04,4.74-5.95,1.42-15.98,19.34.43,14.54-14.72,1.79.55,12.1-1.84,6.49-1.82,104.31,7.3-4.39,2.07,7.28,3.72.32,1.47,3.5-.2,22.24,2.59,2.18,13.9,2.49,8.84.47,20.58-6.3,16.72-1.79,10.93,4.53,77.56,1.61,1.43-15.4,72.2-.83,41.56-8.8s-5.86-15.9-7.68-24.15c-1.3-5.91-2.26-18-2.26-18l1.24-.89,12.73-3.2,10.47-4.48,11.02-.78-1.76-15.28,19.33-2.82,19.18-6.51,2.34-3.72,2.35-1.03,12.62-2.29,16.87-1.18,5.03,21.93,4.44,28.71,26.03-4.06L1.86,369.86l27.77,42.11,9.52,42.75-24.17,24.2,38.49,31.68.63-.82v.06Z"/>
    <g>
      <path class="st8" d="M521.87,206.29c-1.31,1.29-3.25,2.2-5.09,2.13-1.88-.08-4.07-.96-5-2.59-.99-1.75,1.75-4.55.37-6.02-.72-.77-2.14-.3-3.15,0-.92.27-1.47,1.76-2.41,1.57-.92-.18-1.46-1.39-1.57-2.31-.22-1.72,1.46-3.19,1.76-4.9.08-.49-.2-1.03,0-1.48.31-.68.96-1.25,1.67-1.48.86-.28,1.91.73,2.68.28,1.07-.63.63-2.52,1.48-3.42.74-.79,2.12-.71,2.87-1.48,1.35-1.4,1.4-3.67,2.5-5.28,1.09-1.58,3.5-2.3,3.98-4.17.36-1.39-1.57-2.8-1.11-4.17.56-1.67,2.49-3.78,4.17-3.24,2.36.76.14,5.65,2.13,7.13.32.24.9-.26,1.2,0,1.37,1.15,1.03,3.49.93,5.28-.03.55.06,1.41-.46,1.57-1.72.55-2.5-3.73-4.26-3.33-.94.21-.7,1.83-1.3,2.59-.72.93-2.66,1.13-2.68,2.31-.02.72,1.32.81,1.57,1.48.42,1.13.26,2.58-.37,3.61-.44.72-2.26.55-2.13,1.39.28,1.87,4.45-.03,5.46,1.57.8,1.27.1,3.2-.74,4.44-.81,1.19-3.71.78-3.7,2.22,0,1.22,2.77.69,3.15,1.85.5,1.54-.79,3.31-1.94,4.44h-.01ZM519.37,158.06c.58,1.41-1.69,2.54-2.68,3.7-1.22,1.43-2.82,2.5-3.98,3.98-1.18,1.5-1.2,4.18-2.96,4.91-.35.14-.73-.33-1.11-.28-.42.06-.68.65-1.11.65-.99-.02-2.11-.67-2.5-1.57-.2-.46.02-1.05.28-1.48,1.2-2.04,4.37-2.44,5.46-4.54.53-1.02-.35-2.47.28-3.42.54-.82,1.68-1.03,2.59-1.39,1.13-.44,2.31-.87,3.52-.92.75-.04,1.94-.32,2.22.37h-.01ZM507.89,157.88c-.17,1.85-2.08,3.58-3.89,3.98-1.1.24-2.08-1.55-3.15-1.2-1.36.45-1.33,2.57-2.31,3.61-.58.61-1.2,1.42-2.04,1.48-1.6.12-4.04-.64-4.26-2.22-.34-2.51,5.39-2.66,5.55-5.18.09-1.4-2.39-1.87-2.68-3.24-.35-1.62.17-3.6,1.3-4.81.89-.96,2.41-1.13,3.7-1.3,1.2-.16,2.83-.64,3.61.28.44.52-.35,1.38-.19,2.04.64,2.55,4.6,3.96,4.35,6.57h.01ZM531.49,157.88c-.89.2-2.2.3-2.68-.46-1.42-2.24,2.13-5.02,2.13-7.68,0-2.21-2.44-4.29-1.76-6.39.48-1.46,2.08-3.01,3.61-2.87,1.22.11,1.34,2.18,2.41,2.78.49.27,1.2-.04,1.67.28,1.73,1.2,2.73,3.4,3.15,5.46.3,1.49.79,3.82-.56,4.54-1.52.82-3.08-3.08-4.63-2.31-1.52.76,0,3.58-.93,5-.56.84-1.42,1.44-2.41,1.67v-.02ZM537.14,135.94c-1.06.53-2.54-.14-3.42-.93-.99-.88-1.55-2.38-1.48-3.7.07-1.39,2.21-2.33,1.94-3.7-.25-1.27-2.73-1.23-2.96-2.5-.34-1.88,2.92-3.1,2.78-5-.04-.51-.85-.7-.93-1.2-.13-.92.47-1.84,1.02-2.59.96-1.33,2.15-3.1,3.8-3.15,1.76-.05,3.75,1.46,4.26,3.15.24.78-1.15,1.56-.83,2.31.63,1.5,3.81.53,4.44,2.04.28.67-.24,1.52-.74,2.04-1.48,1.52-5.34.28-5.92,2.31-.2.7,1.36,1.03,1.3,1.76-.06.67-1.49.71-1.48,1.39,0,.42.83.43.92.83.58,2.41-.47,5.82-2.68,6.94h-.02ZM540.75,92.35c-.69.46-1.66.91-2.41.55-2.37-1.12-1.83-5.03-3.52-7.03-.47-.56-1.06-1.08-1.76-1.3-1.53-.47-3.28.68-4.81.18-.67-.22-1.02-1.02-1.67-1.3-1.03-.44-2.26-.8-3.33-.46-.65.2-.8,1.37-1.48,1.39-1.25.03-2.7-1.17-2.87-2.41-.1-.7,1.19-1.05,1.2-1.76.02-.76-.97-1.22-1.2-1.94-.15-.47-.34-1.05-.09-1.48.43-.74,1.62-.61,2.31-1.11,1.56-1.13,2.06-4.14,3.98-4.17,1.61-.02,2.97,1.88,3.42,3.42.08.27-.3.57-.18.83.19.41.98.25,1.2.65.33.59-.48,1.48-.09,2.04,1.55,2.24,5.57,4.1,7.77,2.5.72-.53-.37-1.87,0-2.68.58-1.27,1.78-2.46,3.15-2.78,1.68-.39,4.48-.26,5,1.39.84,2.68-6.51,3.92-5.37,6.48.31.7,1.7-.38,2.31.09,1.29.98,1.73,3.03,1.48,4.63-.27,1.73-1.6,3.29-3.05,4.26h.01ZM495.39,86.61c-.64.7-1.83.61-2.78.65-2.28.09-5.1.55-6.76-1.02-.78-.74.2-2.49-.65-3.15-.83-.64-2.12.43-3.15.18-2.02-.48-4.65-1.2-5.37-3.15-.29-.8.99-1.57.83-2.41-.22-1.16-2.28-1.5-2.31-2.68-.05-1.78,2.32-2.73,3.24-4.26.26-.44.19-1.15.65-1.39.47-.24,1.11.54,1.57.28s.05-1.32.56-1.48c.93-.29,1.45,1.48,2.41,1.67,1.09.21,2.15-.94,3.24-.74,1.64.3,2.67,3.53,4.16,2.78,1.1-.55-.69-2.83.19-3.7,1.14-1.13,3.35-.85,4.81-.18,1.52.69,2.73,2.27,3.15,3.89.52,2.03.24,4.59-1.11,6.2-1.14,1.36-4.45.16-5,1.85-.49,1.52,2.32,2.42,2.68,3.98.2.88.24,2.02-.37,2.68h.01ZM471.7,70.13c.22,1.45-.95,2.9-2.04,3.89-.79.72-1.9,1.27-2.96,1.2-1.47-.08-2.83-1.1-3.89-2.13-1.84-1.79-4.46-4.16-3.89-6.66.31-1.34,2.06-2.15,3.43-2.31.88-.11,1.83.33,2.5.92,1.06.94.57,3.45,1.94,3.8.84.21,1.27-1.56,2.13-1.48,1.3.12,2.58,1.48,2.78,2.78h0ZM437.47,73.12c.11.97-.97,1.93-1.9,2.23-.71.23-1.53-.14-2.18-.5-.82-.46-1.13-1.57-1.96-2.01-1.62-.88-4.37.45-5.42-1.06-.39-.56-.07-1.47.34-2.01.68-.9,1.96-1.68,3.07-1.45.68.14.72,1.39,1.4,1.56.42.11.79-.45,1.23-.45.38,0,.86.08,1.06.39.16.25-.18.62-.06.89.37.84,1.24,1.49,2.12,1.73.38.11.79-.27,1.17-.17.45.11,1.07.38,1.12.84h.01ZM428.25,67.31c-.44.64-1.53.92-2.23.61-1.04-.45-.47-2.73-1.57-3.02-.98-.25-1.51,1.64-2.51,1.68-.56.02-1.15-.37-1.45-.84-.36-.57-.29-1.35-.17-2.01.22-1.2,1.44-2.09,1.56-3.3.16-1.52-1.75-3.1-1.06-4.47.97-1.94,3.85-2.98,5.98-2.57,1.4.27,2.66,1.64,3.02,3.02.2.77-.24,1.62-.67,2.29-.37.58-1.31.7-1.56,1.34-.91,2.25,2.05,5.26.67,7.26h-.01ZM437.64,51.11c-1.21,1.29-2.93,2.47-4.69,2.46-2.01-.01-4.78-.91-5.31-2.85-.19-.69,1.32-1.16,1.12-1.84-.34-1.12-2.47-.58-3.18-1.51-1.14-1.49-1.95-3.91-1.01-5.53,1.02-1.76,3.97-2.99,5.75-2.01,1.29.71.99,2.83,1,4.3,0,.88-1.31,2.12-.56,2.57,1.36.82,2.28-2.25,3.63-3.07.5-.3,1.04-.72,1.62-.67,1.18.1,2.4.89,3.02,1.9.45.73.36,1.72.22,2.57-.22,1.32-.7,2.71-1.62,3.69h.01ZM441.94,28.15c-.68,1.79-3.23,2.71-5.14,2.57-2.04-.15-3.84-1.86-5.03-3.52-.93-1.29-1.84-3.07-1.34-4.58.93-2.8,4.25-6.1,7.1-5.31,3.76,1.04,5.79,7.19,4.41,10.84h0ZM420.1,35.8c0,.08-.03.15-.05.22-.35.92-.61,1.97-1.34,2.63-.96.86-2.37,1.61-3.63,1.34-1.43-.31-3.12-1.61-3.13-3.07,0-.42.85-.48.89-.89.11-1.03-1.82-1.6-1.68-2.63.13-.94,1.63-1.09,2.12-1.9.19-.31.04-.78.28-1.06.5-.59,1.36-1.11,2.12-.95.3.06.32.58.61.67.29.09.6-.32.89-.22,1.02.33,1.89,1.4,2.07,2.46.06.36-.41.65-.39,1.01.05.9,1.13,1.51,1.23,2.4h.01ZM414.84,16.13c-.67.3-1.34-.65-2.07-.73-.54-.05-1.13,0-1.62.22-.55.26-.74,1.13-1.34,1.23-1.88.3-4.15-.76-5.2-2.35-.41-.62.51-1.75-.05-2.23-.23-.2-.63.26-.89.11-1.11-.65-1.41-2.29-1.45-3.58-.05-1.63.17-3.78,1.56-4.64,1.97-1.21,5.3-.69,6.87,1.01.91.99-.48,2.91.28,4.02,1.17,1.72,4.89.74,5.64,2.68.55,1.42-.34,3.62-1.73,4.25h0ZM396.46,11.44c-.35.51-.9.97-1.51,1.06-.87.14-1.64-.76-2.51-.78-.67-.02-1.32.71-1.96.5-1.43-.47-2.06-2.23-2.85-3.52-.74-1.2-1.94-2.46-1.73-3.86.16-1.07,1.58-1.52,2.12-2.46.39-.67.33-1.55.78-2.18.69-.97,1.6-2.22,2.79-2.23.58,0,1.17.52,1.4,1.06.26.63-.5,1.37-.28,2.01.55,1.61,3.15,1.95,3.63,3.58.26.9-.76,1.81-.62,2.74.12.81,1.12,1.31,1.23,2.12.09.67-.12,1.4-.5,1.95h.01ZM380.88,2.17c-.04,1.25-2.05,2.06-3.52,2.6-.74.28-1.64.32-2.46.26-1.44-.12-2.89-.52-4.08-1.15-.97-.52-1.99-1.19-2.3-2.05-.29-.82.98-1.72.57-2.51-.11-.22-.61-.21-.73-.43-.48-.86-.07-1.91.39-2.77.51-.96,2.53-1.4,2.51-2.43-.01-.67-1.39-.91-1.68-1.54-.34-.75-.1-1.61.11-2.39.23-.82.63-1.64,1.23-2.35.55-.66,1.17-1.41,2.12-1.71.83-.26,2.07.58,2.68.09.6-.49-.78-1.45-.28-2.01.44-.48,1.62-.08,2.24-.43,2.16-1.21,1.51-5.19,4.19-5.25,1.04-.02,1.07,1.38,1.79,1.96.88.72,2.83.86,3.02,1.83.15.79-1.65,1.17-1.79,1.96-.08.5.71.91.67,1.41-.09,1.25-1.05,2.46-2.18,3.37-.62.5-1.46.9-2.35,1.02-.57.08-1.21-.41-1.73-.21-1.04.38-1.01,1.59-1.68,2.3-.95,1.01-3.53,1.54-3.3,2.77.18.95,2.82.58,3.24,1.49.38.83-1.4,1.62-1.17,2.48.44,1.64,4.53,2,4.47,3.67h0l.02.02ZM390.88,34.01c.15.08.24.25.34.39.26.37.64.72.67,1.17.05.77-.3,1.64-.89,2.12-.38.31-.98.42-1.45.28-.92-.27-1.96-1.05-2.07-2.01-.09-.84.63-1.75,1.4-2.12.6-.29,1.41-.14,2.01.17h-.01ZM324.96-17.68c.41,1.08.49,2.47-.1,3.46-.59.98-2.49.65-2.99,1.68-.59,1.2,1.23,2.81.58,3.98-.73,1.31-2.65,1.62-4.14,1.78-1.02.11-2.3.14-3.04-.58-.35-.34-.03-1.03-.32-1.42-.33-.45-.95-1.06-1.47-.84-1.13.48.01,2.74-.89,3.57-.98.9-3.15-.44-3.93.63-1.18,1.6,1.88,4.22.84,5.93-1.07,1.76-4.4.56-5.82,2.05-.83.87-.99,2.26-1.05,3.46-.06,1.19,1.34,2.52.68,3.51-.69,1.04-2.64.08-3.67.79-.63.43-.57,1.58-1.26,1.89-2.52,1.14-5.72.06-8.23-1.1-1.26-.58-2.56-1.5-3.09-2.78-.49-1.2,1.08-2.92.21-3.88-1.38-1.52-4.25.54-6.14-.26-.42-.18-.59-.74-1-.94-1.22-.62-2.81-1.33-4.04-.73-.3.15-.16.78-.47.89-1.8.65-4.11-.7-5.3-2.2-1.48-1.88-2.97-5.52-1.15-7.08.47-.41,1.23.86,1.78.58,1.22-.63-.05-3.39,1.21-3.93,3.09-1.34,6.04,5.93,9.07,4.46,2.03-.98-.24-5.08,1.42-6.61.79-.73,2.19-.8,3.2-.42,1.7.64,2.77,2.48,3.62,4.09.41.78.6,1.69.63,2.57.03.83-.96,1.83-.42,2.47,1.11,1.31,3.99,1.27,5.14,0,.55-.61-.58-1.7-.26-2.47.72-1.7,2.61-2.81,4.35-3.41.91-.31,2.22.69,2.88,0,.66-.68-.19-1.89-.1-2.83.29-3.1-.59-7.47,2.05-9.12,1.24-.78,3.03.26,4.3,1,.56.32.67,1.46,1.31,1.42,1.92-.14,1.37-4.36,3.25-4.77,1.46-.32,2.34,2.28,3.83,2.31.82,0,1.33-1.25,2.15-1.21,1.23.07,1.82,1.79,2.99,2.15.49.15,1.05-.24,1.52-.05.85.35,1.56,1.14,1.89,1.99h0l-.02-.03ZM268.37-13.74c.02,2.05-1.63,3.92-3.2,5.24-.98.83-2.29,1.48-3.57,1.42-.87-.04-1.69-.59-2.31-1.21-.45-.45-.34-1.37-.89-1.68-1.01-.57-2.4.67-3.46.21-1.71-.74-3.01-2.53-3.57-4.3-.45-1.44-.3-3.16.37-4.51.23-.47.69-.82,1.15-1.05.62-.31,1.42-.06,2.05-.37.61-.3.9-1.09,1.52-1.36,1.94-.86,4.59-1.89,6.35-.68.45.31.02,1.2.42,1.57.25.23.77-.04,1,.21.44.48-.03,1.36.26,1.94.56,1.1,2.12,1.47,2.67,2.57.24.47-.23,1.28.21,1.57.18.12.43-.24.63-.16.21.09.36.35.37.58h0ZM259.77,6.03c.42.58.12,1.69-.47,2.1-.55.38-1.64.31-1.99-.26-.37-.6.09-1.61.68-1.99.5-.33,1.43-.33,1.78.16h0ZM256.73,2.72c-.78,1.83-5.96,1.97-6.26,3.94-.36,2.35,5.93,1.82,5.94,4.19.01,2.47-2.56,5.4-5.04,5.45-.39,0-.45-.77-.84-.84-1.42-.27-2.69,2.38-3.98,1.73-.55-.27-.02-1.32-.42-1.78-.71-.84-2.13-.65-3.04-1.26-.9-.59-1.73-1.35-2.31-2.26-.51-.8-.87-1.73-.94-2.67-.07-.85.1-1.7.47-2.46.66-1.32,1.66-2.62,2.99-3.25,1.2-.58,3.3.88,3.99-.26.35-.58-.95-1.17-.84-1.83.26-1.56,1.74-2.99,3.25-3.46.32-.1.66.27,1,.21.55-.1.86-.94,1.42-.89,1.89.17,3.22,2.21,4.2,3.83.29.48.64,1.11.42,1.63h0v-.02ZM257.94-.89c-.27.43-.75.95-1.26.89-.49-.05-.84-.63-1-1.1-.2-.62-.29-1.52.21-1.94.44-.37,1.26-.23,1.73.1.33.23.42.71.47,1.1.04.32.01.67-.16.94h.01ZM221.12,41.27c-.15.49-.45,1.09-.94,1.21-.55.13-.96-.72-1.52-.73-.42-.01-.78.66-1.15.47-.55-.27-.54-1.17-.47-1.78.09-.86.63-1.63,1.15-2.31.37-.48.76-1.2,1.36-1.21.57,0,1.05.59,1.31,1.1.5.97.58,2.21.26,3.25h0ZM263.66,45.62c-.1-.45-.8-.56-1.26-.58-2.11-.08-5.02.3-5.93,2.2-.4.83.42,1.83.89,2.62.26.45.58.93,1.05,1.15.44.21,1.02.24,1.47.05.85-.35,1.72-1.09,1.89-1.99.05-.28-.36-.51-.32-.79.18-1.14,2.46-1.55,2.2-2.67h.01ZM250.86,54.27c.39.03.7-.5.79-.89.11-.48-.14-1.01-.42-1.42-.21-.31-.54-.81-.89-.68-.51.18-.46,1.04-.37,1.57.09.55.34,1.37.89,1.42h0ZM242.15,55.59c.41-.29.8-.81.73-1.31-.05-.43-.48-.8-.89-.94-.43-.16-1.02-.15-1.36.16-.42.38-.58,1.14-.37,1.68.12.32.51.5.84.58.34.08.76.04,1.05-.16h0ZM276.87,57.16c-.01.09-.09.15-.16.21-.86.73-1.88,1.73-2.99,1.57-.65-.09-1.25-.73-1.42-1.36-.05-.18,0-.42.16-.52.34-.22.92.44,1.21.16.56-.56-.56-1.6-.32-2.36.11-.34.38-.71.73-.79.68-.15,1.46.28,1.94.79.57.59.96,1.5.84,2.31h0ZM261.24,72.63c-.31.33-.85.43-1.31.42-.49-.01-.88-.49-1.36-.52-.32-.02-.63.28-.94.21-1.35-.3-2.69-1.28-3.3-2.52-.22-.44.17-1.01,0-1.47-.24-.66-1.36-.92-1.36-1.62,0-.5.47-1,.94-1.15.41-.14.84.43,1.26.32.64-.18.75-1.44,1.42-1.42.82.02.95,1.37,1.63,1.83.63.44,1.55.36,2.15.84.74.59,1.41,1.43,1.57,2.36.16.92-.04,2.04-.68,2.73h-.02ZM251.8,85.43c-.35.45-1.15.53-1.68.32-.49-.2-.89-.78-.89-1.31,0-.47.36-.96.79-1.15.51-.23,1.29-.2,1.68.21.44.47.51,1.43.11,1.94h0ZM237.8,78.24c.46-.09.46-.9.37-1.36-.08-.39-.35-.83-.73-.94-.2-.06-.44.06-.58.21-.15.17-.21.45-.16.68.13.58.52,1.53,1.1,1.42h0ZM203.45,48.24c-.34.56-1.13.76-1.78.84-1.27.16-3.06.33-3.78-.73-.54-.8.74-1.88.58-2.83-.06-.34-.55-.55-.52-.89.04-.58.53-1.22,1.1-1.36,1.51-.38,3.42.55,4.3,1.83.59.87.65,2.25.11,3.15h0ZM206.55,26.11c.13.28,0,.66-.21.89-.31.35-.86.6-1.31.47-.52-.15-1-.72-1-1.26,0-.42.37-.91.79-1,.63-.14,1.46.3,1.73.89h0ZM195.17,19.09c.22.38.2,1.05-.16,1.31-.22.16-.52-.16-.79-.16-.34,0-.72.4-1,.21-.28-.19-.21-.67-.16-1,.07-.39.2-.92.58-1.05.53-.18,1.25.2,1.52.68h0ZM168.26,44.36c-.75.15-1.28-.93-2.03-1.06-.5-.08-1,.29-1.5.22-.26-.04-.6-.1-.72-.33-.27-.52-.16-1.38.31-1.75.35-.28,1.13.45,1.34.06.1-.19-.42-.31-.39-.53.08-.54.77-.93,1.31-.98.9-.07,1.92.49,2.39,1.25.39.63.3,1.53.06,2.23-.13.37-.37.82-.75.89h-.02ZM144.28,75.25c-.17.18-.45.27-.7.27-.7-.02-1.23-.78-1.92-.83-.62-.04-1.19.65-1.79.5-.29-.08-.54-.35-.63-.63-.18-.56-.15-1.35.3-1.72.38-.32,1.22.45,1.49.03.15-.24-.45-.49-.36-.76.17-.53.92-.69,1.46-.83.54-.14,1.18-.24,1.69,0,.57.28,1.07.87,1.19,1.49.17.85-.14,1.85-.73,2.49h0ZM124,78.43c-.32.63-1.06,1.01-1.72,1.26-.51.19-1.09.2-1.62.13-.51-.07-.94-.49-1.46-.53-.36-.03-.74.36-1.06.2-.31-.15-.4-.59-.46-.93-.13-.65.01-1.34.17-1.99.11-.46.35-.89.53-1.33.17-.41.23-.9.53-1.23.61-.67,1.48-1.25,2.39-1.33.69-.06,1.39.3,1.96.7.58.42,1.04,1,1.33,1.66.17.39.26.85.17,1.26-.1.44-.6.7-.73,1.13-.09.32.15.7,0,.99h-.03ZM100.69,116.88c-.23.75-1.32.94-2.08,1.11-.33.08-.75-.26-1.02-.05-.22.18-.27.58-.14.83.16.3.76.12.93.42.22.39.12,1.01-.19,1.34-.44.48-1.34.74-1.9.42-.46-.27-.11-1.13-.46-1.53-.2-.23-.68-.11-.83-.37-.24-.42.27-.97.14-1.44-.08-.28-.52-.41-.51-.69.03-.5.56-.91,1.02-1.11.28-.12.65.14.93,0,.44-.23.4-1.08.88-1.2.95-.25,1.97.53,2.69,1.2.29.27.67.68.55,1.07h0ZM92.86,114.47c-.12.33-.49.59-.83.65-.54.08-1.21-.12-1.53-.56-.23-.31-.24-.82-.05-1.16.17-.31.59-.42.93-.51.37-.1.85-.29,1.16-.05.43.34.52,1.11.32,1.62h0ZM91.38,123.08c.77.77.99,2.32.42,3.24-.25.4-.87.52-1.34.46-.48-.06-.93-.4-1.2-.79-.43-.61-.68-1.44-.55-2.18.07-.4.32-.85.69-1.02.61-.27,1.52-.2,1.99.28h0ZM67.81,155.96c-.84-.07-1.89.65-2.04,1.48-.19,1.04.89,2.03,1.76,2.64.47.33,1.18.71,1.67.42.74-.45.84-1.71.6-2.55-.26-.9-1.06-1.92-1.99-1.99h0ZM63.32,153.14c.14.42-.09,1-.46,1.25-.41.28-1.09.26-1.48-.05-.22-.17-.28-.52-.23-.79.09-.51.42-1.16.93-1.25.49-.09,1.1.36,1.25.83h-.01ZM148.87,147.35c.29.33.53.83.4,1.25-.14.49-.66.96-1.17.97-.49,0-.71-.71-1.17-.89-.47-.18-1.2.28-1.49-.12-.23-.31.03-.81.24-1.13.3-.45.79-.88,1.33-.93.68-.06,1.4.34,1.86.85h0ZM257.31,127.78c.24.68.4,1.52.08,2.17-.26.53-.86.91-1.43,1.02-.77.15-1.65-.08-2.29-.53-.61-.43-1.35-1.14-1.23-1.88.07-.43.91-.39,1.02-.82.09-.34-.53-.65-.41-.98.15-.42.74-.6,1.19-.61.51-.02.89.56,1.39.61.26.03.53-.26.78-.16.46.17.73.72.9,1.19h0ZM231.29,176.42c-.15.52-.45,1.17-.98,1.31-.62.16-1.29-.34-1.76-.78-.49-.46-1.1-1.14-.94-1.8.23-.98,1.46-1.92,2.45-1.76.62.1.89.93,1.1,1.51.18.47.26,1.03.12,1.51h.01ZM232.15,168.81c.14.41.26.96,0,1.31-.21.29-.67.35-1.02.33-.55-.03-1.22-.23-1.51-.7-.32-.51-.39-1.38.04-1.8.44-.43,1.29-.27,1.84,0,.32.16.54.52.65.86h0ZM230.8,165.66c.2.3.24.69.08,1.02-.15.28-.51.43-.82.49-.39.07-.87.05-1.19-.2-.3-.24-.55-.69-.45-1.06.12-.42.63-.72,1.06-.78.47-.06,1.03.15,1.31.53h.01ZM227.4,163.62c.24.43.57,1.01.33,1.43-.29.49-1.12.74-1.64.49-.85-.42-1.59-1.9-1.02-2.66.34-.46,1.2-.12,1.72.12.26.12.47.36.61.61h0ZM309.21,123.83c.27.58.03,1.4-.39,1.87-.61.69-1.74,1.17-2.61.87-.45-.15-.34-1.02-.78-1.18-.37-.13-.74.41-1.13.35-1.21-.18-2.76-.86-3.05-2.05-.14-.58.82-.97.87-1.57.03-.35-.54-.71-.35-1,.22-.33.79,0,1.18-.09.72-.14,1.41-.9,2.09-.65.66.24.62,1.3,1.13,1.79.85.79,2.56.61,3.05,1.65h-.01ZM323.89,110.81c.01.06-.03.12-.04.17-.18.64-.01,1.61-.61,1.92-.64.33-1.33-.62-2.05-.65-.28-.02-.55.24-.83.17-.44-.11-1.04-.42-1.05-.87,0-.25.58-.23.57-.48-.02-.35-.77-.27-.87-.61-.12-.39.04-1.05.44-1.13.37-.07.4.8.78.83.44.03,1-.39,1.05-.83.04-.44-1.04-.59-.87-1,.19-.44,1.05-.37,1.44-.09.25.19-.06.76.22.92.27.15.6-.45.87-.3.26.14.1.6.22.87.18.4.66.66.74,1.09h-.01ZM322.41,92.25c.32,1.23-.84,2.81-2.05,3.22-.32.11-.64-.46-.96-.35-.64.22-.47,1.44-1.09,1.7-.34.14-.73-.33-1.09-.22-.18.05-.21.37-.39.39-.39.05-.93-.23-1-.61-.26-1.32,1.09-2.93,2.4-3.27.2-.05.37.32.57.26.61-.17.56-1.22,1.09-1.57.36-.24.84-.33,1.26-.26.48.07,1.14.23,1.26.7h0ZM324.85,80.14c-.43-.15-.81-.53-.96-.96-.09-.26.19-.57.09-.83-.34-.81-2-.78-2.05-1.65-.04-.66.85-1.03,1.39-1.39.99-.66,2.12-1.39,3.31-1.35.47.02.98.24,1.26.61.28.36.26.89.26,1.35,0,.71-.1,1.46-.43,2.09-.45.84-1.14,1.63-2,2.05-.26.13-.6.18-.87.09h0Z"/>
      <path class="st8" d="M330.29,76.44c-1.65-.05-3.55-1.7-3.66-3.35-.09-1.33,1.24-2.96,2.57-3.05.58-.04.76.97,1.31,1.18.39.15.85-.08,1.26,0,.65.13,1.51.2,1.83.78.13.23.02.57-.13.78-.42.59-1.48.46-1.92,1.05-.39.52-.05,1.36-.39,1.92-.19.32-.5.71-.87.7h0ZM337.74,69.04c-1.23.82-2.1,3.6-.83,4.36.5.3.77-1.11,1.35-1.09.65.02.8,1.21,1.44,1.31.58.09,1.14-.39,1.61-.74.55-.41,1.35-.88,1.35-1.57,0-.85-1.71-1.06-1.7-1.92,0-.75,1.44-.91,1.52-1.66.06-.52-.29-1.19-.78-1.35-1.24-.4-3.13.38-3.57,1.61-.16.44.9.9.61,1.26-.21.27-.72-.41-1-.22h0ZM346.37,61.59c-1.58-.52-3.84.3-4.66,1.74-.34.59,0,1.42.35,2,.38.63,1.01,1.45,1.74,1.35.71-.09.81-1.18,1.31-1.7.68-.7,2.12-.9,2.27-1.87.09-.6-.42-1.34-1-1.52h-.01ZM340.31,55.18c.75.3.79,1.46.87,2.27.07.65-.04,1.32-.3,1.92-.51,1.14-1.13,2.66-2.35,2.92-.72.15-1.52-.42-1.96-1-.45-.59-.04-1.55-.44-2.18-.37-.59-1.65-.57-1.65-1.26,0-1.36,1.87-2.38,3.22-2.53.43-.05.74.57,1.18.57.53,0,.94-.89,1.44-.7h0ZM387.3,91.47c.45.48.46,1.45.05,1.96-.58.72-1.81.66-2.73.53-.55-.08-.93-.72-1.48-.77-1.56-.12-3.02,2.13-4.45,1.48-.6-.27-1.02-1.21-.76-1.82.53-1.27,2.47-1.74,3.82-1.53.35.05.49.82.81.67.3-.14-.25-.78,0-1,1.18-1.06,3.66-.68,4.73.48h.01ZM382.66,100.89c.56-.04.99.57,1.53.72.45.12,1-.12,1.39.14.38.26.48.8.62,1.24.12.35.26.73.19,1.1-.08.41-.28.91-.67,1.05-.47.17-1.08-.08-1.43-.43-.36-.35-.22-1-.48-1.43-.45-.77-1.93-1.08-1.82-1.96.03-.26.4-.41.67-.43h0ZM414.17,111.69c.02.54-.4,1.17-.91,1.34-.72.24-1.42-.9-2.15-.72-.72.18-.79,1.61-1.53,1.63-.2,0-.37-.24-.43-.43-.13-.4.23-.83.19-1.24-.04-.49-.76-.99-.48-1.39.25-.35.95.26,1.29,0,.23-.17.31-.54.24-.81-.1-.37-.8-.43-.81-.81-.01-.29.28-.66.57-.67.38-.02.43.76.81.81.46.07.78-.73,1.24-.67.77.11,1.47.88,1.67,1.63.07.24-.24.48-.19.72.05.26.47.36.48.62h.01ZM408.91,121.97c.36.3.77.68.81,1.15.02.23-.3.39-.29.62.01.21.34.32.34.52-.02.48-.39,1.08-.86,1.15-.91.14-1.72-.87-2.25-1.63-.33-.48-.1-1.24-.48-1.67-.4-.45-1.23-.3-1.67-.72-.47-.44-1.05-1.11-.86-1.72.07-.23.39-.34.62-.33.29,0,.47.4.76.43.25.02.47-.27.72-.24.53.06,1.15.33,1.39.81.12.24-.23.58-.1.81.34.59,1.34.39,1.86.81h0ZM416.17,129.91c-.33,1.48-2.51,2.35-4.02,2.15-.35-.05-.42-.78-.76-.72-.24.04-.12.55-.34.67-.46.26-1.06-.24-1.58-.14-.4.07-.69.55-1.1.53-.36-.02-.71-.27-.91-.57-.11-.16.01-.41-.1-.57-.2-.29-.82-.19-.91-.53-.13-.48.28-1.07.72-1.29,1.28-.66,2.87.65,4.3.48,1.3-.15,2.43-1.71,3.68-1.34.54.16,1.12.79,1,1.34h.02ZM444.14,123.74c.18.45.19,1.14-.19,1.43-.58.43-1.46-.12-2.15-.33-1.21-.37-2.19-1.44-3.44-1.62-.64-.09-1.28.41-1.91.29-.31-.06-.59-.25-.81-.48-.32-.33-.58-.75-.67-1.2-.08-.44-.17-1.07.19-1.34.62-.46,1.6,0,2.29.33.53.25.76.95,1.29,1.2,1.12.51,2.54-.08,3.68.38.67.27,1.45.67,1.72,1.34h0ZM480,134.36c.43-.31.67-.96.57-1.48-.06-.33-.59-.43-.67-.77-.09-.37.51-.79.29-1.1-.66-.92-2.27-.07-3.39-.24-.68-.1-1.32-.43-2.01-.48-.77-.05-1.76-.32-2.29.24-.54.57.35,1.74-.14,2.34-.91,1.11-3.8-.29-4.16,1.1-.5,1.94,2.39,3.75,4.35,4.16.5.1,1.08-.89,1.43-.53.29.3-.58.75-.48,1.15.18.68.97,1.34,1.67,1.29.97-.06,1.83-1.11,2.06-2.05.2-.81-1.03-1.6-.76-2.39.21-.63,1-.93,1.63-1.15.6-.21,1.39.28,1.91-.1h0ZM390.61,139.41c-.07.95-.55,2.19-1.47,2.45-1.63.47-4.07-.69-4.53-2.33-.29-1.03.74-2.21,1.67-2.73.51-.29,1.19-.15,1.76,0,.71.18,1.43.52,1.92,1.06.38.42.69.99.65,1.55h0ZM382.82,145.74c-1.14.05-1.99,1.21-3.1,1.47-1.24.29-3.21-1.03-3.84.08-.92,1.65,3.06,3.02,2.86,4.9-.05.48-.95.58-.98,1.06-.03.49.4,1.01.86,1.18.26.1.54-.22.82-.16.35.07.54.64.9.61.81-.06,1.53-.87,1.8-1.63.41-1.17-1.62-3.01-.57-3.67.72-.46,1.82.63,2.12,1.43.21.55-.43,1.12-.45,1.71-.03.69-.15,1.58.37,2.04.47.42,1.27.28,1.88.12,1.11-.29,2.38-.85,2.9-1.88.37-.74.22-1.75-.16-2.49-.2-.39-.99-.38-1.02-.82-.02-.28.32-.5.57-.61.56-.24,1.32.33,1.84,0,.71-.45,1.24-1.46,1.06-2.29-.09-.41-.52-.8-.94-.82-1.15-.05-1.64,1.86-2.77,2.04-.55.09-1.13-.22-1.59-.53-.43-.29-.59-.88-1.02-1.18-.44-.31-.97-.59-1.51-.57h-.03ZM364.95,143.04c.52-.33-.12-1.42.37-1.8.35-.27.94.33,1.3.08.61-.41.97-1.4.69-2.08-.18-.44-.98-.27-1.26-.65-.18-.24,0-.64-.16-.9-.27-.43-.74-.74-1.22-.9-.7-.23-1.49.19-2.2,0-.91-.24-1.52-1.53-2.45-1.39-.29.05-.35.51-.61.65-.32.17-.77,0-1.06.2-.53.38-.9,1.06-.94,1.71-.03.49.25.98.53,1.39.39.56,1.35.69,1.55,1.35.13.43-.47.88-.33,1.31.26.78,1.1,1.5,1.92,1.55.67.04,1.05-.96,1.71-1.06.73-.12,1.54.93,2.16.53h0ZM371.84,161.81c.58-1.19-1.87-2.27-1.71-3.59.14-1.2,2.27-1.61,2.29-2.82,0-.51-.44-1.09-.94-1.22-1.13-.31-2.11,1.09-3.26,1.3-1.11.21-2.32.33-3.39-.04-.88-.31-1.9-.84-2.2-1.71-.42-1.2,1.45-2.57.9-3.71-.16-.32-.62-.47-.98-.45-.27,0-.44.33-.69.41-.48.14-1.14-.3-1.51.04-.96.9.54,2.97-.37,3.92-.62.64-2.07-.31-2.65.37-.59.68.25,1.83,0,2.69-.16.53-.94.84-.9,1.39.02.27.53.34.53.61,0,.23-.43.3-.45.53-.02.37.3.73.61.94.24.16.62,0,.86.16.36.24.27,1.01.69,1.1.74.15,1.17-1.01,1.88-1.27.89-.32,1.89-.45,2.82-.29s1.69.88,2.57,1.22c1.06.42,2.12.98,3.26,1.02.91.04,2.26.21,2.65-.61h0ZM354.79,154.63c.4.15.65.64.73,1.06.13.64-.05,1.35-.37,1.92-.18.32-.7.39-.82.73-.14.41.26.84.24,1.27-.02.54-.41,1.01-.45,1.55-.06.89.84,1.87.41,2.65-.41.76-1.59,1.44-2.37,1.06-.35-.17.08-.99-.29-1.14-.71-.29-1.2,1.08-1.96,1.18-.8.11-1.67-.18-2.33-.65-.29-.21-.27-.77-.61-.9-.84-.3-1.68.81-2.57.73-.47-.04-.98-.24-1.26-.61-.38-.49-.43-1.21-.37-1.84.06-.62.88-1.11.73-1.71-.32-1.3-1.92-1.94-3.1-2.57-.46-.25-1.16-.84-1.51-.45-.44.49.9,1.2.74,1.84-.11.42-.62.64-1.02.82-.58.25-1.25.38-1.88.29-.6-.1-1.29-.32-1.63-.82-.15-.21-.16-.53-.08-.77.13-.37.45-.73.82-.86.4-.14.86.3,1.26.16.49-.17,1.16-.58,1.1-1.1-.1-.95-2.09-.65-2.41-1.55-.23-.65.86-1.3.65-1.96-.36-1.16-1.86-1.57-2.9-2.2-1.09-.66-2.47-.84-3.47-1.63-.53-.42-1.2-.92-1.26-1.59-.07-.7.81-1.19.98-1.88.29-1.18.83-2.75,0-3.63-.27-.29-.87-.33-1.18-.08-.45.35-.01,1.18-.29,1.67-.18.32-.49.58-.82.73-.51.25-1.13.45-1.67.29-.6-.18-1.37-.64-1.39-1.27-.02-.51,1.15-.6,1.06-1.1-.12-.63-1.44-.25-1.76-.82-.36-.65-.01-1.53.29-2.2.5-1.13,1.17-2.75,2.41-2.82.85-.05,1.08,1.45,1.88,1.76.77.3,1.7-.31,2.49-.04.54.18.78,1.02,1.35,1.06.77.06,1.24-1.07,2-1.14.37-.04.8.09,1.06.37.6.65.02,1.99.69,2.57.87.75,2.39-.13,3.43.37.52.25.68,1.04,1.22,1.23.68.23,1.51-.66,2.12-.29.17.11.03.47.2.57.44.24,1.04-.59,1.47-.33.25.16-.06.73.2.86.79.39,1.59-1.44,2.41-1.1,1.11.46.16,2.83,1.22,3.39.27.14.65-.44.9-.24,1.03.82.26,2.71-.16,3.96-.15.45-.43.9-.82,1.18-.7.52-2,.05-2.49.77-.72,1.08-.38,2.79.33,3.88.58.9,1.74,1.53,2.82,1.55.79.02,1.5-.58,2.12-1.06.43-.33.53-1.11,1.06-1.22.42-.09.75.49,1.18.53.56.05,1.11-.61,1.63-.41h0l.04-.02Z"/>
      <path class="st8" d="M350.26,153.12c.28.46.04,1.22-.37,1.59-.29.27-.8.28-1.18.16-.55-.17-1.15-.58-1.3-1.14-.11-.42.03-1.02.41-1.23.74-.4,2.01-.11,2.45.61h-.01ZM343.69,133.33c1.07.71.44,2.6.12,3.83-.15.6-.47,1.19-.94,1.59-.51.43-1.22.6-1.88.73-.51.1-1.11.31-1.55.04-.86-.52-1.48-1.7-1.35-2.69.12-.9,1.05-1.52,1.79-2.04,1.11-.78,2.66-2.22,3.79-1.47h.02ZM322.22,193.67c.09.31-.11.7-.37.89-.32.23-.84.27-1.18.07-.39-.22-.72-.75-.63-1.18.07-.34.46-.65.81-.67.54-.03,1.21.37,1.37.89h0ZM388.14,193.85c.15.36.19.9-.1,1.16-.42.37-1.2.26-1.67-.05-.2-.13-.35-.42-.3-.66.1-.54.62-1.13,1.16-1.16.38-.02.76.36.91.71h0ZM383.84,166.87c-.37-.36-1.04-.44-1.52-.25-.31.13-.58.47-.61.81-.03.4.22.85.56,1.06.37.23.91.23,1.31.05.22-.11.39-.31.45-.56.1-.36.07-.85-.2-1.11h.01ZM324.96,310.56c.69.3,1.23,1.07,1.35,1.82.08.49-.09,1.09-.47,1.42-.62.53-1.67.72-2.43.4-.74-.31-1.43-1.15-1.42-1.96,0-.62.6-1.18,1.15-1.48.53-.3,1.26-.45,1.82-.2h0ZM74.69,22.02c.47.05.83.54,1.02.97.16.37.11.82,0,1.21-.18.61-.41,1.43-1.02,1.6-.58.16-1.23-.36-1.6-.82-.36-.46-.65-1.15-.44-1.7.3-.74,1.24-1.34,2.04-1.26h0ZM13.44,68c.16.37.15.86-.05,1.21-.1.18-.33.3-.53.34-.57.12-1.36.2-1.74-.24-.29-.33-.18-.91,0-1.31.2-.46.61-1.01,1.11-1.02.53-.01,1,.54,1.21,1.02h0ZM-19.07,60.49c.28.17.5.55.44.87-.04.19-.25.34-.44.39-.35.09-.83.03-1.07-.24-.22-.26-.33-.77-.1-1.02.26-.29.83-.2,1.16,0h.01ZM-35.31,48.28c.23.21.4.65.24.92-.15.26-.58.33-.87.24-.28-.09-.55-.38-.58-.68-.03-.24.12-.52.34-.63.27-.13.66-.05.87.14h0ZM-22.27,109.72c-.27.12-.44.48-.44.77s.19.6.44.77c.23.16.56.24.82.15.27-.1.48-.39.53-.68.04-.27-.05-.54-.24-.73-.28-.26-.76-.44-1.11-.29h0ZM-24.69,109.29c.17.17.38.39.34.63-.05.29-.39.5-.68.58-.33.09-.81.08-1.02-.19-.15-.21-.02-.54.1-.77.12-.25.31-.54.58-.58.25-.04.5.16.68.34h0ZM-20.25,114.67c.23.13.19.57.06.8-.08.12-.22.2-.36.19-.27-.02-.67-.21-.65-.48.03-.36.64-.69.96-.52h-.01ZM-19.75,112.55c.12.13.17.31.13.48-.05.19-.2.42-.4.44-.15.02-.29-.14-.36-.27-.14-.23-.29-.62-.1-.8.18-.17.55-.02.73.15h0ZM-24.38,133.22c.06.24.07.56-.11.73-.33.3-.95-.15-1.34.06-.15.08-.14.33-.29.4-.21.1-.53.11-.69-.06-.17-.19-.2-.58-.02-.77.16-.17.55.15.71-.02.2-.21-.18-.61-.04-.86.11-.19.36-.26.57-.3.21-.04.45-.05.63.06.29.17.49.44.57.77h0ZM-77,93.09c-.05.62-1.37.88-1.16,1.46.15.41,1.17-.14,1.27.28.13.54-.77.89-1.3,1.05-.41.12-1.04-.47-1.27-.11-.16.25.43.48.44.77.01.33-.11.76-.41.88-.33.13-.74-.13-.99-.39-.22-.22-.31-.57-.33-.88-.02-.25.26-.51.16-.74-.23-.59-1.1-.65-1.54-1.1-.25-.25-.49-.53-.61-.86-.34-.97-.71-2.2-.19-3.09.26-.45.89-.63,1.41-.69.5-.06,1,.14,1.46.33.73.3,1.46.7,2.01,1.27.49.51,1.1,1.12,1.05,1.82h0ZM-88.11,171.92c-.37-.26-.89.22-1.35.22-.27,0-.6-.33-.8-.14-.57.55-.11,1.71.33,2.37.1.15.29.22.47.27.39.12.82.17,1.21.08.43-.1,1.05-.21,1.16-.63.12-.5-.66-.82-.85-1.3-.11-.28.08-.71-.17-.88h0ZM-150.35,104.16c.05.51.04,1.08-.19,1.54-.35.7-.96,1.36-1.69,1.63-.91.33-2,.2-2.89-.19-.37-.17-.5-.7-.88-.85-.6-.24-1.38.31-1.94,0-.53-.29-.8-.93-.97-1.51-.49-1.67-.67-3.62.03-5.2.15-.34.48-.61.82-.75.51-.22,1.11-.21,1.66-.12.94.15,1.84.5,2.63,1.04,1.17.77,2.22,1.81,2.95,3.01.26.43.42.91.47,1.41h0ZM-165.44,76.69c.15,1.04-2.13,1.3-2.1,2.35.02.75,1.31.9,1.6,1.6.25.61.12,1.33,0,1.98-.15.8-.29,1.72-.88,2.29-.42.41-1.22.18-1.66.57-.89.78-.59,2.48-1.54,3.2-.24.18-.59.21-.88.16-1.47-.29-2.71-1.38-3.79-2.41-1.6-1.52-3.14-3.3-3.83-5.39-.25-.77-.46-1.73-.03-2.41.78-1.24,2.54-1.59,3.98-1.85.41-.08.87.26,1.26.09.51-.23.55-1.03,1.03-1.32.57-.34,1.56.19,1.94-.35.3-.41-.41-1.04-.22-1.51.16-.39.59-.7,1-.75.56-.07,1.28.14,1.57.63.4.66-.47,1.55-.25,2.29.1.33.32.74.66.82.43.1.75-.59,1.19-.56.37.02.89.23.94.6h0v-.03ZM-168.96,157.81c-.31.91-1.25,1.81-2.21,1.85-1.43.06-3.26-1.06-3.53-2.47-.16-.87.73-1.7,1.46-2.2.74-.52,1.78-.87,2.65-.62.52.15.89.67,1.15,1.15.37.69.74,1.55.48,2.29h0ZM-183.34,189.34c-.17.47-.6.87-1.06,1.06-.87.36-1.94.33-2.82,0-1.25-.47-2.89-1.32-3-2.65-.05-.6.91-.85,1.15-1.41.47-1.12.17-2.43.44-3.62.29-1.29.15-3.07,1.28-3.75,1.43-.86,4.2-.7,4.94.79.18.36-.26.81-.57,1.06-.53.41-1.51-.02-1.94.48-.64.76.3,2.11-.22,2.95-.14.22-.64.14-.66.4-.07.96,1.8.96,2.25,1.81.45.85.55,1.97.22,2.87h0ZM-208.78,158.56c-.53.64-1.43.93-2.25,1.06-.56.09-1.11-.23-1.68-.22-.36,0-.71.25-1.06.18-1.16-.23-1.85-2.17-3-1.9-.39.09-.32.76-.62,1.01-.25.22-.59.39-.93.4-.52,0-1.14-.12-1.46-.53-.18-.23.14-.69-.09-.88-.49-.42-1.47-.35-1.94.09-1.08,1,.49,3.31-.53,4.36-.76.78-2.16.73-3.22.49-1.02-.23-1.94-.95-2.6-1.76-.71-.88-1.34-2.01-1.28-3.13.06-1.05.66-2.15,1.5-2.78.64-.48,1.54-.55,2.34-.49.61.05,1.17.95,1.72.66.43-.22.11-.99.35-1.41.56-.95,1.33-2.14,2.42-2.25.34-.04.54.54.88.53.58,0,.89-.85,1.46-.97,1.4-.31,3.38-.48,4.23.66.45.61-.86,1.73-.31,2.25.36.34.96-.35,1.46-.31,1.41.11,2.94.53,3.97,1.5.57.53.91,1.34.97,2.12.04.45-.06.97-.35,1.32h.02ZM-236.56,143.22c-.11.62-.37,1.26-.79,1.72-1.08,1.17-2.56,2.36-4.15,2.34-1-.02-1.9-.8-2.56-1.54-.5-.57-.99-1.32-.93-2.07.05-.67.88-1.05,1.1-1.67.23-.64-.18-1.48.22-2.03.5-.69,1.48-.99,2.34-1.06,1.55-.11,3.51.08,4.5,1.28.65.79.44,2.04.27,3.04h0ZM-253.6,167.63c.27.39.27,1.06-.04,1.42-.33.38-1.04.48-1.5.26-.48-.23-.89-.86-.79-1.39.08-.42.59-.72,1.01-.79.46-.07,1.05.1,1.31.49h0ZM-270.37,188.22c0,.44-.23.99-.64,1.16-.45.18-.91-.5-1.39-.41-.23.05-.33.38-.56.45-.36.11-.87.2-1.12-.08-.39-.42-.32-1.27.04-1.72.29-.36.96-.08,1.35-.34.23-.15.24-.55.49-.67.3-.15.72-.14,1.01.04.5.32.83.98.82,1.57h0ZM-258.69,216.82c-.13-.52-.82-.88-1.35-.86-.39.02-.75.37-.94.71-.18.34-.31.86-.08,1.16.34.44,1.14.54,1.65.3.45-.21.84-.83.71-1.31h.01ZM-264.94,219.17c.22-.5.06-1.37-.45-1.57-.31-.12-.69.23-.86.52-.13.21.16.6-.04.75-.34.25-.84-.46-1.23-.3-.45.18-.83.75-.79,1.23.04.44.48.82.9.97.48.18,1.21.21,1.53-.19.19-.23-.22-.64-.08-.9.18-.33.86-.18,1.01-.52h0ZM-197.81,239.47c-.28.82-1.06,1.67-1.93,1.76-1.03.11-2.13-.71-2.68-1.59-.48-.76-.59-1.85-.25-2.68.25-.61.86-1.17,1.51-1.26,1.07-.14,2.28.49,2.93,1.34.5.65.69,1.65.42,2.43h0ZM-204.27,247.94c.04.77-.57,1.59-1.26,1.93-.63.31-1.43.05-2.1-.17-.81-.27-1.64-.68-2.18-1.34-.57-.69-1.15-1.65-.92-2.52.12-.46.62-.83,1.09-.92,1.39-.27,2.86.53,4.03,1.34.59.41,1.31.96,1.34,1.68h0ZM-221.12,240.89c.42-.34.44-1.06.34-1.59-.29-1.46-1.03-3.83-2.52-3.69-.49.05-.49.86-.59,1.34-.09.41.15.87,0,1.26-.2.5-1.17.65-1.09,1.17.07.45.73.61,1.17.67.46.06.95-.58,1.34-.33.34.21-.06.92.25,1.17.28.23.81.23,1.09,0h0ZM-166.78,275.61c.15.96-.1,2.25-.92,2.77-.89.55-2.42.37-3.1-.42-.44-.51.58-1.67,0-2.01-.35-.21-.86.25-1.09.59-.49.72.41,2.15-.34,2.6-1.15.69-2.79-.51-3.77-1.43-.25-.23-.11-.79-.42-.92-.8-.33-1.57.97-2.43.92-1.35-.07-2.9-.69-3.61-1.85-.34-.55-.16-1.3,0-1.93.26-1.02.55-2.33,1.51-2.77.83-.38,1.78.7,2.68.59.99-.12,1.73-1.05,2.68-1.34,1.4-.43,3.1-1.33,4.36-.59,1.27.75.31,3.39,1.59,4.11.42.24.98-.43,1.43-.25.74.3,1.3,1.14,1.42,1.93h.01ZM-187.66,256.91c.3.83-.24,1.86-.84,2.52-.37.41-.96.68-1.51.67-.96-.02-2.1-.44-2.6-1.26-.58-.96-.59-2.47.08-3.35.35-.46,1.1-.58,1.68-.5,1.23.16,2.76.76,3.19,1.93h0ZM-124.15,185.67c.31.27.66.76.49,1.14-.2.46-.95.65-1.43.49-.51-.16-.79-.78-.94-1.29-.08-.29-.19-.72.05-.89.52-.37,1.35.12,1.83.55h0ZM-130.58,194.77c.3.1.62.38.64.69.04.5-.34,1.2-.84,1.24-.42.03-.67-.56-.84-.94-.11-.24-.26-.58-.1-.79.23-.31.77-.32,1.14-.2h0ZM-134.49,205.16c.4.41.69,1.22.35,1.68-.24.32-.81.21-1.19.1-.48-.14-1.07-.41-1.19-.89-.11-.45.18-1.04.59-1.24.45-.21,1.09,0,1.43.35h.01ZM-128.4,193.63c.18.2.27.59.1.79-.19.23-.65.22-.89.05-.3-.22-.56-.82-.3-1.09.26-.27.84-.03,1.09.25h0ZM-7.35,300.86c-.17.05-.2.32-.36.39-.24.11-.55-.08-.78.04-.31.16-.67.47-.64.82.03.27.53.27.6.53.06.2-.26.41-.18.6.25.58,1.07.79,1.71.85.32.03.69-.04.92-.25.27-.24.39-.64.39-.99,0-.6-.21-1.26-.64-1.67-.26-.25-.68-.41-1.03-.32h0ZM-1.28,305.08c-.34.04-.76.11-.96.39-.38.53-.49,1.42-.11,1.95.28.39.91.43,1.39.39.58-.04,1.4-.16,1.6-.71.23-.66-.39-1.47-.96-1.88-.26-.19-.64-.18-.96-.14h0ZM11.13,328.89c.02.32-.23.71-.53.82-.45.16-1.06-.07-1.39-.43-.19-.21-.2-.54-.18-.82.02-.22.09-.46.25-.6.19-.17.5-.29.75-.21.53.15,1.06.69,1.1,1.24h0ZM7.96,327.79c.2.34.12.83-.07,1.17-.35.62-1.06,1.28-1.78,1.21-.35-.03-.59-.43-.75-.75-.17-.35-.29-.81-.14-1.17.22-.55.8-1.03,1.39-1.1.49-.06,1.1.21,1.35.64ZM16.88,338.7c-.05.35-.59.5-.64.85-.03.25.35.46.28.71-.12.46-.63.88-1.1.89-.3,0-.55-.29-.71-.53-.14-.21-.26-.5-.18-.75.1-.3.67-.29.75-.6.07-.27-.29-.5-.32-.78-.03-.32-.09-.77.18-.96.37-.27.99-.1,1.35.18.28.22.44.64.39.99h0ZM37.96,337.5c.39-.11.86.21,1.1.53.29.38.43.97.25,1.42-.15.37-.56.68-.96.71-.32.03-.62-.21-.85-.43s-.48-.53-.46-.85c.03-.55.39-1.24.92-1.39h0ZM36.82,339.88c.4.13.84.54.82.96-.02.28-.33.51-.6.57-.38.09-.87-.05-1.1-.36-.19-.26-.23-.71-.03-.96.19-.25.62-.31.92-.21h-.01ZM44.96,335.22c.19.31.09.79-.11,1.1-.32.5-.94.96-1.53.89-.4-.05-.74-.47-.85-.85-.1-.34.04-.73.21-1.03.17-.3.44-.62.78-.68.53-.09,1.21.12,1.49.57h0ZM83.67,377.33c.41.03.79.4.97.76.15.3.21.72.03,1s-.58.42-.91.38c-.4-.04-.79-.36-1-.71-.15-.24-.24-.59-.12-.85.17-.35.64-.62,1.03-.59h0ZM85.11,374.15c.08.31-.1.73-.38.88-.15.08-.36,0-.5-.09-.26-.18-.49-.5-.5-.82,0-.27.12-.65.38-.71.4-.09.89.34,1,.73h0ZM81.06,370.69c.13.24.16.63-.03.82-.2.2-.6.19-.85.06-.22-.12-.42-.4-.38-.65.04-.29.36-.55.65-.59.23-.03.5.15.62.35h-.01ZM-5.22,329.88c.09.45-.06,1.1-.48,1.28-.53.23-1.36-.12-1.6-.64-.3-.66.02-1.89.72-2.04.64-.14,1.23.76,1.36,1.4h0ZM-10.02,323.48c.1.46.08,1.05-.24,1.4-.26.28-.77.44-1.12.28-.47-.22-.69-.88-.68-1.4,0-.32.16-.69.44-.84.39-.21.94-.07,1.32.16.14.09.24.24.28.4h0ZM-175.08,298.52c.59.24,1.05.79,1.35,1.35.27.51.33,1.12.34,1.69s.09,1.26-.28,1.69c-.37.44-1.06.58-1.64.56-.93-.02-2.02-.29-2.6-1.02-.57-.71-.68-1.84-.4-2.71.23-.71.89-1.29,1.58-1.58.53-.21,1.11-.21,1.64,0h0v.02ZM-183.53,368.37c1.35.53,2.27,2.1,2.55,3.52.16.77-.04,1.7-.54,2.3-.8.97-2.55.66-3.43,1.55-.41.41-.27,1.22-.71,1.59-.32.27-.8.36-1.21.29-.53-.08-.86-.7-1.38-.84-.47-.12-.98.1-1.47.04-1.1-.12-2.56.05-3.22-.84-.23-.31-.1-.81.04-1.17.73-1.83,3.31-2.56,3.9-4.44.21-.68-.42-1.44-.25-2.13.17-.72.57-1.48,1.21-1.84.67-.38,1.57-.3,2.3-.08.47.14,1.09.36,1.22.84.15.55-1.06,1.1-.71,1.55.36.46,1.17-.55,1.72-.34h-.02ZM-219.01,338.3c.1,1.14-1.31,1.9-2.18,2.64-.81.69-1.72,1.77-2.76,1.59-1.1-.19-1.13-2.17-2.18-2.55-.24-.09-.52.22-.75.13-.24-.1-.49-.37-.46-.63.04-.35.44-.66.8-.71s.64.53,1.01.46c1.02-.19,1.22-1.83,2.18-2.22.89-.37,1.99-.3,2.89.04.6.23,1.41.62,1.47,1.26h-.02ZM-247.16,342.18c.41.11.72.66.69,1.08-.03.34-.36.66-.69.76-.28.09-.58-.29-.87-.22-.24.06-.3.48-.54.51-.36.04-.8-.21-.94-.54-.24-.59-.1-1.66.51-1.84.37-.11.49.71.87.76.36.04.62-.6.97-.51h0ZM-254.65,391.39c.89.57,1.3,2.17.76,3.07-.2.33-.74.33-1.12.28-.45-.06-.92-.31-1.2-.68-.21-.27.05-.82-.24-1-.22-.13-.5.2-.76.2s-.54-.05-.76-.2c-.29-.2-.6-.52-.6-.88,0-.68.54-1.4,1.16-1.68.38-.17.9-.08,1.24.16.28.2.17.77.48.92.32.15.74-.39,1.04-.2h0ZM-295.02,218.24c.41.16.77.67.72,1.11-.06.54-.62,1.09-1.16,1.16-.57.08-1.29-.33-1.5-.87-.13-.33.08-.77.34-1.02.4-.37,1.09-.59,1.6-.39h0ZM-434.03,424.86c-.21.54-.91.83-1.49.92-.6.1-1.24-.13-1.77-.42-.87-.48-1.82-1.15-2.13-2.09-.26-.79-.09-1.79.39-2.48.47-.68,1.33-1.3,2.16-1.24.69.05,1.24.71,1.63,1.28.79,1.16,1.7,2.73,1.21,4.04h0ZM-379.8,415.12c.51.45.66,1.28.62,1.96-.03.62-.18,1.46-.75,1.69-.45.18-.87-.44-1.34-.56-.46-.12-1.03.11-1.42-.16-.46-.31-.71-.91-.78-1.45-.05-.4-.1-1.02.27-1.18.23-.11.42.41.67.38.46-.07.53-.85.97-.99.57-.18,1.32-.07,1.77.32h-.01ZM-383.92,415.11c.14.22.18.59.02.79-.18.22-.61.32-.83.15-.2-.15-.16-.53-.05-.75.09-.2.28-.34.5-.37.15,0,.29.06.37.18h0ZM-370.46,375.64c.48.24.78.81.92,1.33.26.95.36,2.15-.22,2.95-.28.39-.85.58-1.33.55-1.02-.05-2.06-.64-2.69-1.44-.51-.65-1.26-1.87-.63-2.4.26-.22.6.55.92.44.48-.16.27-1.09.7-1.36.65-.41,1.63-.42,2.32-.07h.01Z"/>
    </g>
    <path class="st2" d="M73.76,480.27l-20.57,27.09-34.98-28.56,23.87-23.32,31.67,24.79h.01Z"/>
    <circle class="st11" cx="-135.5" cy="209.79" r=".5"/>
    <g>
      <path class="st9" d="M74.06,362.26l1.34-.24-1.23-6.64-1.32.24,1.21,6.64h0ZM479.92,345.17l-3.4-.36.15-1.45,3.4.35-.15,1.45h0ZM468.43,337.31l-3.19-.35.28-2.85,3.19.35-.28,2.85ZM425.18,330.72l-2.35-.3.61-4.87,2.35.3-.61,4.87ZM411.3,328.81l-2.29-.29.6-4.75,2.29.29-.6,4.75ZM420.01,283.32l5.75.77-.38,2.72-5.75-.77.38-2.72ZM421.91,270.84l5.29.73.37-2.66-5.29-.73-.37,2.66ZM189.82,267.97l-.75,5.04-5.65-.86.75-5.04,5.65.86ZM190.55,263.28l-.65,4.24-5.65-.86.65-4.24,5.65.86ZM62.9,345.36l-6.46,1.26.65,3.58,6.46-1.26-.65-3.58ZM68.28,311.31l4.84-.98.67,3.67-4.84.98-.67-3.67ZM-47.33,371.36l4.17-.88.62,3.08-4.17.88-.62-3.08ZM-32.11,297.65l-.32-1.53-3,.62.32,1.53,3-.62ZM-334.6,319.95l-5.94-.19-.08,3,5.94.19.08-3ZM96.01,68.06l4.26.64-.36,2.42-4.26-.64.36-2.42ZM35.92,52.29l.35-2.55-4.19-.57-.35,2.54,4.19.57h0ZM41.18,66.38l-8.02-1.11-.27,1.92,8.02,1.11.27-1.92ZM47.3,23.63l-7.89-1.09-.26,1.89,7.89,1.1.26-1.89h0ZM100.94,41.2l-7.23-.98-.23,1.73,7.23.98.23-1.73ZM90.39,226.13l5.13-.94.81,4.42-5.13.94-.81-4.42ZM-60.33,215.51l-3.51-.23-.31,4.74,3.51.23.31-4.74ZM443.17,261.82l-.71,4.65-2.61-.38.7-4.65,2.62.38ZM210.71,242.82l-1.48-.23-.5,3.28,1.48.23.5-3.28ZM493.76,345.16l-2.13-.29.96-7.09,2.13.29-.96,7.09ZM332.35,330.21l-2.48-.3.86-7.3,2.48.3-.86,7.3ZM206.63,252.13c.24,2.25-1.8,2.94-1.03,7.36.25,1.44-3.57.7-3.41-.48.28-2.19,1.08-4.69,1.03-7.36-.02-1.26,3.27-.84,3.41.48h0ZM195.98,294.25c-.83-.24-.99-3.23-.3-5.15.7-1.94,2.54-1.35,3.07-.18.96,2.1,1.15,4.58.29,5.15-.66.44-1.57.62-3.07.18h.01ZM-55.58,352.21l4.74-.96-.29-1.43-4.74.96.29,1.43Z"/>
      <path class="st9" d="M81.03,355.47l-10.94,2.09.32,1.74,10.94-2.09-.32-1.74ZM174.65,391.96l1.77-.41-1.34-5.73-1.77.41,1.34,5.73Z"/>
    </g>
    <g>
      <path class="st11" d="M206.24,307.1l.02-.13.02-.13.53.08.53.08,1.81-12.19-4.02-.61.02-.13.02-.13,4.02.61.19-1.21.19-1.22-5.01-.72.29-1.88.29-1.88.13.02.13.02-.27,1.75-.27,1.75,4.74.68.79-5.16,1.08-6.69-2.7-.41-2.04-.27-.29,1.81-.29,1.81h-.24l.3-1.96.3-1.96,2.17.29,2.83.43.18-1.17.18-1.16-2.01-.31-2.01-.31.02-.13.02-.13,2.01.31,2.01.31.78-5.73-6.08-.93-2.16-.32.04-.27.04-.26,1.47.22.52-3.39.36-2.24,1.7.27,1.7.28v.24l-1.59-.24-1.59-.24-.34,2.11-.5,3.25,3.25.5,3.26.5.5-3.25.34-2.11-.48-.07-.48-.07.02-.13.02-.13.48.07.48.07,2.3-14.79-3.12-.48-3.12-.48.55-3.39-1.54-.24.13-.86-.61-.09-.66-.1.1-.66.1-.66.66.1.61.08.17-1.09,1.52.24.03-.15.3.05-.11.7,1.45.22,1.65.25.11-.7.27.04-.11.7.46.07-.04.27-.65-.1-3.18-.49-.58,3.63-.33,1.95,2.99.46,2.99.46.33-1.95.59-3.63-.71-.11.04-.27.71.11.05-.25h.12l.11.03.2-1.3-.13-.02-.13-.02.1-.65.03-.21-1.4-.21-1.21-.18-.08.54-.27-.04.08-.54-1.65-.25-1.45-.22-.08.53-.26-.04.08-.54-2.38-.36-3.32-.53.02-.13.02-.14-2.78-.42-2.78-.43-.02.14-.02.13-5.07-.75-6-.92-2.01,13.17-1.82,11.32,3.35.52,3.17.5-.03.33-.37-.06-.53-.08-.31,2.08-.89-.12-.89-.12-.1.63-.23,1.5,2.88.44,3.08.51.18-1.37.12.03.12.03-.15,1.35,3.12.46.95.15-.03.12-.04.26-.95-.14-.95-.15-.76,4.95-.76,4.95-.13-.02-.13-.02.31-2.11.31-2.1-.51-.09-1.78-.29.02-.13.05-.43,1.8.28.53.08.38-2.4.41-2.7-1.98-.3-4.35-.69-.21,1.37-.21,1.38-.89-.12-.89-.12-.21,1.31-.18,1.01,4.3.62-.08.46v.12l-8.16-1.16-2.45,16.6-2.03,13.28,4.81.74,7.25,1.1.32-2.07.32-2.07.12.04.11.04-.3,2.05-.3,2.05,4.89.76,7.33,1.12-.02.13-.02.13,1.48.23,1.48.22-.03-.06ZM189.09,298.96l-.13-.02-.13-.02,1.48-9.66,1.48-9.66.1.02h.1l.03.05.03.04-1.47,9.62-1.47,9.62h-.02ZM197.44,294.5c-.42,0-.89-.09-1.46-.25-.83-.24-.99-3.23-.3-5.15.7-1.94,2.54-1.35,3.07-.18.96,2.1,1.15,4.58.3,5.15-.41.28-.92.45-1.61.43h0ZM194.62,264.56l-.13-.02-.13-.02.04-.36.04-.36-.52-.09-.23-.05.02-.13.02-.13.34.05.63.1.03.04.03.04-.07.46-.07.47h0ZM212.54,262.64l-2.69-.41,1.25-8.2,2.62.4.03.04.03.04-1.24,8.13h0ZM212.31,262.34l1.16-7.6-.03-.04-.03-.04-2.09-.32-1.17,7.67,2.16.33h0ZM206.29,262.17l-.66-.1-.66-.1.1-.66.1-.66.66.1.66.1-.1.66-.1.66ZM194.86,260.42l-.66-.1-.66-.1.1-.66.1-.66.66.1.66.1-.1.66-.1.66ZM204.59,260.29c-.89.04-2.53-.54-2.4-1.27.44-2.48,1.14-5.62,1.03-7.36-.07-1.15,3.34-.67,3.41.48.12,1.98-1.83,3.49-1.03,7.36.13.61-.58.78-1.01.79h0ZM207.16,256.45l-.66-.1-.66-.1.1-.66.1-.66.66.1.66.1-.1.66-.1.66ZM195.74,254.7l-.66-.1-.66-.1.1-.66.1-.66.66.1.66.1-.1.66-.1.66ZM208.04,250.74l-.66-.1-.66-.1.1-.66.1-.66.66.1.66.1-.1.66-.1.66ZM196.61,248.99l-.66-.1-.66-.1.1-.66.1-.66.66.1.66.1-.1.66-.1.66ZM197.48,243.28l-.66-.1-.66-.1.1-.66.1-.66.66.1.66.1-.1.66-.1.66ZM388.22,164.88l-5.72-.61-.23,2.13,5.72.61.23-2.13ZM86.6,148.72h-6.05v2.29h6.05v-2.29ZM67.48,139.91v-1.97l-5.57.02v1.97l5.57-.02h0ZM41.87,80.59l-5.58-.73-1.01,7.67,5.58.73,1.01-7.67ZM-107.45,92.65l-2.33-.1-.24,5.82,2.33.1.24-5.82h0ZM-116.31,171.37l-7.53-1.93-1.41,5.5,7.53,1.93,1.41-5.5ZM-33.38,183.63l-5.68-.9-.36,2.3,5.68.9.36-2.29h0ZM-64.01,382.77l-1.11-5.9-2.36.46,1.15,5.89,2.32-.45h0ZM175.54,395.88l1.8-.45-.07-.31.37-.1.07.31,4.57-1.11-1.66-7.1-4.57,1.11,1.36,5.79-.37.1-.61-2.61-1.8.45.91,3.91h0ZM29.34,241.54l-.33-2.07-5.77.92.33,2.07,5.77-.92ZM44.61,197.52h-5.66v1.99h5.66v-1.99ZM365.2,116.63l-1.85-1.34-3.32,4.6,1.86,1.34,3.31-4.6Z"/>
      <path class="st11" d="M426.25,265.34l-.44,3.17-2.77-.38-1.46-.2.44-3.17.41-2.93,1.46.2,2.77.38-.41,2.93ZM428.39,259.48l-.41,2.97-3.02-.42-2.52-.35.41-2.97.38-2.73,2.52.35,3.02.42-.38,2.73Z"/>
      <path class="st11" d="M440.19,258.26v.06l.34.05.34.05-1.06,7.66.21.03.04-.3.04-.3.85.12.5.09.19-1.41.19-1.4-.51-.09-.85-.12.12-.84.06-.37,1.64.23.96.15-.04.22h.07l.07.02-.1.72-.1.72h-.07l-.07-.02-.32,2.27-.34,2.49-1.05-.16-1.74-.24-2.28,16.46-2.28,16.46-2.99-.41-2.99-.41.83-6.01.83-6.01h-.07l-.07-.02-.83,6.01-.83,6.01-6.01-.83-5.51-.76,1.46-10.59,1.46-10.59-.06-.02-.06-.02.16-1.14.16-1.14h.07l.07.02.47-3.42.47-3.42.46.07.96.13-.24,1.74-.12.94,2.26.31,2.26.31v-.12l.17-1.15-1.12-.15-1.12-.15.08-.59.11-.83.98.13.98.13.09-.62.09-.62h-.11s-.08.54-.08.54l-.08.55-1.01-.14-.19-.03.19-1.4.26-1.88.19.03,1.01.14-.13.89-.06.41h.05l.09.02.09-.62.09-.62.6-4.35.6-4.35,2.91.4,2.91.4-.83,6.02-.83,6.02h.07l.07.02.83-6.02.83-6.02,1.71.24,1.71.24v-.07l.07-.29,1.87.26-.05.29h0ZM421.7,277.4l-.37,2.67h.07l.07.02.37-2.67.37-2.67h-.07l-.07-.02-.37,2.67ZM420.7,284.86l-.18,1.3,1.13.16,1.13.16.06-.37.12-.85,1.12.15,1.12.15.13-.92.09-.56-2.24-.31-2.25-.31-.21,1.42-.02-.02Z"/>
      <path class="st11" d="M278.53,174.64l-1.78-.21.17-1.33,1.78.21-.17,1.33ZM281.23,168.89l-.55,4.5-3.73-.45.55-4.5,3.73.45Z"/>
      <path class="st11" d="M274.19,191.67l.24-2,1.73.2v.06l-.04.23,1.25.15.03-.22v-.07l1.25.15.26-2.19.19-1.6-.3-.04v-.06l.02-.08.3.04.62-5.1.54-4.52-2.3-.28v-.07l.02-.07,2.3.28.16-1.49-.44-.05.02-.13.43.05.17-1.33-1.8-.22-.17,1.33.41.05-.02.13-2.73-.33v-.07l.02-.07.13.02.13.02.74-5.98-1.62-.2-.49,3.87h-.07l-.07-.02.49-3.87-3.77-.49-.74,5.98,3.77.49.12-.99h.06l.07.02-.12.99.13.02.13.02v.14s-4.17-.54-4.17-.54l-.2,1.83-.26,2.12h-.07l-.07-.02-.14,1.14-.14,1.14h.14s-.27,2.23-.27,2.23l-.34,2.8,5.82.74v.08l-.02.06-5.82-.74-.32,2.6-.38,3.18,2.57.35,2.59.32h.03ZM277.77,186.22l-1.16-.14v-.07l.02-.08,1.16.14v.09l-.02.05h0ZM62.38,31.15l-.42,3.02-.55-.07-.55-.07v.04l-.02.04.55.08.55.08-.21,1.49-.21,1.49-.55-.07-.55-.07v.1s.54.08.54.08l.55.08-.42,3.02-.42,3.02-1.48-.2-1.48-.2.42-3.02.42-3.02.54.08.54.08v-.06l.02-.06-2.69-.37-2.69-.37v.06l-.02.06.55.08.55.08-.42,3.02-.42,3.02-1.48-.21-1.48-.21.41-3.02.41-3.02.55.08.55.08v-.06l.02-.06-1.15-.16-1.15-.16v.06l-.02.06.55.08.55.08-.42,3.02-.42,3.02-1.48-.2-1.48-.2.42-3.02.42-3.02.55.08.55.08v-.06l.02-.06-.6-.08-.6-.08-.43,3.08-.43,3.08-3.08-.43-3.08-.43-.08.59-.08.6h.1s.08-.54.08-.54l.08-.55,3.02.42,3.02.42-.21,1.48-.21,1.48-3.02-.41-3.02-.41.08-.55.08-.55h-.06l-.06-.02-.16,1.17-.16,1.16h.1s.08-.54.08-.54l.08-.55,3.02.42,3.02.42-.2,1.48-.2,1.48-2.29-.31-2.28-.31v.05l-.03.05,2.29.32,2.29.32-.21,1.48-.21,1.48-3.02-.41-3.02-.41.21-1.49.21-1.49.36.05.36.05v-.06l.02-.06-.36-.05-.36-.05.08-.55.08-.55h-.08s-.13.83-.13.83l-.13.84-.18,1.3-.18,1.3,3.08.43,3.08.43-.05.35-.05.35.38.05-.21,1.53-.38-.06-.05.36-.05.36-1.52-.21-1.3-.18-.91.68-.91.68-.02.21-.02.21h.1s.03-.18.03-.18l.03-.19.85-.65.85-.65,1.29.18,1.51.21-.21,1.48-.2,1.48-2.26-.31-2.04-.28.02-.14.02-.14h-.06l-.06-.02-.02.15-.02.15-.99-.14-.76-.11-.08.6-.08.6h.1s.08-.54.08-.54l.08-.55,3.02.42,3.02.42-.21,1.48-.21,1.48-3.02-.41-3.02-.41.08-.55.08-.55h-.06l-.06-.02-.37,2.69-.37,2.69h.06l.06.02.08-.55.08-.55,3.02.42,3.02.42-.2,1.48-.2,1.48-3.02-.42-3.03-.42.08-.55.08-.55h-.06l-.06-.02-.08.55-.08.55-.54-.08-.34-.05-.06.35-1.3-.19.06-.35-.22-.02-.55-.08.08-.55.08-.55h-.1s-.08.54-.08.54l-.08.55-3.03-.42-3.03-.42.21-1.48.21-1.48,3.03.42,3.02.42-.07.55-.07.55h.1s.04-.31.04-.31l.04-.32.1-.83.1-.83h-.08s-.08.54-.08.54l-.08.55-3.02-.42-3.02-.42.21-1.49.21-1.49,3.03.42,3.02.42-.08.55-.08.55h.1s.09-.57.09-.57l.09-.58.07-.57.07-.57h-.1s-.08.54-.08.54l-.08.55-3.02-.42-3.02-.42.2-1.48.2-1.48,3.03.42,3.02.42-.08.55-.08.55h.1s.08-.55.08-.55l.08-.57.21-1.58.21-1.58-1.23-.17-1.23-.17.11-.76.11-.76-1.07-.15-1.07-.15.1-.73.1-.73,2.3.32,2.3.32.43-3.09.43-3.09.08-.59.08-.58h-.1s-.08.54-.08.54l-.08.55-.36-.05-.36-.05v.1s.35.05.35.05l.36.05-.42,3.02-.42,3.02-3.02-.42-3.02-.42.21-1.48.21-1.48,2.29.31,2.28.31v-.1s-2.28-.32-2.28-.32l-2.29-.32.21-1.49.21-1.49,2.28.32,2.28.32v-.1s-2.27-.32-2.27-.32l-2.28-.32.21-1.49.21-1.49,3.02.42,3.03.42-.08.55-.08.55h.1s.08-.55.08-.55l.08-.57.16-1.17.16-1.17h-.1s-.16,1.12-.16,1.12l-.16,1.13-3.02-.42-3.02-.42.41-3.02.41-3.02,3.02.42,3.03.42-.16,1.12-.16,1.12h.1s.16-1.12.16-1.12l.16-1.12.64-4.61.64-4.61,1.49.21,1.49.21-.43,3.07-.42,3.07.6.08.6.08v-.1s-.54-.08-.54-.08l-.55-.08.42-3.02.42-3.02,1.49.21,1.49.2-.42,3.02-.42,3.02-.55-.08-.55-.08v.1s.54.08.54.08l.55.08,1.59.22,1.6.22.55.08.55.08v-.1s-.54-.08-.54-.08l-.55-.08.42-3.02.42-3.02,1.49.21,1.49.2-.42,3.02-.42,3.02-.55-.08-.55-.08v.1s.57.09.57.09l.58.09.57.07.57.07v-.1s-.54-.08-.54-.08l-.55-.08.42-3.02.42-3.02,1.49.21,1.49.21-.42,3.02-.42,3.02-.55-.08-.55-.08v.1s.57.09.57.09l.58.08.58.07.58.07v-.1s-.54-.08-.54-.08l-.55-.08.42-3.02.42-3.02,1.48.2,1.48.2-.42,3.02-.42,3.02-.55-.08-.55-.08v.1s.57.09.57.09l.57.08.58.07.57.07v-.1s-.53-.08-.53-.08l-.54-.08.42-3.02.42-3.02,1.48.2,1.48.21-.42,3.02-.02.08ZM43.13,34.75l-.04.27.28.04.28.04.04-.27.04-.27-.28-.04-.28-.04-.04.27Z"/>
      <path class="st11" d="M40.05,32.81l-.2,1.48-3.03-.42-3.02-.42.21-1.48.21-1.48,3.03.42,3.02.42-.21,1.48h-.01ZM45.45,61.77l-.21,1.49-3.02-.42-3.02-.42.21-1.49.21-1.49,3.02.42,3.02.42-.21,1.49ZM57.86,39.98l-.42,3.02-1.48-.2-1.48-.2.42-3.02.42-3.02,1.48.2,1.48.2s-.42,3.02-.42,3.02Z"/>
      <path class="st11" d="M88.08,70.66l.65.86-.1.73-.1.73-1.76-.24-2.26-.31.2-1.48.2-1.48,1.5.2,1,.14.65.86h.02ZM93.43,75.98l-.26,1.93h.1s.08-.53.08-.53l.08-.54,3.02.4,3.01.4-.2,1.48-.2,1.49-3.02-.41-3.02-.41.08-.55.07-.55h-.1s-.15,1.14-.15,1.14l-.16,1.15h.1s.07-.53.07-.53l.07-.54,3.02.41,3.02.41-.2,1.47-.2,1.48-3.02-.41-3.02-.41.08-.55.08-.55h-.1s-.07.54-.07.54l-.08.55-.55-.08-.31-.04-.05.31-.63-.09-.65-.09.05-.31-.28-.04-.55-.07.07-.55.07-.55h-.1s-.07.54-.07.54l-.07.55-3.02-.41-3.02-.41.2-1.48.2-1.48,3.02.41,3.02.41-.07.54-.07.54h.1s.15-1.14.15-1.14l.16-1.15h-.1s-.08.54-.08.54l-.07.55-3.02-.41-3.02-.41.2-1.48.2-1.48,3.01.41,3.01.41-.07.55-.07.55h.1s.26-1.92.26-1.92l.26-1.93,1.48.2,1.48.2-.26,1.93h.01Z"/>
      <path class="st11" d="M97.61,45.13l-.29,2.09h.1s.08-.54.08-.54l.08-.55,3.02.41,3.02.41-.2,1.47-.2,1.48-3.02-.41-3.02-.41.07-.54.07-.54h-.1s-.29,2.12-.29,2.12l-.29,2.13,3.07.42,3.07.42-.41,3.02-.41,3.02-3.07-.42-3.07-.42-.08.6-.08.6h.1s.08-.54.08-.54l.07-.55,3.02.41,3.02.41-.2,1.48-.2,1.48-2.28-.31-2.28-.31v.1s2.27.31,2.27.31l2.27.31-.2,1.48-.2,1.48-2.27-.3-2.27-.3v.1s2.26.31,2.26.31l2.27.31-.2,1.47-.2,1.47-3-.39-3-.39v-.02l-.03-.02.41-3.01.41-3.01.35.04.35.04v-.1s-.35-.05-.35-.05l-.36-.05.07-.55.08-.55h-.1s-.5,3.66-.5,3.66l-.5,3.67,1.23.17,1.22.17-.1.76-.1.76.16.02.16.02.92.12.92.12-.1.72-.1.72-2.3-.31-2.3-.31-.08.6-.08.6h.1s.07-.54.07-.54l.08-.55,3.02.41,3.02.41-.2,1.48-.2,1.48-3.02-.41-3.02-.41.07-.55.07-.55h-.1s-.09.65-.09.65l-.09.66-1.48-.2-1.48-.2v-.11l.03-.11h-.11l-.11-.03.02-.17.02-.17h-.18s-.03.15-.03.15l-.03.16-.56-.08-1.06-.14.1-.76.1-.76-.68-.88-.68-.88-1.02-.14-1.52-.21.05-.36.05-.36-.3-.04.21-1.54.3.04.05-.36.05-.36,2.86.39,2.86.39-.28,2.07-.28,2.07h.1l.1.03.28-2.07.28-2.07h.11l.11.03.08-.6.08-.6h-.1s-.08.54-.08.54l-.07.55-3.02-.41-3.02-.41.2-1.48.2-1.48,3.02.41,3.02.41-.08.55-.08.55h.1s.16-1.15.16-1.15l.16-1.16h-.1s-.07.54-.07.54l-.07.55-3.02-.41-3.02-.41.2-1.48.2-1.48,3.02.41,3.02.41-.07.54-.07.54h.1s.15-1.14.15-1.14l.16-1.15h-.1s-.08.54-.08.54l-.07.55-3.02-.41-3.02-.41.2-1.48.2-1.48,3.01.41,3.01.41-.07.55-.07.55h.1s.23-1.72.23-1.72l.23-1.73h-.1s-.15,1.12-.15,1.12l-.15,1.13-3.02-.41-3.02-.41.41-3.02.41-3.02,3.02.41,3.02.41-.15,1.13-.15,1.13h.1s.44-3.25.44-3.25l.44-3.26h-.1s-.07.53-.07.53l-.07.54-3.02-.41-3.02-.41.2-1.48.2-1.48,3.02.41,3.02.41-.07.55-.08.55h.1s.16-1.15.16-1.15l.16-1.16h-.1s-.08.54-.08.54l-.08.55-3.02-.41-3.02-.41.2-1.48.2-1.48,3.02.41,3.02.41-.07.54-.07.54h.1s.08-.54.08-.54l.07-.53,1.48.2,1.48.2-.28,2.07v.1Z"/>
      <path class="st11" d="M90.34,74.83l-.2,1.48-3.02-.41-3.02-.41.2-1.48.2-1.48,3.02.41,3.02.41-.2,1.49h0ZM99.54,76.08l-.2,1.48-3.02-.41-3.02-.41.2-1.48.2-1.48,3.02.41,3.02.41-.2,1.49h0ZM93.68,50.28l-.2,1.49-3.02-.41-3.02-.41.2-1.48.2-1.48,3.02.41,3.02.41-.2,1.48h0ZM102.88,51.53l-.2,1.48-3.01-.41-3.01-.42.2-1.48.2-1.48,3.02.41,3.02.41-.2,1.49h-.02Z"/>
      <path class="st11" d="M-46.83,352.4l.17,1.18.08-.02.38-.07.24,1.24-.38.07h-.08l.03.19-2.53.51-3.47.74.4,1.94.4,1.94h.14l-.38-1.87-.38-1.87,3.39-.72,2.45-.5,1.15,5.58.93,4.57-.32.07-1.02.22-.16-.76-.15-.76h-.06l-.06.02.16.76.15.76-.64.13-.64.13-.16-.76-.15-.76-.08.02-.08.02.15.76.16.76-.59.12-.59.12-.05.03-.04.03-.16-.78-.16-.78-.08.02-.08.02.16.76.16.76-.64.13-.88.15-.33-1.64-.5-2.38,2.76-.55,2.11-.43-.02-.07-.03-.07-2.1.42-2.75.54-.06-.28-.06-.28-.07.02-.07.02,1.1,5.33.93,4.59,1.56-.3.91-.18.31,1.54,2.15-.44.29,1.53-7.64,1.6-1.7-7.97-.08.02-.08.02.45,2.2.23,1.24-3.19.65-2.38.49-.49-2.55-.77-3.89,2.38-.49,3.19-.65.09.45.09.45.08-.02.08-.02-.39-1.93-.39-1.93-2.08.43-1.62.33.02.08.02.08,1.54-.31,2-.41.27,1.33.27,1.33-3.18.65-2.38.49-.27-1.33-.27-1.33.33-.07.33-.07-.02-.08-.02-.08-.33.07-.33.07-.09-.38-.2-.88h-.07l-.33.08-.33-1.61.33-.09h.08l-.06-.33-.27-1.4,2.46-.51,3.32-.69-.29-1.45-.29-1.45h-.08l-.08.03.28,1.37.28,1.37-3.24.67-2.38.49-.33-1.55-.42-2.4,2.38-.49,3.24-.67.1.45h.14l-.09-.47,4.13-.82,4.93-1,.29,1.42h0ZM482.28,347.03l1.65-15.16-11.58-1.24-6.86-.76.03-.28-2.01-.19-.03.27-2.71-.28-1.65,15.16,5.85.65-.02.22,2.05.24.02-.22,15.26,1.59h0ZM479.92,345.17l-3.4-.36.16-1.45,3.4.36-.15,1.45h0ZM468.43,337.31l-3.19-.35.28-2.85,3.19.35-.28,2.85ZM438.32,321.72h.11l.11.03-.18,1.43h-.11l-.11-.03-2.47,19.57-41.45-5.16.61-5.51-.12-.03-.12-.03.74-5.95.13.02.13.02,1.04-8.07-.12-.03-.12-.03.15-1.36.13.02.13.02.26-1.96,34.96,4.37-.13,1-.13,1,.13.02.13.02.13-1,.13-1,6.25.79-.24,1.9.03-.05ZM423.21,327.42l-.38,3.01,1.45.18,1.45.18.15-1.24.16-1.24-.21-.03-.21-.03.22-1.77.08-.62-1.24-.16-1.24-.16-.24,1.86v.02ZM409.39,325.51l-.38,3.01,1.45.18,1.45.18.16-1.24.16-1.24-.21-.03-.21-.03.22-1.77.06-.51-1.24-.16-1.24-.16-.22,1.74v.03ZM434.68,326.16l-.17,1.37-1.4-.18-1.4-.18-.02.16-.02.16,1.53.19,1.53.19.19-1.53.19-1.53-.13-.02-.13-.02-.17,1.37v.02ZM-19.87,297.65l.83,4.01.13-.03.13-.03.27,1.29.17.79-.13.03-.13.03.12.64.03.13-8.91,1.85-8.91,1.85-.82-3.93-1.09-5.32-.13.03-.13.03-.05-.14-.26-1.26.13-.03.13-.03-.05-.24-.05-.24,1.66-.35,1.41-.28.38,1.81,3-.62-.38-1.83,5.99-1.24,5.74-1.2.89,4.27h.03ZM-31.8,301.46l.27,1.29,3.14-.65,3.14-.65-.27-1.29-.32-1.55-3.14.65-3.14.65.32,1.55ZM275.41,294.1l-.02.13,5.77.86-4.26,28.42-37.27-5.57-.02.13-.05.4-1.85-.25.05-.4.02-.13-13.11-1.99,3.5-23.54-.13-.02-.26-.05.31-1.89.26.05.13.02.42-3.02,5.52.82.02-.13.06-.35,5.87.92-.06.35-.02.13,3.71.54-.88,5.68,4.4.66.02-.13.02-.13-4.14-.62.84-5.41,6.38.97-.87,5.38-.38-.07-.04.17-.02.13.34.05.35.05.88-5.68,18.16,2.72.04-.12.08-.29,6.28.91-.07.31h.02ZM342.14,252.71l-.02.15,2.77.47,5.79.89-.53,3.46-.41,2.59.15.02.15.02-.49,3.27-.32,2.17-.15-.02-.15-.02-2.27,14.59-2.39,15.55.15.02.15.02-.84,5.42-.15-.02-.15-.02-.05.32-10.86-1.72-12.65-1.95.31-1.99.68-4.38-.15-.02-.15-.02.83-5.51.15.02.15.02,1.04-6.3-.15-.02-.15-.02.81-5.48.15.02.15.02.38-2.23,2.13.31,2.13.31.32-2.05.32-2.05-.18-.03-.18-.03-.29,1.9-.29,1.9-1.96-.3-1.96-.3.5-3.6-.15-.02-.15-.02.87-5.49.15.02.15.02.87-5.51,1.01-6.52,1.55.23,1.78.27.02-.15.02-.15,5.31.83,6.31.98-.02.15-.04-.02ZM-333.41,239.18h.04l.97,2.23.97,2.22-2.9,1.27-2.9,1.27-.98-2.24-.98-2.24,2.86-1.26,2.86-1.26h.06ZM-345.36,300.7v.07l3.62.1,7.89.22-.27,9.73-.26,9.12-2.44-.07-2.44-.07-.04,1.57,1.78.05-.03,1.44,1.55.04,1.55.04-.05,1.83v.66l.21.02-.15,5.2h-.24l-.42,15.03-.41,14.64-14.82-.42-9.03-.27.83-29.41.84-29.8,3.94.11,3.64.09v-.18l2.38.07,2.38.07v.11h-.01ZM60.07,367.67l12.01-2.19-1.7-9.31,6.14-1.12,1.76,9.64,1.84-.33-1.77-9.69,2.15-.39,1.71,9.41.46-.08-3.26-17.88.8-.15-1.12-5.94-.77.14-3.17-17.4.8-.13-.95-5.94-.93.15-2.12-11.64-11.06,2.02,2.14,11.72-.65.12-1.1-6.02-2.03.37-.11-.58,2.05-.37-.95-5.21-11.02,2.01.95,5.21,7.7-1.4.1.56-7.51,1.37,1.11,6.08-1.12.2,1.03,5.65.93-.17,2.14,11.75-.89.18,1.08,5.93.94-.19.39,2.05,7.39-1.35,1.08,6.02-.54.1-.99-5.51-3.43.63.32,1.79-1.7.31.3,1.62-1.73.32-.61-3.41,1.52,8.46,6.87-1.25-.26-1.41.49-.09.25,1.37.88-.16.15.8-8.16,1.49,2.16,11.86v-.02ZM68.83,354.18l-5.38-29.99,6.42-1.15.44,2.46-.72.13-.35-1.95-4.67.84,2.01,11.19,4.8-.86-1.3-7.24.59-.11,1.41,7.87-5.39.97,3.17,17.66-1.03.18h0ZM-316.5,391.92l.04.03.04,2.42.04,2.42-3.16.05-3.16.05-.04-2.45-.04-2.45,3.13-.05,3.13-.05.04.03h-.02ZM-59.84,230.26l.35-4.69.35-4.69,1.07.08,2.17.17.3-3.92.3-3.93.04-.48.04-.47-2.49-.19-1.35-.1-.02.29-.02.29-.89-.07-.89-.07.02-.29.02-.29-3.16-.24-3.75-.28-.02.32-.02.32-.29-.02-.29-.02-.1,1.29-.1,1.29-.19,2.51-.19,2.51.33.02.25.02-.07.89-.07.89-.24-.02-.33-.02-.22,2.98-.23,2.98-.06.82-.06.82.38.03h.2l-.02.3-.02.29,3.75.28,3.16.24.02-.29.02-.29.89.07.89.07-.02.29-.02.29.3.02.3.02-.02-.02ZM-60.65,220.26l-3.51-.23.31-4.74,3.51.23-.31,4.74ZM-285.83,214.24l-6.15-.35-.32,5.63,6.16.35.32-5.63h-.01ZM-391.64,376.79l.15-3.92,5.32.2-.15,3.93-5.32-.2h0ZM-400.75,379.36l-6.5-.23.11-3.25,6.5.22-.11,3.25h0ZM-398.78,323.42l-6.54-.19-.09,3.24,6.54.19.09-3.24ZM-414.56,362.16l6.58.19-.12,3.44-6.58-.22.12-3.4h0ZM-424.33,383.28l-6.65-.19.1-3.65,6.65.19-.1,3.65ZM-423.56,348.54l-6.69-.22-.12,3.58,6.69.22.12-3.58ZM-447.27,371.09l-5.27-.19-.12,3.4,5.27.19.12-3.4ZM-422.75,326.01l-6.58-.18.09-3.33,6.58.19-.09,3.32h0ZM-430.37,320.99l-6.61-.26.14-3.51,6.62.26-.14,3.51h-.01ZM-389.86,323.13l5.27.21.12-3.66-5.27-.21-.12,3.67h0ZM-389.05,300.92l5.36.16.09-3.4-5.36-.16-.09,3.4ZM-391.28,390.42l-2.3-.17-.44,5.78,2.3.17.44-5.78ZM-386.47,439.21l-1.97-1.2-2.96,4.87,1.97,1.2,2.97-4.87h-.01ZM-384.08,271.34l-3.39-2.21-3.89,5.97,3.39,2.21,3.89-5.97ZM-254.53,207.14l-6.16-.22-.2,5.61,6.15.22.2-5.61h.01ZM-114.16,232.07l-2.12-.92-2.28,5.28,2.12.92,2.29-5.28h-.01Z"/>
      <path class="st11" d="M68.51,195.98l-5.7-.83-.33,2.26,5.7.83.33-2.26ZM442.6,210.69l3.04-3.58c-1.92-1.63-3.84-3.25-5.75-4.88l-3.04,3.58,5.76,4.88h-.01ZM231.7,256.76l-2.34-.33-.82,5.77,2.34.33.82-5.77ZM223.75,218.5l-5.5-.77-.85,6.09,5.5.77.85-6.09h0ZM-381.62,426.79l-2.31-.25-.61,5.76,2.31.25.61-5.76ZM-325.45,412.13l-2.35-.13-.33,5.8,2.35.14.33-5.81Z"/>
    </g>
  </g>
</svg>